<?xml version="1.0" encoding="utf-8"?>
<!-- Generator: Adobe Illustrator 22.1.0, SVG Export Plug-In . SVG Version: 6.00 Build 0)  -->
<svg version="1.1" id="Capa_1" xmlns="http://www.w3.org/2000/svg" xmlns:xlink="http://www.w3.org/1999/xlink" x="0px" y="0px"
	 viewBox="0 0 512 512" style="enable-background:new 0 0 512 512;" xml:space="preserve">
<style type="text/css">
	.st0{fill:#FFF0C8;}
	.st1{fill:#C9B39D;}
</style>
<g>
	<g id="XMLID_1_">
		<g>
			<path class="st0" d="M472.9,177.4c4.2,5.3,5.9,12.3,4.4,18.9l-55,265.5c-1.3,8.9-8.8,15.7-17.8,16.1h-297
				c-9-0.4-16.5-7.2-17.8-16.1l-55-265.5c-1.4-6.6,0.2-13.6,4.4-18.9c3.2-4.1,8.2-6.6,13.4-6.7h80.3V256c0,9.4,7.6,17.1,17.1,17.1
				S167,265.5,167,256v-85.3h178.1V256c0,9.4,7.6,17.1,17.1,17.1s17.1-7.6,17.1-17.1v-85.3h80.2
				C464.8,170.8,469.7,173.2,472.9,177.4z"/>
			<path class="st1" d="M499.4,155.9c10.7,13.3,14.9,30.7,11.3,47.4l-55,265.4c-4.5,24.8-26,43-51.2,43.3h-297
				c-25.2-0.3-46.7-18.5-51.2-43.3l-55-265.5c-3.6-16.7,0.5-34.1,11.3-47.3c9.7-12.1,24.4-19.2,39.9-19.3h80.3v-17.1
				C133.9,52.5,189-0.9,256,0c67-0.9,122.1,52.5,123.2,119.5v17.1h80.3C475,136.7,489.7,143.8,499.4,155.9z M477.3,196.3
				c1.5-6.6-0.2-13.6-4.4-18.9c-3.2-4.2-8.1-6.6-13.4-6.7h-80.2V256c0,9.5-7.6,17.1-17.1,17.1s-17.1-7.7-17.1-17.1v-85.3H167V256
				c0,9.5-7.6,17.1-17.1,17.1s-17.1-7.7-17.1-17.1v-85.3H52.5c-5.2,0.1-10.2,2.6-13.4,6.7c-4.2,5.3-5.8,12.3-4.4,18.9l55,265.5
				c1.3,8.9,8.8,15.7,17.8,16.1h297c9-0.4,16.5-7.2,17.8-16.1L477.3,196.3z M345.1,136.6v-17.1c-1.2-48.1-41-86.2-89.1-85.3
				c-48.2-1-88,37.2-89.1,85.3v17.1H345.1z"/>
		</g>
		<g>
		</g>
	</g>
</g>
</svg>
