<?xml version="1.0" encoding="utf-8"?>
<!-- Generator: Adobe Illustrator 22.1.0, SVG Export Plug-In . SVG Version: 6.00 Build 0)  -->
<svg version="1.1" id="Capa_1" xmlns="http://www.w3.org/2000/svg" xmlns:xlink="http://www.w3.org/1999/xlink" x="0px" y="0px"
	 viewBox="0 0 512 512" style="enable-background:new 0 0 512 512;" xml:space="preserve">
<style type="text/css">
	.st0{fill:#FFF0C8;}
	.st1{fill:#C9B39D;}
</style>
<g id="Layer_x0020_1_25_">
	<g id="XMLID_1_">
		<g>
			<path class="st0" d="M444.3,91.9c24.5,24.5,36.7,56.6,36.7,88.7s-12.3,64.2-36.7,88.7L257.2,456.4c-0.3,0.3-0.8,0.5-1.2,0.5
				c-0.5,0-1-0.2-1.3-0.5l-187-187.1C43.2,244.8,31,212.7,31,180.6s12.2-64.2,36.7-88.7s56.6-36.7,88.7-36.7s64.2,12.3,88.7,36.7
				c6.1,6,15.8,6,21.9,0c24.5-24.5,56.6-36.7,88.7-36.7C387.7,55.2,419.8,67.4,444.3,91.9z M159.2,104.7c8.5,0,15.4-7,15.4-15.5
				s-7-15.4-15.5-15.4C129.1,74,102,86.3,82.4,106c-25.6,25.8-36.5,62.2-29.7,97.5c1.6,8.4,9.7,13.9,18.1,12.3
				c8.4-1.6,13.9-9.7,12.3-18.1c-4.9-25.3,3-51.5,21.3-69.9C118.4,113.6,137.8,104.8,159.2,104.7z"/>
			<path class="st1" d="M466.2,70c30.5,30.5,45.8,70.6,45.8,110.6s-15.3,80-45.8,110.6L279.1,478.3c-6.4,6.4-14.7,9.5-23.1,9.5
				c-8.3,0-16.7-3.2-23-9.5L45.8,291.1C15.3,260.6,0,220.6,0,180.6s15.3-80,45.8-110.6c30.5-30.5,70.6-45.8,110.6-45.8
				c35.4,0,70.8,12,99.6,35.8c28.8-23.9,64.2-35.8,99.6-35.8C395.6,24.2,435.7,39.5,466.2,70z M481,180.6
				c0-32.1-12.3-64.2-36.7-88.7c-24.5-24.5-56.6-36.7-88.7-36.7s-64.2,12.3-88.7,36.7c-6.1,6-15.9,6-21.9,0
				c-24.5-24.5-56.6-36.7-88.7-36.7S92.2,67.4,67.7,91.9S31,148.5,31,180.6s12.2,64.2,36.7,88.7l187,187.1c0.3,0.4,0.8,0.5,1.3,0.5
				s0.9-0.2,1.2-0.5l187.1-187.1C468.8,244.8,481,212.7,481,180.6z"/>
			<path class="st1" d="M174.6,89.2c0,8.5-6.8,15.4-15.4,15.5c-21.4,0.2-40.8,9-54.9,23.1C86,146.2,78.2,172.4,83,197.7
				c1.6,8.4-3.9,16.5-12.3,18.1s-16.5-3.9-18.1-12.3c-6.8-35.3,4.1-71.8,29.7-97.5C101.9,86.3,129,74,159,73.8
				C167.6,73.8,174.6,80.7,174.6,89.2z"/>
		</g>
	</g>
</g>
</svg>
