<?xml version="1.0" encoding="utf-8"?>
<!-- Generator: Adobe Illustrator 22.1.0, SVG Export Plug-In . SVG Version: 6.00 Build 0)  -->
<svg version="1.1" id="Capa_1" xmlns="http://www.w3.org/2000/svg" xmlns:xlink="http://www.w3.org/1999/xlink" x="0px" y="0px"
	 viewBox="0 0 512 512" style="enable-background:new 0 0 512 512;" xml:space="preserve">
<style type="text/css">
	.st0{fill:#C9B39D;}
</style>
<g>
	<g id="Layer_x0020_1_25_">
		<path class="st0" d="M45.8,291.2C15.3,260.6,0,220.6,0,180.6s15.3-80,45.8-110.6c30.5-30.5,70.6-45.8,110.6-45.8
			c35.4,0,70.8,11.9,99.6,35.8c28.8-23.9,64.2-35.8,99.6-35.8c40,0,80,15.3,110.6,45.8c30.5,30.5,45.8,70.6,45.8,110.6
			s-15.3,80-45.8,110.6l-187.1,187c-6.4,6.4-14.7,9.5-23.1,9.5c-8.3,0-16.7-3.2-23-9.5L45.8,291.2L45.8,291.2z M83.1,197.7
			c1.6,8.4-3.9,16.5-12.3,18.1s-16.5-3.9-18.1-12.3c-6.8-35.3,4.2-71.8,29.7-97.5c19.6-19.7,46.7-32,76.7-32.2
			c8.5,0,15.5,6.8,15.5,15.4c0,8.5-6.8,15.5-15.4,15.5c-21.4,0.2-40.8,9-54.9,23.1C86,146.2,78.2,172.5,83.1,197.7z M67.7,269.3
			l187,187.1c0.3,0.4,0.8,0.5,1.3,0.5s0.9-0.2,1.2-0.5l187.1-187.1c24.5-24.5,36.7-56.6,36.7-88.7s-12.2-64.2-36.7-88.7
			s-56.6-36.7-88.7-36.7s-64.2,12.2-88.7,36.7c-6,6-15.8,6-21.9,0c-24.5-24.5-56.6-36.7-88.7-36.7S92.2,67.4,67.7,91.9
			S31,148.5,31,180.6S43.2,244.8,67.7,269.3L67.7,269.3z"/>
	</g>
</g>
</svg>
