<?xml version="1.0" encoding="utf-8"?>
<!-- Generator: Adobe Illustrator 22.1.0, SVG Export Plug-In . SVG Version: 6.00 Build 0)  -->
<svg version="1.1" id="Layer_1" xmlns="http://www.w3.org/2000/svg" xmlns:xlink="http://www.w3.org/1999/xlink" x="0px" y="0px"
	 viewBox="0 0 95.8 15.7" style="enable-background:new 0 0 95.8 15.7;" xml:space="preserve">
<style type="text/css">
	.st0{fill:#C9B39D;}
	.st1{fill:#E8E0DA;}
</style>
<g>
	<path class="st0" d="M15.4,5.2c0.2,0.2,0.4,0.5,0.4,0.8c0,0.2-0.1,0.4-0.2,0.6c-0.1,0.2-0.3,0.4-0.5,0.6l-2.7,2.5l1.4,4.3
		c0.1,0.2,0.1,0.3,0.1,0.6c0,0.3-0.1,0.6-0.3,0.8c-0.2,0.2-0.5,0.3-0.8,0.3c-0.4,0-0.7-0.1-1-0.3L8,12.8l-3.8,2.6
		c-0.3,0.2-0.7,0.3-1,0.3s-0.6-0.1-0.8-0.3C2.1,15.2,2,14.9,2,14.6c0-0.1,0-0.3,0.1-0.6l1.4-4.3L0.8,7.2C0.3,6.9,0.1,6.5,0.1,6.1
		c0-0.3,0.1-0.6,0.4-0.8C0.7,5.1,1.1,5,1.5,5h3.6l1.4-3.8c0.1-0.3,0.3-0.6,0.6-0.7C7.3,0.2,7.6,0.1,8,0.1c0.3,0,0.6,0.1,0.9,0.3
		c0.3,0.2,0.4,0.4,0.6,0.7l1.4,3.8h3.6C14.8,4.9,15.2,5,15.4,5.2z"/>
	<path class="st0" d="M35.4,5.2c0.2,0.2,0.4,0.5,0.4,0.8c0,0.2-0.1,0.4-0.2,0.6c-0.1,0.2-0.3,0.4-0.5,0.6l-2.7,2.5l1.4,4.3
		c0.1,0.2,0.1,0.3,0.1,0.6c0,0.3-0.1,0.6-0.3,0.8c-0.2,0.2-0.5,0.3-0.8,0.3c-0.4,0-0.7-0.1-1-0.3L28,12.8l-3.8,2.6
		c-0.3,0.2-0.7,0.3-1,0.3s-0.6-0.1-0.8-0.3c-0.2-0.2-0.3-0.5-0.3-0.8c0-0.1,0-0.3,0.1-0.6l1.4-4.3l-2.7-2.5
		c-0.4-0.4-0.6-0.8-0.6-1.2c0-0.3,0.1-0.6,0.4-0.8c0.2-0.2,0.6-0.3,1-0.3h3.6l1.4-3.8c0.1-0.3,0.3-0.6,0.6-0.7s0.6-0.3,0.9-0.3
		s0.6,0.1,0.9,0.3c0.3,0.2,0.5,0.4,0.6,0.7l1.4,3.8h3.6C34.8,4.9,35.2,5,35.4,5.2z"/>
	<path class="st0" d="M55.4,5.2c0.2,0.2,0.4,0.5,0.4,0.8c0,0.2-0.1,0.4-0.2,0.6c-0.1,0.2-0.3,0.4-0.5,0.6l-2.7,2.5l1.4,4.3
		c0.1,0.2,0.1,0.3,0.1,0.6c0,0.3-0.1,0.6-0.3,0.8c-0.2,0.2-0.5,0.3-0.8,0.3c-0.4,0-0.7-0.1-1-0.3L48,12.8l-3.8,2.6
		c-0.3,0.2-0.7,0.3-1,0.3s-0.6-0.1-0.8-0.3c-0.2-0.2-0.3-0.5-0.3-0.8c0-0.1,0-0.3,0.1-0.6l1.4-4.3l-2.7-2.5
		c-0.4-0.4-0.6-0.8-0.6-1.2c0-0.3,0.1-0.6,0.4-0.8c0.2-0.2,0.6-0.3,1-0.3h3.6l1.4-3.8c0.1-0.3,0.3-0.6,0.6-0.7s0.6-0.3,0.9-0.3
		c0.3,0,0.6,0.1,0.9,0.3c0.3,0.2,0.5,0.4,0.6,0.7l1.4,3.8h3.6C54.8,4.9,55.2,5,55.4,5.2z"/>
	<path class="st0" d="M75.4,5.2c0.2,0.2,0.4,0.5,0.4,0.8c0,0.2-0.1,0.4-0.2,0.6c-0.1,0.2-0.3,0.4-0.5,0.6l-2.7,2.5l1.4,4.3
		c0.1,0.2,0.1,0.3,0.1,0.6c0,0.3-0.1,0.6-0.3,0.8c-0.2,0.2-0.5,0.3-0.8,0.3c-0.4,0-0.7-0.1-1-0.3L68,12.8l-3.8,2.6
		c-0.3,0.2-0.7,0.3-1,0.3s-0.6-0.1-0.8-0.3c-0.2-0.2-0.3-0.5-0.3-0.8c0-0.1,0-0.3,0.1-0.6l1.4-4.3l-2.7-2.5
		c-0.4-0.4-0.6-0.8-0.6-1.2c0-0.3,0.1-0.6,0.4-0.8c0.2-0.2,0.6-0.3,1-0.3h3.6l1.4-3.8c0.1-0.3,0.3-0.6,0.6-0.7s0.6-0.3,0.9-0.3
		s0.6,0.1,0.9,0.3c0.3,0.2,0.5,0.4,0.6,0.7l1.4,3.8h3.6C74.8,4.9,75.2,5,75.4,5.2z"/>
</g>
<g>
	<path class="st0" d="M87.3,0.3C87,0.5,86.8,0.8,86.7,1l-1.4,3.8h-3.6c-0.4,0-0.8,0.1-1,0.3c-0.3,0.2-0.4,0.5-0.4,0.8
		c0,0.4,0.2,0.8,0.6,1.2l2.7,2.5L82.2,14c-0.1,0.3-0.1,0.5-0.1,0.6c0,0.3,0.1,0.6,0.3,0.8c0.2,0.2,0.5,0.3,0.8,0.3
		c0.3,0,0.7-0.1,1-0.3l3.8-2.6V0.1C87.8,0.1,87.5,0.3,87.3,0.3z"/>
	<path class="st1" d="M95.4,5.1c-0.2-0.2-0.6-0.3-0.7-0.3h-3.6L89.7,1c-0.1-0.3-0.3-0.5-0.6-0.7C88.8,0.1,88.5,0,88.2,0
		c-0.1,0-0.1,0-0.2,0v12.7l3.8,2.6c0.3,0.2,0.6,0.3,1,0.3c0.3,0,0.6-0.1,0.8-0.3c0.2-0.2,0.3-0.5,0.3-0.8s0-0.4-0.1-0.6l-1.4-4.3
		l2.7-2.5c0.2-0.2,0.4-0.4,0.5-0.6c0.1-0.2,0.2-0.4,0.2-0.6C95.8,5.6,95.6,5.3,95.4,5.1z"/>
</g>
</svg>
