<?xml version="1.0" encoding="UTF-8"?>
<svg id="Layer_1" xmlns="http://www.w3.org/2000/svg" version="1.1" xmlns:xlink="http://www.w3.org/1999/xlink" viewBox="0 0 630 222">
  <!-- Generator: Adobe Illustrator 29.2.1, SVG Export Plug-In . SVG Version: 2.1.0 Build 116)  -->
  <defs>
    <style>
      .st0 {
        fill: #f2edf9;
      }

      .st1 {
        fill: #d1c9e2;
        stroke-width: 2px;
      }

      .st1, .st2, .st3, .st4, .st5, .st6, .st7 {
        stroke: #756a64;
      }

      .st1, .st3, .st4, .st6, .st7 {
        stroke-linejoin: round;
      }

      .st2, .st3 {
        fill: #fdf9f6;
        stroke-width: 2.1px;
      }

      .st2, .st5 {
        stroke-miterlimit: 10;
      }

      .st8 {
        fill: #756a64;
      }

      .st9 {
        fill: #55463e;
      }

      .st10, .st7 {
        fill: #fff;
      }

      .st11, .st5 {
        fill: none;
      }

      .st12 {
        clip-path: url(#clippath-1);
      }

      .st13 {
        isolation: isolate;
      }

      .st14 {
        fill: #c2b8a6;
      }

      .st4 {
        stroke-width: 2.1px;
      }

      .st4, .st6 {
        fill: #887b76;
      }

      .st15 {
        fill: #fffbf0;
      }

      .st5 {
        stroke-linecap: round;
        stroke-width: 1.3px;
      }

      .st6 {
        stroke-width: 2.3px;
      }

      .st16 {
        clip-path: url(#clippath);
      }

      .st7 {
        stroke-width: 2.1px;
      }
    </style>
    <clipPath id="clippath">
      <circle class="st11" cx="550.8" cy="140" r="71.5"/>
    </clipPath>
    <clipPath id="clippath-1">
      <circle class="st11" cx="550.8" cy="140" r="71.5"/>
    </clipPath>
  </defs>
  <g>
    <g class="st16">
      <circle class="st0" cx="550.8" cy="140" r="71.5"/>
    </g>
    <g class="st12">
      <g>
        <path class="st1" d="M573,194.5c-4.5-29.7-18.2-29.7-18.2-29.7h-11.4s-14.6-.6-18.2,29.7c0,0-1.6,13.5-.5,19.4h48.6c1.3-5.9-.3-19.4-.3-19.4Z"/>
        <polygon class="st3" points="544.1 165.6 544.1 159.4 554.7 159.4 554.7 165.6 549.4 175.1 544.1 165.6"/>
        <path class="st6" d="M549.4,88.1s23.1-10,35.6,12.3c0,0,8.1,13.7,4.8,29.7-3.1,15.2-4.3,17.4-3.9,24.6.3,7.2,3.6,10,3.6,10,0,0-10.6-1.4-15.4-11.9-4.8-10.6-13.4-30.1-15.1-39.9s-9.6-24.8-9.6-24.8Z"/>
        <path class="st4" d="M583.9,121.7c-3-38.3-34.8-34.5-34.8-34.5,0,0-31.7-3.8-34.8,34.5-2.9,38.2,72.7,38.2,69.6,0Z"/>
        <path class="st2" d="M576.9,125.4s5.3-7.9,9.2-3.2c3.9,4.8-1.8,12.6-1.8,12.6,0,0-2.5,4.2-8.1,6.1,0,0,.5-3.1.7-15.5Z"/>
        <path class="st2" d="M521.7,125.4s-5.3-7.9-9.2-3.2c-3.9,4.8,1.8,12.6,1.8,12.6,0,0,2.5,4.2,8.1,6.1.1,0-.5-3.1-.7-15.5Z"/>
        <path class="st3" d="M576.4,125.8c-10.6,9-19,0-19,0-8.9,8.7-17.4,0-17.4,0-9.6,7.4-18,0-18,0,0,0-5.3,35.7,27.2,35.7s27.2-35.7,27.2-35.7Z"/>
        <g>
          <path class="st8" d="M541.8,137.4c0,2.2-1.6,3.9-3.5,3.9s-3.5-1.8-3.5-3.9,1.6-3.9,3.5-3.9c1.9-.1,3.5,1.7,3.5,3.9"/>
          <path class="st10" d="M539.5,136.2c0,.5-.5,1-1.2,1s-1.2-.4-1.2-1,.5-1,1.2-1,1.2.4,1.2,1"/>
          <path class="st10" d="M539.2,139c0,.4-.4.8-.9.8s-.9-.3-.9-.8.4-.8.9-.8c.5.1.9.4.9.8"/>
        </g>
        <g>
          <path class="st8" d="M564.2,137.4c0,2.2-1.6,3.9-3.5,3.9s-3.5-1.8-3.5-3.9,1.6-3.9,3.5-3.9c2-.1,3.5,1.7,3.5,3.9"/>
          <path class="st10" d="M561.9,136.2c0,.5-.5,1-1.2,1s-1.2-.4-1.2-1,.5-1,1.2-1,1.2.4,1.2,1"/>
          <path class="st10" d="M561.6,139c0,.4-.4.8-.9.8s-.9-.3-.9-.8.4-.8.9-.8c.5.1.9.4.9.8"/>
        </g>
        <path class="st5" d="M541.4,122.1c-1.2-1.6-4.2-2.7-7.5-2.7s-6.2,1.1-7.5,2.7"/>
        <path class="st5" d="M571.7,122.1c-1.2-1.6-4.2-2.7-7.5-2.7s-6.2,1.1-7.5,2.7"/>
        <path class="st7" d="M542.9,165.1s.8,11.2,6.2,17.9c0,0,4.9-4.8,6.6-17.9,0,0-6,5.8-12.8,0Z"/>
      </g>
    </g>
  </g>
  <g>
    <path class="st15" d="M502,123.1c.4,0,.8-.3,1.1-.7.2-.3.3-.7-.1-1.2l-15-24.1c-.6-1-.6-2.2-.1-3.2,2.2-4.2,3.3-8.7,3.3-13.4v-37.9c0-17.2-14-31.3-31.3-31.3H43.5c-17.2,0-31.3,14-31.3,31.3v35.7c0,17.2,14,31.3,31.3,31.3h418.6c4,0,7.8-.8,11.4-2.3.4-.2.9-.3,1.3-.3.6,0,1.2.2,1.7.5l24.8,15.5c.3,0,.5,0,.7,0h0Z"/>
    <path class="st14" d="M43.5,12.4c-16.7,0-30.3,13.6-30.3,30.3v35.7c0,16.7,13.6,30.3,30.3,30.3h418.6c3.8,0,7.5-.8,11-2.3.5-.2,1.1-.4,1.7-.4s1.6.2,2.2.6l24.8,15.5h.1s.1,0,.2,0v-.2l-15-24.1c-.8-1.3-.8-2.9-.1-4.2,2.1-4,3.2-8.4,3.2-12.9v-38c0-16.7-13.6-30.3-30.3-30.3H43.5M43.5,10.4h416.4c17.8,0,32.3,14.4,32.3,32.3v37.9c0,5-1.2,9.7-3.4,13.9-.4.7-.4,1.5.1,2.2l15,24.1c1,1.6-.3,3.4-1.9,3.4s-.8,0-1.2-.4l-24.8-15.5c-.4-.2-.8-.3-1.2-.3s-.6,0-.9.2c-3.6,1.6-7.6,2.4-11.8,2.4H43.5c-17.8,0-32.3-14.4-32.3-32.3v-35.7c0-17.8,14.5-32.2,32.3-32.2h0Z"/>
  </g>
  <g class="st13">
    <path class="st9" d="M89.3,40.6h1c-.8,1.1-.9,1.7-.9,2.5.9,0,1.1.5,1.1,1.4s-.4,1.4-1.4,1.4-1.4-.4-1.4-1.4c0-1.7.7-3.1,1.6-3.9ZM92.6,40.6h1c-.8,1.1-.9,1.7-.9,2.5.9,0,1.1.5,1.1,1.4s-.4,1.4-1.4,1.4-1.4-.4-1.4-1.4c0-1.7.7-3.1,1.6-3.9Z"/>
    <path class="st9" d="M108.3,42.8h-6.2v8.2c2.3,0,4.9,0,7.9-.8l.2,1.8c-3.7,1-6.4,1-9,.8-.7,0-1.1-.4-1.1-1.1v-10.7h8.2v1.8ZM113.7,46.8h2.9v1.8h-2.9v8.7h-2v-17.6h2v7.1Z"/>
    <path class="st9" d="M117.4,46.8c0-3.2,1.4-6,4.7-6s4.7,2.8,4.7,6-1.4,6.1-4.7,6.1c-3.3,0-4.7-2.9-4.7-6.1ZM124.8,46.8c0-2.5-.8-4.2-2.7-4.2s-2.7,1.7-2.7,4.2.8,4.3,2.7,4.3c1.9,0,2.7-1.8,2.7-4.3ZM132.3,57.3h-2v-17.6h2v17.6Z"/>
    <path class="st9" d="M135,46.8c0-3.2,1.4-6,4.7-6s4.7,2.8,4.7,6-1.4,6.1-4.7,6.1c-3.3,0-4.7-2.9-4.7-6.1ZM142.4,46.8c0-2.5-.8-4.2-2.7-4.2s-2.7,1.7-2.7,4.2.8,4.3,2.7,4.3c1.9,0,2.7-1.8,2.7-4.3ZM149.9,57.3h-2v-9.7h-3v-1.8h3v-6.1h2v17.6Z"/>
    <path class="st9" d="M152.3,55.2v-1.8h16.4v1.8h-16.4ZM154.7,49.5v-8.6h11.5v1.7h-9.5v2.3h9.3v1.7h-9.3v2.3h9.9v1.7h-10.8c-.7,0-1.1-.4-1.1-1.1Z"/>
    <path class="st9" d="M180.3,44.5h-1.8c.5.3.8.8.8,1.4,0,1.7-1.3,3.2-4.2,3.2s-4.2-1.5-4.2-3.2.3-1.1.8-1.4h-1.8v-1.8h10.5v1.8h-.1ZM178.5,40v1.8c-1.5,0-4.8,0-6.5-.5l.6-1.7c1.4.4,4.3.4,5.9.4ZM177.3,45.9c0-.8-.5-1.4-2.2-1.4s-2.2.6-2.2,1.4.5,1.4,2.2,1.4c1.6,0,2.2-.6,2.2-1.4ZM173,56.7v-3.6h9.1v-1.1h-9.1v-1.7h11.1v4.6h-9.1v1.1h9.7v1.7h-10.6c-.7.1-1.1-.3-1.1-1ZM184.1,43.6h2.9v1.8h-2.9v4.1h-2v-9.9h2v4Z"/>
    <path class="st9" d="M195.5,43.2h-1.9v7.3c.6,0,1.8,0,2.6-.5v-8.6h4.2v1.8h-2.2v7.3c.9,0,2.1-.2,2.8-.3l.2,1.8c-1,.2-2.6.4-3.9.4s-.9-.2-1-.7c-1,.4-2.4.6-3.5.6s-1.1-.4-1.1-1.1v-9.8h3.9v1.8h-.1ZM203.6,46.3h1.7v-6.7h1.9v17.7h-1.9v-9.2h-1.7v8.4h-1.9v-16.6h1.9v6.4Z"/>
    <path class="st9" d="M220,43v-.7h-6v-1.8h8.1v2.5c0,3.7-2.6,6.4-8,7.2l-.6-1.7c4.6-.6,6.5-2.5,6.5-5.5ZM216.2,56.7v-5.2h2v4.5h9.7v1.8h-10.6c-.7,0-1.1-.4-1.1-1.1ZM227.3,44.8h2.9v1.8h-2.9v5.9h-2v-12.8h2v5.1Z"/>
    <path class="st9" d="M239.5,42.4h-6.2v5.4c2.3,0,4.7,0,7.9-1l.2,1.8c-3.8,1.1-6.4,1.1-9,1-.7,0-1.1-.4-1.1-1.1v-7.9h8.2v1.8h0ZM233.8,56.7v-5.2h2v4.5h9.7v1.8h-10.6c-.7,0-1.1-.4-1.1-1.1ZM244.9,44.8h2.9v1.8h-2.9v5.9h-2v-12.8h2v5.1Z"/>
    <path class="st9" d="M258.7,45.9h-2.6c.9.6,1.6,1.6,1.6,3,0,2.6-1.3,4.7-4.2,4.7s-4.2-2.2-4.2-4.7.7-2.4,1.6-3h-2.7v-1.8h10.5v1.8ZM256.9,40.6v1.8c-1.5,0-4.8,0-6.5-.5l.6-1.7c1.4.4,4.3.4,5.9.4ZM255.7,48.9c0-1.7-.6-2.9-2.2-2.9s-2.2,1.2-2.2,2.9.6,2.9,2.2,2.9c1.6,0,2.2-1.1,2.2-2.9ZM262.5,46.8h2.9v1.8h-2.9v8.7h-2v-17.6h2v7.1Z"/>
    <path class="st9" d="M271.6,44.3v-1.2h-4.9v-1.8h6.9v3c0,.6,0,1.1-.1,1.6h2v-6.1h2v16.7h-2v-8.8h-2.2c-.6,3.1-2.4,4.8-6.5,5.4l-.6-1.7c4.7-.5,5.4-2.6,5.4-7.1ZM281.5,57.3h-2v-17.6h2v17.6Z"/>
    <path class="st9" d="M288,42.6h7.6c0,1.4-1.2,2.9-2.7,4.2.8.7,1.9,1,3.5,1.4l-.7,1.9c-1.9-.5-3-1.2-3.9-2.3-1.1.8-2.2,1.6-3.2,2.2l-1-1.5c2.4-1.3,4.1-2.6,5.2-4h-4.8v-1.9ZM294.8,39.8v1.7c-1.2,0-4.5,0-5.9-.4l.7-1.6c1,.3,4,.3,5.2.3ZM291.5,54.8c0-2,1.4-3.6,5.8-3.6s5.8,1.7,5.8,3.6-1.4,3.6-5.8,3.6c-4.5,0-5.8-1.7-5.8-3.6ZM301.1,54.8c0-1.1-.7-1.8-3.8-1.8s-3.8.8-3.8,1.8.7,1.8,3.8,1.8,3.8-.8,3.8-1.8ZM299.1,44.1h2v-4.5h2v10.9h-2v-4.7h-2v3.9h-2v-9.9h2v4.3Z"/>
    <path class="st9" d="M312.2,44.1v-1.4h-6.1v-1.8h8.1v3.2c0,5.7-2.6,8.4-8,9.5l-.6-1.7c4.7-.9,6.6-2.9,6.6-7.8ZM320.3,57.3h-2v-7h-3.5v-1.8h3.5v-2.8h-3.5v-1.8h3.5v-4.3h2v17.7Z"/>
    <path class="st9" d="M327.6,47.9v-7.2h8.3v8.3h-7.2c-.7,0-1.1-.4-1.1-1.1ZM333.9,47.2v-4.6h-4.3v4.6h4.3ZM341.9,50.9v6.9h-2v-5.1h-9.1v-1.8s11.1,0,11.1,0ZM341.9,49.9h-2v-4.3h-3.3v-1.8h3.3v-4.1h2v10.2Z"/>
    <path class="st9" d="M344.3,48.9v-1.6h16.4v1.6h-16.4ZM346.5,42.9c0-1.8,1.4-3.3,6-3.3s6,1.5,6,3.3-1.4,3.2-6,3.2c-4.6,0-6-1.4-6-3.2ZM346.7,56.7v-3.6h9.6v-1.1h-9.6v-1.7h11.6v4.6h-9.6v1.1h10.2v1.7h-11.1c-.7.1-1.1-.3-1.1-1ZM356.5,42.9c0-.8-.7-1.5-4-1.5s-4,.7-4,1.5.7,1.4,4,1.4c3.3,0,4-.7,4-1.4Z"/>
    <path class="st9" d="M375.1,51.5v6h-2v-6h-7.2v-1.8h16.4v1.8h-7.2ZM374.8,39.7l2,.2c-.3,1.1-1,2.4-1.9,3.6,1.8,1.6,3.3,2.3,6.4,3.1l-.8,1.8c-3.2-.9-5.2-1.6-6.8-3.6-1.5,1.4-3.4,2.7-5.6,3.6l-.8-1.6c4.1-1.6,6.5-4.4,7.5-7.1Z"/>
    <path class="st9" d="M388,44.8c0-2.5,1.5-4.4,4.7-4.4s4.7,2,4.7,4.4-1.5,4.5-4.7,4.5-4.7-2-4.7-4.5ZM394,50.6l2.1.2c-.3,1-.8,2.2-1.5,3.3.5.7,1.1,1.3,1.9,1.6,2.2-1.4,3.3-3.3,3.8-5.1l2.2.2c-.3,1-.8,2.1-1.5,3.1,1,1.2,2.4,1.9,3.7,2.4l-1.1,1.8c-1.3-.6-2.6-1.3-3.7-2.8-.9,1-1.9,1.9-3.2,2.6-1.4-.4-2.3-1-3.2-2.4-.8.9-1.7,1.7-2.8,2.3l-1.4-1.4c2.4-1.2,4.2-3.8,4.7-5.8ZM395.4,44.8c0-1.6-.7-2.6-2.7-2.6s-2.7,1-2.7,2.6.7,2.7,2.7,2.7,2.7-1.1,2.7-2.7ZM402.7,49.9h-2v-10.2h2v10.2Z"/>
    <path class="st9" d="M405.1,50.2v-1.8h16.4v1.8h-16.4ZM407.4,56.7v-4.6h2v3.9h10.1v1.8h-11c-.7,0-1.1-.4-1.1-1.1ZM407.6,45.6v-5.5h2v4.8h9.5v1.8h-10.4c-.7,0-1.1-.4-1.1-1.1Z"/>
  </g>
  <g class="st13">
    <path class="st9" d="M122.3,71v-.7h-6.1v-1.8h8.1v2.5c0,3.7-2.6,6.4-8,7.2l-.6-1.7c4.6-.6,6.6-2.5,6.6-5.5ZM119.5,84.7v-5.2h2v4.5h9.7v1.8h-10.6c-.7,0-1.1-.4-1.1-1.1ZM130.6,80.5h-2v-6.1h-3.8v-1.8h3.8v-4.9h2v12.8Z"/>
    <path class="st9" d="M139.9,70.9v-.6h-6.1v-1.8h8.1v2.4c0,3.4-2.6,6.2-8,6.9l-.6-1.7c4.6-.6,6.6-2.5,6.6-5.2ZM135.9,82.4c0-2.1,1.3-4,5.7-4s5.7,1.9,5.7,4-1.3,4-5.7,4-5.7-2-5.7-4ZM145.2,82.4c0-1.4-.7-2.2-3.7-2.2s-3.7.9-3.7,2.2.7,2.2,3.7,2.2,3.7-.9,3.7-2.2ZM147.2,71.8h2.9v1.8h-2.9v4.3h-2v-10.2h2v4.1Z"/>
    <path class="st9" d="M161,73.9h-2.6c.9.6,1.6,1.6,1.6,3,0,2.6-1.3,4.7-4.2,4.7s-4.2-2.2-4.2-4.7.7-2.4,1.6-3h-2.7v-1.8h10.5v1.8ZM159.1,68.6v1.8c-1.5,0-4.8,0-6.5-.5l.6-1.7c1.5.4,4.4.4,5.9.4ZM157.9,76.9c0-1.7-.6-2.9-2.2-2.9s-2.2,1.2-2.2,2.9.6,2.9,2.2,2.9,2.2-1.1,2.2-2.9ZM164.8,74.8h2.9v1.8h-2.9v8.7h-2v-17.6h2v7.1Z"/>
    <path class="st9" d="M168.2,83.2v-1.8h6.2v-6.1h2v6.1h8.2v1.8h-16.4ZM181,78.9l-1.9-.3c.7-2.1,1.2-4.5,1-7.8h-9.7v-1.8h11.7c.3,3.9-.1,7.4-1.1,9.9Z"/>
    <path class="st9" d="M190.5,76.1v-7.4h8.3v8.5h-7.2c-.7,0-1.1-.4-1.1-1.1ZM198.5,78.9l2.2.2c-.3,1-.8,1.9-1.5,2.8,1.7,1.3,2.9,1.9,6,2.5l-.8,1.8c-3.2-.7-4.8-1.4-6.4-3.1-1.4,1.3-3.3,2.3-5.7,3.1l-.8-1.6c4.1-1.4,5.9-3.3,7-5.7ZM196.7,75.4v-4.9h-4.3v4.9h4.3ZM204,71.8h2.9v1.8h-2.9v5.5h-2v-11.4h2v4.1Z"/>
    <path class="st9" d="M207.9,72.8c0-2.5,1.5-4.4,4.7-4.4s4.7,2,4.7,4.4-1.5,4.5-4.7,4.5-4.7-2-4.7-4.5ZM213.9,78.6l2.1.2c-.3,1-.8,2.2-1.5,3.3.5.7,1.1,1.3,1.9,1.6,2.2-1.4,3.3-3.3,3.8-5.1l2.2.2c-.3,1-.8,2.1-1.5,3.1,1,1.2,2.4,1.9,3.7,2.4l-1.1,1.8c-1.3-.6-2.6-1.3-3.7-2.8-.9,1-1.9,1.9-3.2,2.6-1.4-.4-2.3-1-3.2-2.4-.8.9-1.7,1.7-2.8,2.3l-1.4-1.4c2.4-1.2,4.1-3.8,4.7-5.8ZM215.3,72.8c0-1.6-.7-2.6-2.7-2.6s-2.7,1-2.7,2.6.7,2.7,2.7,2.7,2.7-1.1,2.7-2.7ZM222.6,77.9h-2v-10.2h2v10.2Z"/>
    <path class="st9" d="M225,78.2v-1.8h16.4v1.8h-16.4ZM227.3,84.7v-4.6h2v3.9h10.1v1.8h-11c-.7,0-1.1-.4-1.1-1.1ZM227.5,73.6v-5.5h2v4.8h9.5v1.8h-10.4c-.8,0-1.1-.4-1.1-1.1Z"/>
    <path class="st9" d="M252.1,68.1l1.9.2c-.3,1.2-.9,2.6-1.7,4,1.1,2.2,2.6,2.6,5.1,3.2l-.8,1.9c-2.8-.6-4.6-1.6-5.3-3.5-.9,1.1-2,2.3-3.2,3.3l-1.5-1.2c3-2.5,4.9-5.4,5.5-7.9ZM261.8,78.9v6.9h-2v-5.1h-9.1v-1.8h11.1ZM261.8,77.9h-2v-10.2h2v10.2Z"/>
    <path class="st9" d="M273,70.4h-6.2v5.4c2.3,0,4.7,0,7.9-1l.2,1.8c-3.8,1.1-6.4,1.1-9,1-.7,0-1.1-.4-1.1-1.1v-7.9h8.2v1.8ZM267.3,84.7v-5.2h2v4.5h9.7v1.8h-10.6c-.7,0-1.1-.4-1.1-1.1ZM278.4,72.8h2.9v1.8h-2.9v5.9h-2v-12.8h2v5.1Z"/>
    <path class="st9" d="M282.1,74.8c0-3.2,1.4-6,4.7-6s4.7,2.8,4.7,6-1.4,6.1-4.7,6.1c-3.4,0-4.7-2.9-4.7-6.1ZM289.5,74.8c0-2.5-.8-4.2-2.7-4.2s-2.7,1.7-2.7,4.2.8,4.3,2.7,4.3c1.9-.1,2.7-1.8,2.7-4.3ZM297,85.3h-2v-17.6h2v17.6Z"/>
    <path class="st9" d="M306.2,74.6c-.5-1.1-.6-2-.6-3.4h1.9c0,1.2,0,2,.3,3.4.8,0,1.7,0,2.5,0,.3-1.3.3-2.1.3-3.4h1.9c0,1.4-.1,2.2-.5,3.2,1,0,2.1-.2,3.1-.4l.2,1.8c-4.2.8-8.2.8-11.8.8v-1.8h2.7ZM314.1,68.3v1.8h-10.3v-1.8h10.3ZM307.5,84.7v-3.9h9.1v-1.3h-9.1v-1.8h11.1v5h-9.1v1.3h9.7v1.8h-10.6c-.7,0-1.1-.4-1.1-1.1ZM318.6,76.9h-2v-9.3h2v9.3Z"/>
    <path class="st9" d="M321,83.2v-1.8h4.4v-3.3h2v3.3h3.7v-3.3h2v3.3h4.3v1.8h-16.4ZM323.1,73.2c0-2.4,1.3-4.6,6-4.6s6,2.2,6,4.6-1.4,4.5-6,4.5-6-2.2-6-4.5ZM333.2,73.2c0-1.7-.8-2.8-4-2.8s-4,1.1-4,2.8.8,2.7,4,2.7c3.2,0,4-1.1,4-2.7Z"/>
    <path class="st9" d="M347.4,74.1h-2c.8.6,1.3,1.4,1.3,2.7,0,2.4-1.1,4.4-3.7,4.4s-3.7-2.1-3.7-4.4.5-2.1,1.3-2.7h-2.1v-1.8h8.8v1.8h.1ZM345.6,69v1.8c-1.3,0-4,0-5.4-.6l.8-1.7c1,.5,3.3.5,4.6.5ZM344.6,76.8c0-1.6-.5-2.6-1.7-2.6s-1.7,1-1.7,2.6.5,2.6,1.7,2.6,1.7-1,1.7-2.6ZM350.2,74.3h2v-6.7h2v17.7h-2v-9.2h-2v8.4h-2v-16.6h2v6.4Z"/>
    <path class="st9" d="M356.2,83.2v-1.8h4.4v-3.3h2v3.3h3.7v-3.3h2v3.3h4.3v1.8h-16.4ZM358.3,73.2c0-2.4,1.3-4.6,6-4.6s6,2.2,6,4.6-1.4,4.5-6,4.5-6-2.2-6-4.5ZM368.4,73.2c0-1.7-.8-2.8-4-2.8s-4,1.1-4,2.8.8,2.7,4,2.7c3.2,0,4-1.1,4-2.7Z"/>
    <path class="st9" d="M375.5,81.7c0-1,.4-1.4,1.4-1.4s1.4.4,1.4,1.4-.4,1.4-1.4,1.4-1.4-.4-1.4-1.4ZM379.4,68.9l-1.8,9.6h-1.4l.8-9.6h2.4Z"/>
    <path class="st9" d="M388,74h-1c.8-1.1.9-1.7.9-2.5-.9,0-1.1-.5-1.1-1.4s.4-1.4,1.4-1.4,1.4.4,1.4,1.4c0,1.7-.7,3.2-1.6,3.9ZM391.3,74h-1c.8-1.1.9-1.7.9-2.5-.9,0-1.1-.5-1.1-1.4s.4-1.4,1.4-1.4,1.4.4,1.4,1.4c0,1.7-.7,3.2-1.6,3.9Z"/>
  </g>
</svg>