<?xml version="1.0" encoding="utf-8"?>
<!-- Generator: Adobe Illustrator 22.1.0, SVG Export Plug-In . SVG Version: 6.00 Build 0)  -->
<svg version="1.1" id="Layer_1" xmlns="http://www.w3.org/2000/svg" xmlns:xlink="http://www.w3.org/1999/xlink" x="0px" y="0px"
	 viewBox="0 0 630 222" style="enable-background:new 0 0 630 222;" xml:space="preserve">
<style type="text/css">
	.st0{clip-path:url(#SVGID_2_);fill:#FEEBDE;}
	.st1{clip-path:url(#SVGID_4_);}
	.st2{fill:#EECAAF;stroke:#756A64;stroke-width:2.0036;stroke-linejoin:round;stroke-miterlimit:10;}
	.st3{fill:#FDF9F6;stroke:#756A64;stroke-width:2.1311;stroke-linejoin:round;stroke-miterlimit:10;}
	.st4{fill:#887B76;stroke:#756A64;stroke-width:2.2808;stroke-linejoin:round;stroke-miterlimit:10;}
	.st5{fill:#887B76;stroke:#756A64;stroke-width:2.1109;stroke-linejoin:round;stroke-miterlimit:10;}
	.st6{fill:#FDF9F6;stroke:#756A64;stroke-width:2.1311;stroke-miterlimit:10;}
	.st7{fill:#756A64;}
	.st8{fill:#FFFFFF;}
	.st9{fill:none;stroke:#756A64;stroke-width:1.2541;stroke-linecap:round;stroke-miterlimit:10;}
	.st10{fill:#FFFFFF;stroke:#756A64;stroke-width:2.0603;stroke-linejoin:round;stroke-miterlimit:10;}
	.st11{fill:#FFFBF0;}
	.st12{fill:#C2B8A6;}
	.st13{enable-background:new    ;}
	.st14{fill:#55463E;}
</style>
<g>
	<g>
		<defs>
			<circle id="SVGID_1_" cx="550.8" cy="140" r="71.5"/>
		</defs>
		<clipPath id="SVGID_2_">
			<use xlink:href="#SVGID_1_"  style="overflow:visible;"/>
		</clipPath>
		<circle class="st0" cx="550.8" cy="140" r="71.5"/>
	</g>
	<g>
		<defs>
			<circle id="SVGID_3_" cx="550.8" cy="140" r="71.5"/>
		</defs>
		<clipPath id="SVGID_4_">
			<use xlink:href="#SVGID_3_"  style="overflow:visible;"/>
		</clipPath>
		<g class="st1">
			<path class="st2" d="M573,194.5c-4.5-29.7-18.2-29.7-18.2-29.7h-5.7h-5.7c0,0-14.6-0.6-18.2,29.7c0,0-1.6,13.5-0.5,19.4H549h24.3
				C574.6,208,573,194.5,573,194.5z"/>
			<polygon class="st3" points="544.1,165.6 544.1,159.4 554.7,159.4 554.7,165.6 549.4,175.1 			"/>
			<path class="st4" d="M549.4,88.1c0,0,23.1-10,35.6,12.3c0,0,8.1,13.7,4.8,29.7c-3.1,15.2-4.3,17.4-3.9,24.6
				c0.3,7.2,3.6,10,3.6,10s-10.6-1.4-15.4-11.9c-4.8-10.6-13.4-30.1-15.1-39.9S549.4,88.1,549.4,88.1z"/>
			<path class="st5" d="M583.9,121.7c-3-38.3-34.8-34.5-34.8-34.5s-31.7-3.8-34.8,34.5C511.4,159.9,587,159.9,583.9,121.7z"/>
			<path class="st6" d="M576.9,125.4c0,0,5.3-7.9,9.2-3.2c3.9,4.8-1.8,12.6-1.8,12.6s-2.5,4.2-8.1,6.1
				C576.2,140.9,576.7,137.8,576.9,125.4z"/>
			<path class="st6" d="M521.7,125.4c0,0-5.3-7.9-9.2-3.2c-3.9,4.8,1.8,12.6,1.8,12.6s2.5,4.2,8.1,6.1
				C522.5,140.9,521.9,137.8,521.7,125.4z"/>
			<path class="st3" d="M576.4,125.8c-10.6,9-19,0-19,0c-8.9,8.7-17.4,0-17.4,0c-9.6,7.4-18,0-18,0s-5.3,35.7,27.2,35.7
				S576.4,125.8,576.4,125.8z"/>
			<g>
				<path class="st7" d="M541.8,137.4c0,2.2-1.6,3.9-3.5,3.9s-3.5-1.8-3.5-3.9s1.6-3.9,3.5-3.9C540.2,133.4,541.8,135.2,541.8,137.4
					"/>
				<path class="st8" d="M539.5,136.2c0,0.5-0.5,1-1.2,1s-1.2-0.4-1.2-1c0-0.5,0.5-1,1.2-1S539.5,135.6,539.5,136.2"/>
				<path class="st8" d="M539.2,139c0,0.4-0.4,0.8-0.9,0.8s-0.9-0.3-0.9-0.8c0-0.4,0.4-0.8,0.9-0.8
					C538.8,138.3,539.2,138.6,539.2,139"/>
			</g>
			<g>
				<path class="st7" d="M564.2,137.4c0,2.2-1.6,3.9-3.5,3.9c-2,0-3.5-1.8-3.5-3.9s1.6-3.9,3.5-3.9
					C562.7,133.4,564.2,135.2,564.2,137.4"/>
				<path class="st8" d="M561.9,136.2c0,0.5-0.5,1-1.2,1s-1.2-0.4-1.2-1c0-0.5,0.5-1,1.2-1S561.9,135.6,561.9,136.2"/>
				<path class="st8" d="M561.6,139c0,0.4-0.4,0.8-0.9,0.8s-0.9-0.3-0.9-0.8c0-0.4,0.4-0.8,0.9-0.8
					C561.2,138.3,561.6,138.6,561.6,139"/>
			</g>
			<path class="st9" d="M541.4,122.1c-1.2-1.6-4.2-2.7-7.5-2.7c-3.4,0-6.2,1.1-7.5,2.7"/>
			<path class="st9" d="M571.7,122.1c-1.2-1.6-4.2-2.7-7.5-2.7c-3.4,0-6.2,1.1-7.5,2.7"/>
			<path class="st10" d="M542.9,165.1c0,0,0.8,11.2,6.2,17.9c0,0,4.9-4.8,6.6-17.9C555.8,165.1,549.7,170.9,542.9,165.1z"/>
		</g>
	</g>
</g>
<g>
	<path class="st11" d="M502,123.1c0.4,0,0.8-0.3,1.1-0.7c0.2-0.3,0.3-0.7-0.1-1.2l-15-24.1c-0.6-1-0.6-2.2-0.1-3.2
		c2.2-4.2,3.3-8.7,3.3-13.4V42.6c0-17.2-14-31.3-31.3-31.3H43.5c-17.2,0-31.3,14-31.3,31.3v35.7c0,17.2,14,31.3,31.3,31.3h418.6
		c4,0,7.8-0.8,11.4-2.3c0.4-0.2,0.9-0.3,1.3-0.3c0.6,0,1.2,0.2,1.7,0.5l24.8,15.5C501.6,123,501.8,123.1,502,123.1L502,123.1z"/>
	<path class="st12" d="M43.5,12.4c-16.7,0-30.3,13.6-30.3,30.3v35.7c0,16.7,13.6,30.3,30.3,30.3h418.6c3.8,0,7.5-0.8,11-2.3
		c0.5-0.2,1.1-0.4,1.7-0.4c0.8,0,1.6,0.2,2.2,0.6l24.8,15.5h0.1c0,0,0.1-0.1,0.2-0.1c0,0,0-0.1,0-0.2l-15-24.1
		c-0.8-1.3-0.8-2.9-0.1-4.2c2.1-4,3.2-8.4,3.2-12.9v-38c0-16.7-13.6-30.3-30.3-30.3L43.5,12.4 M43.5,10.4h416.4
		c17.8,0,32.3,14.4,32.3,32.3v37.9c0,5-1.2,9.7-3.4,13.9c-0.4,0.7-0.4,1.5,0.1,2.2l15,24.1c1,1.6-0.3,3.4-1.9,3.4
		c-0.4,0-0.8-0.1-1.2-0.4L476,108.3c-0.4-0.2-0.8-0.3-1.2-0.3c-0.3,0-0.6,0.1-0.9,0.2c-3.6,1.6-7.6,2.4-11.8,2.4H43.5
		c-17.8,0-32.3-14.4-32.3-32.3V42.6C11.2,24.8,25.7,10.4,43.5,10.4L43.5,10.4L43.5,10.4z"/>
</g>
<g class="st13">
	<path class="st14" d="M89.3,40.6h1c-0.8,1.1-0.9,1.7-0.9,2.5c0.9,0,1.1,0.5,1.1,1.4c0,1-0.4,1.4-1.4,1.4c-1,0-1.4-0.4-1.4-1.4
		C87.7,42.8,88.4,41.4,89.3,40.6z M92.6,40.6h1c-0.8,1.1-0.9,1.7-0.9,2.5c0.9,0,1.1,0.5,1.1,1.4c0,1-0.4,1.4-1.4,1.4
		c-1,0-1.4-0.4-1.4-1.4C91,42.8,91.7,41.4,92.6,40.6z"/>
	<path class="st14" d="M108.3,42.8h-6.2V51c2.3,0.1,4.9,0,7.9-0.8l0.2,1.8c-3.7,1-6.4,1-9,0.8c-0.7,0-1.1-0.4-1.1-1.1V41h8.2V42.8z
		 M113.7,46.8h2.9v1.8h-2.9v8.7h-2V39.7h2V46.8z"/>
	<path class="st14" d="M117.4,46.8c0-3.2,1.4-6,4.7-6s4.7,2.8,4.7,6c0,3.2-1.4,6.1-4.7,6.1C118.8,52.8,117.4,50,117.4,46.8z
		 M124.8,46.8c0-2.5-0.8-4.2-2.7-4.2c-1.9,0-2.7,1.7-2.7,4.2c0,2.5,0.8,4.3,2.7,4.3C124,51,124.8,49.3,124.8,46.8z M132.3,57.3h-2
		V39.7h2V57.3z"/>
	<path class="st14" d="M135,46.8c0-3.2,1.4-6,4.7-6s4.7,2.8,4.7,6c0,3.2-1.4,6.1-4.7,6.1C136.4,52.8,135,50,135,46.8z M142.4,46.8
		c0-2.5-0.8-4.2-2.7-4.2c-1.9,0-2.7,1.7-2.7,4.2c0,2.5,0.8,4.3,2.7,4.3C141.6,51,142.4,49.3,142.4,46.8z M149.9,57.3h-2v-9.7h-3
		v-1.8h3v-6.1h2V57.3z"/>
	<path class="st14" d="M152.3,55.2v-1.8h16.4v1.8H152.3z M154.7,49.5v-8.6h11.5v1.7h-9.5v2.3h9.3v1.7h-9.3v2.3h9.9v1.7h-10.8
		C155.1,50.6,154.7,50.2,154.7,49.5z"/>
	<path class="st14" d="M180.3,44.5h-1.8c0.5,0.3,0.8,0.8,0.8,1.4c0,1.7-1.3,3.2-4.2,3.2c-2.9,0-4.2-1.5-4.2-3.2
		c0-0.6,0.3-1.1,0.8-1.4h-1.8v-1.8h10.5V44.5z M178.5,40v1.8c-1.5,0-4.8,0-6.5-0.5l0.6-1.7C174,40,176.9,40,178.5,40z M177.3,45.9
		c0-0.8-0.5-1.4-2.2-1.4c-1.6,0-2.2,0.6-2.2,1.4c0,0.8,0.5,1.4,2.2,1.4C176.7,47.3,177.3,46.7,177.3,45.9z M173,56.7v-3.6h9.1V52
		H173v-1.7h11.1v4.6H175v1.1h9.7v1.7h-10.6C173.4,57.8,173,57.4,173,56.7z M184.1,43.6h2.9v1.8h-2.9v4.1h-2v-9.9h2V43.6z"/>
	<path class="st14" d="M195.5,43.2h-1.9v7.3c0.6-0.1,1.8-0.1,2.6-0.5v-8.6h4.2v1.8h-2.2v7.3c0.9-0.1,2.1-0.2,2.8-0.3l0.2,1.8
		c-1,0.2-2.6,0.4-3.9,0.4c-0.5,0-0.9-0.2-1-0.7c-1,0.4-2.4,0.6-3.5,0.6c-0.7,0-1.1-0.4-1.1-1.1v-9.8h3.9V43.2z M203.6,46.3h1.7v-6.7
		h1.9v17.7h-1.9v-9.2h-1.7v8.4h-1.9V39.9h1.9V46.3z"/>
	<path class="st14" d="M220,43v-0.7H214v-1.8h8.1V43c0,3.7-2.6,6.4-8,7.2l-0.6-1.7C218.1,47.9,220,46,220,43z M216.2,56.7v-5.2h2V56
		h9.7v1.8h-10.6C216.6,57.8,216.2,57.4,216.2,56.7z M227.3,44.8h2.9v1.8h-2.9v5.9h-2V39.7h2V44.8z"/>
	<path class="st14" d="M239.5,42.4h-6.2v5.4c2.3,0.1,4.7,0,7.9-1l0.2,1.8c-3.8,1.1-6.4,1.1-9,1c-0.7,0-1.1-0.4-1.1-1.1v-7.9h8.2
		V42.4z M233.8,56.7v-5.2h2V56h9.7v1.8h-10.6C234.2,57.8,233.8,57.4,233.8,56.7z M244.9,44.8h2.9v1.8h-2.9v5.9h-2V39.7h2V44.8z"/>
	<path class="st14" d="M258.7,45.9h-2.6c0.9,0.6,1.6,1.6,1.6,3c0,2.6-1.3,4.7-4.2,4.7c-2.9,0-4.2-2.2-4.2-4.7c0-1.4,0.7-2.4,1.6-3
		h-2.7v-1.8h10.5V45.9z M256.9,40.6v1.8c-1.5,0-4.8,0-6.5-0.5l0.6-1.7C252.4,40.6,255.3,40.6,256.9,40.6z M255.7,48.9
		c0-1.7-0.6-2.9-2.2-2.9c-1.6,0-2.2,1.2-2.2,2.9c0,1.8,0.6,2.9,2.2,2.9C255.1,51.8,255.7,50.7,255.7,48.9z M262.5,46.8h2.9v1.8h-2.9
		v8.7h-2V39.7h2V46.8z"/>
	<path class="st14" d="M271.6,44.3v-1.2h-4.9v-1.8h6.9v3c0,0.6,0,1.1-0.1,1.6h2v-6.1h2v16.7h-2v-8.8h-2.2c-0.6,3.1-2.4,4.8-6.5,5.4
		l-0.6-1.7C270.9,50.9,271.6,48.8,271.6,44.3z M281.5,57.3h-2V39.7h2V57.3z"/>
	<path class="st14" d="M288,42.6h7.6c0,1.4-1.2,2.9-2.7,4.2c0.8,0.7,1.9,1,3.5,1.4l-0.7,1.9c-1.9-0.5-3-1.2-3.9-2.3
		c-1.1,0.8-2.2,1.6-3.2,2.2l-1-1.5c2.4-1.3,4.1-2.6,5.2-4H288V42.6z M294.8,39.8v1.7c-1.2,0-4.5,0-5.9-0.4l0.7-1.6
		C290.6,39.8,293.6,39.8,294.8,39.8z M291.5,54.8c0-2,1.4-3.6,5.8-3.6c4.4,0,5.8,1.7,5.8,3.6c0,1.9-1.4,3.6-5.8,3.6
		C292.8,58.4,291.5,56.7,291.5,54.8z M301.1,54.8c0-1.1-0.7-1.8-3.8-1.8c-3.1,0-3.8,0.8-3.8,1.8c0,1.1,0.7,1.8,3.8,1.8
		C300.4,56.6,301.1,55.8,301.1,54.8z M299.1,44.1h2v-4.5h2v10.9h-2v-4.7h-2v3.9h-2v-9.9h2V44.1z"/>
	<path class="st14" d="M312.2,44.1v-1.4h-6.1v-1.8h8.1v3.2c0,5.7-2.6,8.4-8,9.5l-0.6-1.7C310.3,51,312.2,49,312.2,44.1z M320.3,57.3
		h-2v-7h-3.5v-1.8h3.5v-2.8h-3.5v-1.8h3.5v-4.3h2V57.3z"/>
	<path class="st14" d="M327.6,47.9v-7.2h8.3V49h-7.2C328,49,327.6,48.6,327.6,47.9z M333.9,47.2v-4.6h-4.3v4.6H333.9z M341.9,50.9
		v6.9h-2v-5.1h-9.1v-1.8H341.9z M341.9,49.9h-2v-4.3h-3.3v-1.8h3.3v-4.1h2V49.9z"/>
	<path class="st14" d="M344.3,48.9v-1.6h16.4v1.6H344.3z M346.5,42.9c0-1.8,1.4-3.3,6-3.3c4.6,0,6,1.5,6,3.3c0,1.8-1.4,3.2-6,3.2
		C347.9,46.1,346.5,44.7,346.5,42.9z M346.7,56.7v-3.6h9.6V52h-9.6v-1.7h11.6v4.6h-9.6v1.1h10.2v1.7h-11.1
		C347.1,57.8,346.7,57.4,346.7,56.7z M356.5,42.9c0-0.8-0.7-1.5-4-1.5c-3.3,0-4,0.7-4,1.5c0,0.7,0.7,1.4,4,1.4
		C355.8,44.3,356.5,43.6,356.5,42.9z"/>
	<path class="st14" d="M375.1,51.5v6h-2v-6h-7.2v-1.8h16.4v1.8H375.1z M374.8,39.7l2,0.2c-0.3,1.1-1,2.4-1.9,3.6
		c1.8,1.6,3.3,2.3,6.4,3.1l-0.8,1.8c-3.2-0.9-5.2-1.6-6.8-3.6c-1.5,1.4-3.4,2.7-5.6,3.6l-0.8-1.6C371.4,45.2,373.8,42.4,374.8,39.7z
		"/>
	<path class="st14" d="M388,44.8c0-2.5,1.5-4.4,4.7-4.4c3.2,0,4.7,2,4.7,4.4s-1.5,4.5-4.7,4.5C389.5,49.3,388,47.3,388,44.8z
		 M394,50.6l2.1,0.2c-0.3,1-0.8,2.2-1.5,3.3c0.5,0.7,1.1,1.3,1.9,1.6c2.2-1.4,3.3-3.3,3.8-5.1l2.2,0.2c-0.3,1-0.8,2.1-1.5,3.1
		c1,1.2,2.4,1.9,3.7,2.4l-1.1,1.8c-1.3-0.6-2.6-1.3-3.7-2.8c-0.9,1-1.9,1.9-3.2,2.6c-1.4-0.4-2.3-1-3.2-2.4
		c-0.8,0.9-1.7,1.7-2.8,2.3l-1.4-1.4C391.7,55.2,393.5,52.6,394,50.6z M395.4,44.8c0-1.6-0.7-2.6-2.7-2.6c-2,0-2.7,1-2.7,2.6
		c0,1.6,0.7,2.7,2.7,2.7S395.4,46.4,395.4,44.8z M402.7,49.9h-2V39.7h2V49.9z"/>
	<path class="st14" d="M405.1,50.2v-1.8h16.4v1.8H405.1z M407.4,56.7v-4.6h2V56h10.1v1.8h-11C407.8,57.8,407.4,57.4,407.4,56.7z
		 M407.6,45.6v-5.5h2v4.8h9.5v1.8h-10.4C408,46.7,407.6,46.3,407.6,45.6z"/>
</g>
<g class="st13">
	<path class="st14" d="M122.3,71v-0.7h-6.1v-1.8h8.1V71c0,3.7-2.6,6.4-8,7.2l-0.6-1.7C120.3,75.9,122.3,74,122.3,71z M119.5,84.7
		v-5.2h2V84h9.7v1.8h-10.6C119.9,85.8,119.5,85.4,119.5,84.7z M130.6,80.5h-2v-6.1h-3.8v-1.8h3.8v-4.9h2V80.5z"/>
	<path class="st14" d="M139.9,70.9v-0.6h-6.1v-1.8h8.1v2.4c0,3.4-2.6,6.2-8,6.9l-0.6-1.7C137.9,75.5,139.9,73.6,139.9,70.9z
		 M135.9,82.4c0-2.1,1.3-4,5.7-4c4.4,0,5.7,1.9,5.7,4c0,2.1-1.3,4-5.7,4C137.1,86.4,135.9,84.4,135.9,82.4z M145.2,82.4
		c0-1.4-0.7-2.2-3.7-2.2c-3,0-3.7,0.9-3.7,2.2c0,1.3,0.7,2.2,3.7,2.2C144.5,84.6,145.2,83.7,145.2,82.4z M147.2,71.8h2.9v1.8h-2.9
		v4.3h-2V67.7h2V71.8z"/>
	<path class="st14" d="M161,73.9h-2.6c0.9,0.6,1.6,1.6,1.6,3c0,2.6-1.3,4.7-4.2,4.7c-2.9,0-4.2-2.2-4.2-4.7c0-1.4,0.7-2.4,1.6-3
		h-2.7v-1.8H161V73.9z M159.1,68.6v1.8c-1.5,0-4.8,0-6.5-0.5l0.6-1.7C154.7,68.6,157.6,68.6,159.1,68.6z M157.9,76.9
		c0-1.7-0.6-2.9-2.2-2.9c-1.6,0-2.2,1.2-2.2,2.9c0,1.8,0.6,2.9,2.2,2.9C157.3,79.8,157.9,78.7,157.9,76.9z M164.8,74.8h2.9v1.8h-2.9
		v8.7h-2V67.7h2V74.8z"/>
	<path class="st14" d="M168.2,83.2v-1.8h6.2v-6.1h2v6.1h8.2v1.8H168.2z M181,78.9l-1.9-0.3c0.7-2.1,1.2-4.5,1-7.8h-9.7V69h11.7
		C182.4,72.9,182,76.4,181,78.9z"/>
	<path class="st14" d="M190.5,76.1v-7.4h8.3v8.5h-7.2C190.9,77.2,190.5,76.8,190.5,76.1z M198.5,78.9l2.2,0.2
		c-0.3,1-0.8,1.9-1.5,2.8c1.7,1.3,2.9,1.9,6,2.5l-0.8,1.8c-3.2-0.7-4.8-1.4-6.4-3.1c-1.4,1.3-3.3,2.3-5.7,3.1l-0.8-1.6
		C195.6,83.2,197.4,81.3,198.5,78.9z M196.7,75.4v-4.9h-4.3v4.9H196.7z M204,71.8h2.9v1.8H204v5.5h-2V67.7h2V71.8z"/>
	<path class="st14" d="M207.9,72.8c0-2.5,1.5-4.4,4.7-4.4c3.2,0,4.7,2,4.7,4.4s-1.5,4.5-4.7,4.5C209.4,77.3,207.9,75.3,207.9,72.8z
		 M213.9,78.6l2.1,0.2c-0.3,1-0.8,2.2-1.5,3.3c0.5,0.7,1.1,1.3,1.9,1.6c2.2-1.4,3.3-3.3,3.8-5.1l2.2,0.2c-0.3,1-0.8,2.1-1.5,3.1
		c1,1.2,2.4,1.9,3.7,2.4l-1.1,1.8c-1.3-0.6-2.6-1.3-3.7-2.8c-0.9,1-1.9,1.9-3.2,2.6c-1.4-0.4-2.3-1-3.2-2.4
		c-0.8,0.9-1.7,1.7-2.8,2.3l-1.4-1.4C211.6,83.2,213.3,80.6,213.9,78.6z M215.3,72.8c0-1.6-0.7-2.6-2.7-2.6c-2,0-2.7,1-2.7,2.6
		c0,1.6,0.7,2.7,2.7,2.7S215.3,74.4,215.3,72.8z M222.6,77.9h-2V67.7h2V77.9z"/>
	<path class="st14" d="M225,78.2v-1.8h16.4v1.8H225z M227.3,84.7v-4.6h2V84h10.1v1.8h-11C227.7,85.8,227.3,85.4,227.3,84.7z
		 M227.5,73.6v-5.5h2v4.8h9.5v1.8h-10.4C227.8,74.7,227.5,74.3,227.5,73.6z"/>
	<path class="st14" d="M252.1,68.1l1.9,0.2c-0.3,1.2-0.9,2.6-1.7,4c1.1,2.2,2.6,2.6,5.1,3.2l-0.8,1.9c-2.8-0.6-4.6-1.6-5.3-3.5
		c-0.9,1.1-2,2.3-3.2,3.3l-1.5-1.2C249.6,73.5,251.5,70.6,252.1,68.1z M261.8,78.9v6.9h-2v-5.1h-9.1v-1.8H261.8z M261.8,77.9h-2
		V67.7h2V77.9z"/>
	<path class="st14" d="M273,70.4h-6.2v5.4c2.3,0.1,4.7,0,7.9-1l0.2,1.8c-3.8,1.1-6.4,1.1-9,1c-0.7,0-1.1-0.4-1.1-1.1v-7.9h8.2V70.4z
		 M267.3,84.7v-5.2h2V84h9.7v1.8h-10.6C267.7,85.8,267.3,85.4,267.3,84.7z M278.4,72.8h2.9v1.8h-2.9v5.9h-2V67.7h2V72.8z"/>
	<path class="st14" d="M282.1,74.8c0-3.2,1.4-6,4.7-6s4.7,2.8,4.7,6c0,3.2-1.4,6.1-4.7,6.1C283.4,80.8,282.1,78,282.1,74.8z
		 M289.5,74.8c0-2.5-0.8-4.2-2.7-4.2c-1.9,0-2.7,1.7-2.7,4.2c0,2.5,0.8,4.3,2.7,4.3C288.7,79,289.5,77.3,289.5,74.8z M297,85.3h-2
		V67.7h2V85.3z"/>
	<path class="st14" d="M306.2,74.6c-0.5-1.1-0.6-2-0.6-3.4l1.9-0.1c0,1.3,0,2.1,0.3,3.5c0.8,0,1.7-0.1,2.5-0.1
		c0.3-1.3,0.3-2.1,0.3-3.4l1.9,0.1c0,1.3-0.1,2.1-0.5,3.1c1-0.1,2.1-0.2,3.1-0.4l0.2,1.8c-4.2,0.8-8.2,0.8-11.8,0.8v-1.8L306.2,74.6
		z M314.1,68.3v1.8h-10.3v-1.8H314.1z M307.5,84.7v-3.9h9.1v-1.3h-9.1v-1.8h11.1v5h-9.1V84h9.7v1.8h-10.6
		C307.9,85.8,307.5,85.4,307.5,84.7z M318.6,76.9h-2v-9.3h2V76.9z"/>
	<path class="st14" d="M321,83.2v-1.8h4.4v-3.3h2v3.3h3.7v-3.3h2v3.3h4.3v1.8H321z M323.1,73.2c0-2.4,1.3-4.6,6-4.6
		c4.7,0,6,2.2,6,4.6c0,2.3-1.4,4.5-6,4.5C324.5,77.7,323.1,75.5,323.1,73.2z M333.2,73.2c0-1.7-0.8-2.8-4-2.8c-3.3,0-4,1.1-4,2.8
		c0,1.6,0.8,2.7,4,2.7C332.4,75.9,333.2,74.8,333.2,73.2z"/>
	<path class="st14" d="M347.4,74.1h-2c0.8,0.6,1.3,1.4,1.3,2.7c0,2.4-1.1,4.4-3.7,4.4s-3.7-2.1-3.7-4.4c0-1.2,0.5-2.1,1.3-2.7h-2.1
		v-1.8h8.8V74.1z M345.6,69v1.8c-1.3,0-4,0-5.4-0.6l0.8-1.7C342,69,344.3,69,345.6,69z M344.6,76.8c0-1.6-0.5-2.6-1.7-2.6
		s-1.7,1-1.7,2.6c0,1.6,0.5,2.6,1.7,2.6S344.6,78.4,344.6,76.8z M350.2,74.3h2v-6.7h2v17.7h-2v-9.2h-2v8.4h-2V67.9h2V74.3z"/>
	<path class="st14" d="M356.2,83.2v-1.8h4.4v-3.3h2v3.3h3.7v-3.3h2v3.3h4.3v1.8H356.2z M358.3,73.2c0-2.4,1.3-4.6,6-4.6
		c4.7,0,6,2.2,6,4.6c0,2.3-1.4,4.5-6,4.5C359.7,77.7,358.3,75.5,358.3,73.2z M368.4,73.2c0-1.7-0.8-2.8-4-2.8c-3.3,0-4,1.1-4,2.8
		c0,1.6,0.8,2.7,4,2.7C367.6,75.9,368.4,74.8,368.4,73.2z"/>
	<path class="st14" d="M375.5,81.7c0-1,0.4-1.4,1.4-1.4s1.4,0.4,1.4,1.4s-0.4,1.4-1.4,1.4S375.5,82.7,375.5,81.7z M379.4,68.9
		l-1.8,9.6h-1.4l0.8-9.6H379.4z"/>
	<path class="st14" d="M388,74h-1c0.8-1.1,0.9-1.7,0.9-2.5c-0.9,0-1.1-0.5-1.1-1.4c0-1,0.4-1.4,1.4-1.4c1,0,1.4,0.4,1.4,1.4
		C389.6,71.8,388.9,73.3,388,74z M391.3,74h-1c0.8-1.1,0.9-1.7,0.9-2.5c-0.9,0-1.1-0.5-1.1-1.4c0-1,0.4-1.4,1.4-1.4s1.4,0.4,1.4,1.4
		C392.9,71.8,392.2,73.3,391.3,74z"/>
</g>
</svg>
