<?xml version="1.0" encoding="utf-8"?>
<!-- Generator: Adobe Illustrator 22.1.0, SVG Export Plug-In . SVG Version: 6.00 Build 0)  -->
<svg version="1.1" id="Layer_1" xmlns="http://www.w3.org/2000/svg" xmlns:xlink="http://www.w3.org/1999/xlink" x="0px" y="0px"
	 viewBox="0 0 630 222" style="enable-background:new 0 0 630 222;" xml:space="preserve">
<style type="text/css">
	.st0{clip-path:url(#SVGID_2_);fill:#E6F4E6;}
	.st1{clip-path:url(#SVGID_2_);}
	.st2{fill:#867A76;stroke:#746963;stroke-width:2.01;stroke-linejoin:round;}
	.st3{fill:#C5DDC5;stroke:#746963;stroke-width:1.91;stroke-linejoin:round;}
	.st4{fill:#FDF8F5;stroke:#746963;stroke-width:1.99;stroke-linejoin:round;}
	.st5{fill:#FDF8F5;stroke:#746963;stroke-width:2.05;stroke-miterlimit:10;}
	.st6{fill:#FDF8F5;stroke:#746963;stroke-width:2.05;stroke-linejoin:round;}
	.st7{fill:#746963;}
	.st8{fill:#FFFFFF;}
	.st9{fill:none;stroke:#746963;stroke-width:1.21;stroke-linecap:round;stroke-miterlimit:10;}
	.st10{fill:#FFFBF0;}
	.st11{fill:#C2B8A6;}
	.st12{enable-background:new    ;}
	.st13{fill:#55463E;}
</style>
<g>
	<defs>
		<circle id="SVGID_1_" cx="77.5" cy="141" r="71.5"/>
	</defs>
	<clipPath id="SVGID_2_">
		<use xlink:href="#SVGID_1_"  style="overflow:visible;"/>
	</clipPath>
	<circle class="st0" cx="77.5" cy="141" r="71.5"/>
	<g class="st1">
		<path class="st2" d="M111,126.4C108,90.2,77.5,93.9,77.5,93.9h-0.2l-0.1,0c0,0-30.5-3.7-33.5,32.5c0,0-6.6,44.9,33.6,47
			C117.6,171.3,111,126.4,111,126.4L111,126.4L111,126.4z"/>
		<path class="st3" d="M100.5,196.4c-3.7-28-17.5-28-17.5-28h-11c0,0-13.8,0-17.5,27.9c0,0-1.5,12.7-0.5,18.3H101
			C102,209.1,100.5,196.4,100.5,196.4z"/>
		<path class="st4" d="M83.7,168.1v-5.4H71.4v5.4C71.4,168.1,76.3,171.9,83.7,168.1z"/>
		<path class="st5" d="M104,130.3c0,0,5.1-7.7,8.9-3.1c3.8,4.6-1.7,12.1-1.7,12.1s-2.4,4-7.8,5.9C103.4,145.2,103.8,142.2,104,130.3
			L104,130.3L104,130.3z"/>
		<path class="st5" d="M50.9,130.3c0,0-5.1-7.7-8.9-3.1c-3.8,4.6,1.7,12.1,1.7,12.1s2.4,4,7.8,5.9C51.6,145.2,51.1,142.2,50.9,130.3
			L50.9,130.3L50.9,130.3z"/>
		<path class="st6" d="M103.6,130.8c-10.2,8.7-18.3,0-18.3,0c-8.7,8.4-16.8,0-16.8,0c-9.1,7.1-17.3,0-17.3,0s-5.1,34.4,26.2,34.4
			S103.6,130.8,103.6,130.8z"/>
		<g>
			<path class="st7" d="M70.2,141.9c0,2.1-1.5,3.8-3.4,3.8c-1.9,0-3.4-1.7-3.4-3.8s1.5-3.8,3.4-3.8
				C68.7,138.1,70.2,139.8,70.2,141.9"/>
			<path class="st8" d="M68.1,140.8c0,0.5-0.5,1-1.2,1s-1.2-0.4-1.2-1c0-0.5,0.5-1,1.2-1S68.1,140.2,68.1,140.8"/>
			<path class="st8" d="M67.8,143.5c0,0.4-0.4,0.8-0.9,0.8c-0.5,0-0.9-0.3-0.9-0.8s0.4-0.8,0.9-0.8
				C67.4,142.8,67.8,143.1,67.8,143.5"/>
		</g>
		<g>
			<path class="st7" d="M91.8,141.9c0,2.1-1.5,3.8-3.4,3.8c-1.9,0-3.4-1.7-3.4-3.8s1.5-3.8,3.4-3.8
				C90.3,138.1,91.8,139.8,91.8,141.9"/>
			<path class="st8" d="M89.7,140.8c0,0.5-0.5,1-1.2,1s-1.2-0.4-1.2-1c0-0.5,0.5-1,1.2-1S89.7,140.2,89.7,140.8"/>
			<path class="st8" d="M89.4,143.5c0,0.4-0.4,0.8-0.9,0.8s-0.9-0.3-0.9-0.8s0.4-0.8,0.9-0.8S89.4,143.1,89.4,143.5"/>
		</g>
		<path class="st9" d="M69.8,127.2c-1.2-1.5-4-2.6-7.2-2.6c-3.3,0-6,1.1-7.2,2.6"/>
		<path class="st9" d="M99.1,127.2c-1.2-1.5-4-2.6-7.2-2.6s-6,1.1-7.2,2.6"/>
	</g>
</g>
<g>
	<path class="st10" d="M133.1,123.1c-0.4,0-0.8-0.3-1.1-0.7c-0.2-0.3-0.3-0.7,0.1-1.2l15-24.1c0.6-1,0.6-2.2,0.1-3.2
		c-2.2-4.2-3.3-8.7-3.3-13.4V42.6c0-17.2,14-31.3,31.3-31.3h416.4c17.2,0,31.3,14,31.3,31.3v35.7c0,17.2-14,31.3-31.3,31.3H173
		c-4,0-7.8-0.8-11.4-2.3c-0.4-0.2-0.9-0.3-1.3-0.3c-0.6,0-1.2,0.2-1.7,0.5L133.8,123C133.5,123,133.3,123.1,133.1,123.1L133.1,123.1
		z"/>
	<path class="st11" d="M591.6,12.4c16.7,0,30.3,13.6,30.3,30.3v35.7c0,16.7-13.6,30.3-30.3,30.3H173c-3.8,0-7.5-0.8-11-2.3
		c-0.5-0.2-1.1-0.4-1.7-0.4c-0.8,0-1.6,0.2-2.2,0.6l-24.8,15.5h-0.1c0,0-0.1-0.1-0.2-0.1c0,0,0-0.1,0-0.2l15-24.1
		c0.8-1.3,0.8-2.9,0.1-4.2c-2.1-4-3.2-8.4-3.2-12.9v-38c0-16.7,13.6-30.3,30.3-30.3L591.6,12.4 M591.6,10.4H175.2
		c-17.8,0-32.3,14.4-32.3,32.3v37.9c0,5,1.2,9.7,3.4,13.9c0.4,0.7,0.4,1.5-0.1,2.2l-15,24.1c-1,1.6,0.3,3.4,1.9,3.4
		c0.4,0,0.8-0.1,1.2-0.4l24.8-15.5c0.4-0.2,0.8-0.3,1.2-0.3c0.3,0,0.6,0.1,0.9,0.2c3.6,1.6,7.6,2.4,11.8,2.4h418.6
		c17.8,0,32.3-14.4,32.3-32.3V42.6C623.9,24.8,609.4,10.4,591.6,10.4L591.6,10.4L591.6,10.4z"/>
</g>
<g class="st12">
	<path class="st13" d="M214.5,40.6h1c-0.8,1.1-0.9,1.7-0.9,2.5c0.9,0,1.1,0.5,1.1,1.4c0,1-0.4,1.4-1.4,1.4c-1,0-1.4-0.4-1.4-1.4
		C212.9,42.8,213.6,41.4,214.5,40.6z M217.8,40.6h1c-0.8,1.1-0.9,1.7-0.9,2.5c0.9,0,1.1,0.5,1.1,1.4c0,1-0.4,1.4-1.4,1.4
		c-1,0-1.4-0.4-1.4-1.4C216.2,42.8,216.9,41.4,217.8,40.6z"/>
	<path class="st13" d="M229.9,48.9h-4c-0.7,0-1.1-0.4-1.1-1.1v-7.3h1.7v2.2h1.8v-2.2h1.7V48.9z M228.2,47.1v-2.6h-1.8v2.6H228.2z
		 M228.2,54.4c0-2.1,1.3-4,5.7-4c4.4,0,5.7,1.9,5.7,4c0,2.1-1.3,4-5.7,4C229.5,58.4,228.2,56.4,228.2,54.4z M237.5,54.4
		c0-1.4-0.7-2.2-3.7-2.2c-3,0-3.7,0.9-3.7,2.2c0,1.3,0.7,2.2,3.7,2.2C236.8,56.6,237.5,55.7,237.5,54.4z M236.1,48.9H231v-8.4h1.7
		v2.2h1.8v-2.2h1.7V48.9z M234.4,47.1v-2.6h-1.8v2.6H234.4z M239.5,43.8h2.3v1.8h-2.3v4.3h-2V39.7h2V43.8z"/>
	<path class="st13" d="M242.3,48.9v-1.6h16.4v1.6H242.3z M244.5,42.9c0-1.8,1.4-3.3,6-3.3c4.6,0,6,1.5,6,3.3c0,1.8-1.4,3.2-6,3.2
		C245.9,46.1,244.5,44.7,244.5,42.9z M244.7,56.7v-3.6h9.6V52h-9.6v-1.7h11.6v4.6h-9.6v1.1h10.2v1.7h-11.1
		C245.1,57.8,244.7,57.4,244.7,56.7z M254.5,42.9c0-0.8-0.7-1.5-4-1.5c-3.3,0-4,0.7-4,1.5c0,0.7,0.7,1.4,4,1.4
		C253.8,44.3,254.5,43.6,254.5,42.9z"/>
	<path class="st13" d="M263.9,49.2v-1.8h7.2v-1.6h2v1.6h7.2v1.8H263.9z M266.2,40.2h12.2c-0.4,1.4-2.1,2.6-4.3,3.6
		c1.2,0.5,2.7,0.6,4.8,0.7l-0.2,1.8c-2.6-0.2-5.1-0.7-6.9-1.6c-1.8,0.6-3.9,1.2-5.9,1.6l-0.5-1.7c3.2-0.6,6.4-1.5,8.4-2.5h-7.6V40.2
		z M267.8,55.6c0-0.5,0.3-0.9,0.7-1.1h-3v-1.6h13.2v1.6h-2.9c0.4,0.3,0.7,0.6,0.7,1.1c0,1.4-1.3,2.7-4.3,2.7S267.8,57.1,267.8,55.6z
		 M275.7,50.5v1.6c-1.8,0-5.6-0.1-7.5-0.6l0.6-1.6C270.4,50.5,273.9,50.5,275.7,50.5z M274.5,55.6c0-0.6-0.6-1.1-2.3-1.1
		c-1.9,0-2.4,0.5-2.4,1.1c0,0.6,0.5,1.1,2.4,1.1C273.9,56.7,274.5,56.3,274.5,55.6z"/>
	<path class="st13" d="M281.6,46.8c0-3.2,1.4-6,4.7-6c3.3,0,4.7,2.8,4.7,6c0,3.2-1.4,6.1-4.7,6.1C283,52.8,281.6,50,281.6,46.8z
		 M289,46.8c0-2.5-0.8-4.2-2.7-4.2c-1.9,0-2.7,1.7-2.7,4.2c0,2.5,0.8,4.3,2.7,4.3C288.2,51,289,49.3,289,46.8z M295.7,46.8h2.9v1.8
		h-2.9v8.7h-2V39.7h2V46.8z"/>
	<path class="st13" d="M309.5,45.9h-2.6c0.9,0.6,1.6,1.6,1.6,3c0,2.6-1.3,4.7-4.2,4.7c-2.9,0-4.2-2.2-4.2-4.7c0-1.4,0.7-2.4,1.6-3
		h-2.7v-1.8h10.5V45.9z M307.7,40.6v1.8c-1.5,0-4.8,0-6.5-0.5l0.6-1.7C303.2,40.6,306.1,40.6,307.7,40.6z M306.5,48.9
		c0-1.7-0.6-2.9-2.2-2.9c-1.6,0-2.2,1.2-2.2,2.9c0,1.8,0.6,2.9,2.2,2.9C305.9,51.8,306.5,50.7,306.5,48.9z M313.3,46.8h2.9v1.8h-2.9
		v8.7h-2V39.7h2V46.8z"/>
	<path class="st13" d="M317.4,41.1h8.9c-0.2,2.6-1.5,5.2-3.2,7.4c1.1,1.6,2.7,2.2,4.6,3l-1,1.9c-2.1-0.8-3.8-1.6-4.8-3.4
		c-1.3,1.4-2.7,2.6-4,3.2l-1.2-1.5c3.2-1.8,6.1-5.5,7-8.8h-6.4V41.1z M331.9,57.3h-2V39.7h2V57.3z"/>
	<path class="st13" d="M335,48.4v-7.7h8.3v8.8h-7.2C335.4,49.5,335,49.1,335,48.4z M341.3,47.7v-5.2H337v5.2H341.3z M337.4,56.7
		v-5.2h2V56h9.7v1.8h-10.6C337.8,57.8,337.4,57.4,337.4,56.7z M348.5,44.8h2.9v1.8h-2.9v5.9h-2V39.7h2V44.8z"/>
	<path class="st13" d="M356.6,47.4v-6.9h8.6v8h-7.5C357,48.5,356.6,48.1,356.6,47.4z M363.2,46.7v-4.4h-4.6v4.4H363.2z M360,56.7
		v-3.9h9.1v-1.3H360v-1.8h11.1v5H362V56h9.7v1.8h-10.6C360.4,57.8,360,57.4,360,56.7z M371.1,48.9h-2v-9.3h2V48.9z"/>
	<path class="st13" d="M380.4,44.1v-1.4h-6.1v-1.8h8.1v3.2c0,5.7-2.6,8.4-8,9.5l-0.6-1.7C378.5,51,380.4,49,380.4,44.1z M387.7,46.8
		h2.9v1.8h-2.9v8.7h-2V39.7h2V46.8z"/>
	<path class="st13" d="M400.3,52v5.6h-2V52h-7.2v-1.8h16.4V52H400.3z M393.5,47.7v-4.2h9.5v-1.7h-9.5V40H405v5.3h-9.5V47h10.1v1.8
		h-11C393.9,48.7,393.5,48.4,393.5,47.7z"/>
	<path class="st13" d="M415.6,44.1v-1.4h-6.1v-1.8h8.1v3.2c0,5.7-2.6,8.4-8,9.5l-0.6-1.7C413.7,51,415.6,49,415.6,44.1z M422.9,46.8
		h2.9v1.8h-2.9v8.7h-2V39.7h2V46.8z"/>
	<path class="st13" d="M430.3,55.2v-1.8h7.2V49h2v4.4h7.2v1.8H430.3z M439.3,40.5l2,0.2c-0.3,1.2-1,2.5-2,3.9
		c1.8,1.8,3.3,2.7,6.5,3.5L445,50c-3.2-0.9-5.3-1.8-6.9-4c-1.5,1.6-3.4,3-5.6,3.9l-0.8-1.6C435.8,46.6,438.4,43.4,439.3,40.5z"/>
	<path class="st13" d="M458.4,45.4H456c0.8,0.5,1,1.4,1,2.4c0,1.6-0.8,2.9-2.4,3.4v1.5c1.9-0.1,3.8-0.3,5.5-0.6V39.7h2v7.1h2.9v1.8
		h-2.9v8.7h-2v-3.5c-4.3,0.8-9.9,1-12.8,1l-0.2-1.8c1.4,0,3.3,0,5.5-0.1v-1.5c-2.1-0.2-3.5-1.5-3.5-3.6c0-1.1,0.2-1.9,1-2.4h-2.4
		v-1.6h10.8V45.4z M456.1,40.6v1.6c-1.5,0-4.7,0-6.3-0.5l0.6-1.5C451.8,40.6,454.6,40.6,456.1,40.6z M455,47.6
		c0-1.3-0.7-2.2-1.9-2.2c-1.3,0-2,0.8-2,2.2s0.7,2.2,2,2.2C454.2,49.8,455,49,455,47.6z"/>
	<path class="st13" d="M472.4,44.1v-1.4h-6.1v-1.8h8.1v3.2c0,5.7-2.6,8.4-8,9.5l-0.6-1.7C470.5,51,472.4,49,472.4,44.1z M479.7,46.8
		h2.9v1.8h-2.9v8.7h-2V39.7h2V46.8z"/>
	<path class="st13" d="M487.6,40.5h9c-0.2,1.7-1.2,3.5-2.7,5c1,0.7,2.4,1.1,3.9,1.4l-0.9,1.9c-1.9-0.4-3.5-1-4.6-2
		c-1.3,0.9-2.7,1.6-4.2,1.8l-1-1.8c3.2-0.6,5.5-2.6,6.5-4.6h-6V40.5z M490.2,56.7v-3.9h9.1v-1.3h-9.1v-1.8h11.1v5h-9.1V56h9.7v1.8
		h-10.6C490.6,57.8,490.2,57.4,490.2,56.7z M501.3,43.6h2.9v1.8h-2.9v3.5h-2v-9.3h2V43.6z"/>
	<path class="st13" d="M508.8,45c0-2.5,1.5-4.6,4.7-4.6c3.2,0,4.7,2,4.7,4.6s-1.5,4.6-4.7,4.6C510.3,49.6,508.8,47.5,508.8,45z
		 M516.2,45c0-1.7-0.7-2.8-2.7-2.8c-2,0-2.7,1.1-2.7,2.8s0.7,2.8,2.7,2.8C515.5,47.8,516.2,46.6,516.2,45z M511.8,56.7v-5.2h2V56
		h9.7v1.8h-10.6C512.2,57.8,511.8,57.4,511.8,56.7z M522.9,44.8h2.9v1.8h-2.9v5.9h-2V39.7h2V44.8z"/>
	<path class="st13" d="M527.4,47.6v-6.7h7.6v1.8h-5.6v4.2h5.6v1.8h-2.6v2.7c1.3-0.1,2.6-0.3,3.8-0.5v-11h2v6.5h2v-6.7h2v17.7h-2
		v-9.2h-2v8.4h-2v-3.9c-3.5,0.7-7.5,0.9-10.2,0.9l-0.2-1.8c1.3,0,2.9,0,4.6-0.2v-2.8h-1.9C527.7,48.7,527.4,48.3,527.4,47.6z"/>
	<path class="st13" d="M549.1,40.5l1.9,0.2c-0.3,2.5-0.8,4.6-1.7,6.6c1.1,2.3,2.5,3.3,5.3,4.3l-0.8,1.9c-2.9-1-4.8-2.4-5.5-4.3
		c-0.8,1.3-1.9,2.6-3.2,3.9l-1.5-1.2C547.1,48.5,548.6,45.5,549.1,40.5z M559.1,57.3h-2v-9.9H553v-1.8h4.1v-5.9h2V57.3z"/>
</g>
<g class="st12">
	<path class="st13" d="M300.1,76.9c-0.5-1.7-0.8-3.3-0.8-5.3l1.9-0.1c0,1.9,0.1,3.5,0.4,5.4c0.8,0,1.6-0.1,2.4-0.1
		c0.3-1.8,0.4-3.4,0.4-5.2l1.9,0.1c0,1.9-0.2,3.4-0.7,5c1-0.1,2-0.3,3-0.4l0.2,1.8c-4.2,0.8-7.9,0.8-11.4,0.8v-1.8L300.1,76.9z
		 M307.8,68.5v1.8h-10v-1.8H307.8z M301.9,84.7v-4.6h2V84h9.7v1.8H303C302.3,85.8,301.9,85.4,301.9,84.7z M313,80.5h-2v-4.6h-2.8
		v-1.8h2.8v-2h-2.8v-1.8h2.8v-2.6h2V80.5z"/>
	<path class="st13" d="M325.8,73.9h-2.6c0.9,0.6,1.6,1.6,1.6,3c0,2.6-1.3,4.7-4.2,4.7c-2.9,0-4.2-2.2-4.2-4.7c0-1.4,0.7-2.4,1.6-3
		h-2.7v-1.8h10.5V73.9z M323.9,68.6v1.8c-1.5,0-4.8,0-6.5-0.5l0.6-1.7C319.5,68.6,322.4,68.6,323.9,68.6z M322.7,76.9
		c0-1.7-0.6-2.9-2.2-2.9c-1.6,0-2.2,1.2-2.2,2.9c0,1.8,0.6,2.9,2.2,2.9C322.1,79.8,322.7,78.7,322.7,76.9z M329.6,74.8h2.9v1.8h-2.9
		v8.7h-2V67.7h2V74.8z"/>
	<path class="st13" d="M338.7,72.3v-1.2h-4.9v-1.8h6.9v3c0,0.6,0,1.1-0.1,1.6h2v-6.1h2v16.7h-2v-8.8h-2.2c-0.6,3.1-2.4,4.8-6.5,5.4
		l-0.6-1.7C337.9,78.9,338.7,76.8,338.7,72.3z M348.6,85.3h-2V67.7h2V85.3z"/>
	<path class="st13" d="M355.5,75.9v-7.2h8.3V77h-7.2C355.9,77,355.5,76.6,355.5,75.9z M361.7,75.2v-4.6h-4.3v4.6H361.7z M369.8,78.9
		v6.9h-2v-5.1h-9.1v-1.8H369.8z M369.8,77.9h-2v-4.3h-3.3v-1.8h3.3v-4.1h2V77.9z"/>
	<path class="st13" d="M379.3,72.1v-1.4h-6.1v-1.8h8.1v3.2c0,5.7-2.6,8.4-8,9.5l-0.6-1.7C377.3,79,379.3,77,379.3,72.1z M387.4,85.3
		h-2V67.7h2V85.3z"/>
	<path class="st13" d="M403,79.6v6h-2v-6h-7.2v-1.8h16.4v1.8H403z M407.8,76.2h-10.5c-0.7,0-1.1-0.4-1.1-1.1v-7.2h2v2.5h7.6v-2.5h2
		V76.2z M405.8,74.5v-2.3h-7.6v2.3H405.8z"/>
	<path class="st13" d="M420.2,70.4h-6.2v5.1c2.3,0.1,4.7,0,7.9-1l0.2,1.8c-3.8,1.1-6.4,1.2-9,1c-0.7,0-1.1-0.4-1.1-1.1v-7.6h8.2
		V70.4z M414.5,84.7v-6h11.1v7.1h-10C414.9,85.8,414.5,85.4,414.5,84.7z M423.6,84v-3.5h-7.1V84H423.6z M425.6,71.8h2.9v1.8h-2.9
		v4.3h-2V67.7h2V71.8z"/>
	<path class="st13" d="M430,75.6v-6.7h7.6v1.8H432v4.2h5.6v1.8H435v2.7c1.3-0.1,2.6-0.3,3.8-0.5v-11h2v6.5h2v-6.7h2v17.7h-2v-9.2h-2
		v8.4h-2v-3.9c-3.5,0.7-7.5,0.9-10.2,0.9l-0.2-1.8c1.3,0,2.9,0,4.6-0.2v-2.8h-1.9C430.4,76.7,430,76.3,430,75.6z"/>
	<path class="st13" d="M446.6,83.2v-1.8h4.4v-3.3h2v3.3h3.7v-3.3h2v3.3h4.3v1.8H446.6z M448.7,73.2c0-2.4,1.3-4.6,6-4.6
		c4.7,0,6,2.2,6,4.6c0,2.3-1.4,4.5-6,4.5C450.1,77.7,448.7,75.5,448.7,73.2z M458.8,73.2c0-1.7-0.8-2.8-4-2.8c-3.3,0-4,1.1-4,2.8
		c0,1.6,0.8,2.7,4,2.7C458,75.9,458.8,74.8,458.8,73.2z"/>
	<path class="st13" d="M469.6,74h-1c0.8-1.1,0.9-1.7,0.9-2.5c-0.9,0-1.1-0.5-1.1-1.4c0-1,0.4-1.4,1.4-1.4c1,0,1.4,0.4,1.4,1.4
		C471.3,71.8,470.6,73.3,469.6,74z M472.9,74h-1c0.8-1.1,0.9-1.7,0.9-2.5c-0.9,0-1.1-0.5-1.1-1.4c0-1,0.4-1.4,1.4-1.4
		s1.4,0.4,1.4,1.4C474.6,71.8,473.9,73.3,472.9,74z"/>
</g>
</svg>
