<?xml version="1.0" encoding="UTF-8"?>
<svg id="_레이어_1" data-name="레이어_1" xmlns="http://www.w3.org/2000/svg" version="1.1" viewBox="0 0 90 210">
  <!-- Generator: Adobe Illustrator 29.2.1, SVG Export Plug-In . SVG Version: 2.1.0 Build 116)  -->
  <defs>
    <style>
      .st0, .st1, .st2, .st3, .st4, .st5, .st6 {
        stroke: #746963;
      }

      .st0, .st1, .st2, .st6 {
        stroke-linejoin: round;
      }

      .st0, .st2, .st3 {
        fill: #fdf8f5;
      }

      .st0, .st3 {
        stroke-width: 2.05px;
      }

      .st7 {
        fill: #fff;
      }

      .st8 {
        fill: #746963;
      }

      .st1 {
        fill: #877b76;
        stroke-width: 2.03px;
      }

      .st2 {
        stroke-width: 1.99px;
      }

      .st3, .st4, .st5 {
        stroke-miterlimit: 10;
      }

      .st4 {
        stroke-width: 1.21px;
      }

      .st4, .st5 {
        fill: none;
        stroke-linecap: round;
      }

      .st5 {
        stroke-width: 1.6px;
      }

      .st9 {
        fill: #fffaca;
      }

      .st6 {
        fill: #f3d6bc;
        stroke-width: 1.91px;
      }
    </style>
  </defs>
  <path class="st1" d="M78.62,113.68c-2.92-36.88-33.46-33.14-33.46-33.14,0,0-30.55-3.74-33.46,33.14-2.92,36.88-6.78,38.72-7.03,46.73-.26,8,8.38,11.86,13.37,5.49,0,0,5.26,11.55,13.37,1.99,0,0,7.33,9.78,13.76.07,6.42,9.71,13.75-.07,13.75-.07,8.11,9.56,13.37-1.99,13.37-1.99,4.99,6.37,13.63,2.51,13.37-5.49-.26-8-4.11-9.85-7.03-46.73Z"/>
  <path class="st6" d="M68.18,183.58c-3.71-27.95-17.46-27.95-17.46-27.95h-11.03s-13.76,0-17.46,27.95c0,0-1.5,12.7-.46,18.29h46.87c1.04-5.59-.46-18.29-.46-18.29Z"/>
  <path class="st2" d="M51.38,155.31v-5.42h-12.36v5.42s4.91,3.75,12.36,0Z"/>
  <path class="st3" d="M71.83,117.27s5.08-7.65,8.87-3.07c3.79,4.58-1.72,12.13-1.72,12.13,0,0-2.39,4.02-7.82,5.85,0,0,.47-3,.67-14.92Z"/>
  <path class="st3" d="M18.73,117.27s-5.08-7.65-8.87-3.07c-3.79,4.58,1.72,12.13,1.72,12.13,0,0,2.39,4.02,7.82,5.85,0,0-.47-3-.67-14.92Z"/>
  <path class="st0" d="M71.35,117.76c-10.17,8.66-18.31,0-18.31,0-8.65,8.4-16.78,0-16.78,0-9.15,7.09-17.29,0-17.29,0,0,0-5.12,34.39,26.21,34.39s26.17-34.39,26.17-34.39Z"/>
  <g>
    <path class="st8" d="M38.03,128.87c0,2.12-1.52,3.84-3.39,3.84s-3.39-1.72-3.39-3.84,1.52-3.84,3.39-3.84,3.39,1.72,3.39,3.84"/>
    <path class="st7" d="M35.85,127.7c0,.54-.54.98-1.21.98s-1.21-.44-1.21-.98.54-.98,1.21-.98,1.21.44,1.21.98"/>
    <path class="st7" d="M35.57,130.44c0,.42-.42.75-.93.75s-.93-.34-.93-.75.42-.75.93-.75.93.34.93.75"/>
  </g>
  <g>
    <path class="st8" d="M59.63,128.87c0,2.12-1.52,3.84-3.39,3.84s-3.39-1.72-3.39-3.84,1.52-3.84,3.39-3.84,3.39,1.72,3.39,3.84"/>
    <path class="st7" d="M57.45,127.7c0,.54-.54.98-1.21.98s-1.21-.44-1.21-.98.54-.98,1.21-.98,1.21.44,1.21.98"/>
    <path class="st7" d="M57.17,130.44c0,.42-.42.75-.93.75s-.93-.34-.93-.75.42-.75.93-.75.93.34.93.75"/>
  </g>
  <path class="st4" d="M37.61,114.16c-1.19-1.51-3.98-2.57-7.24-2.57s-6.05,1.06-7.23,2.57"/>
  <path class="st4" d="M66.87,114.16c-1.19-1.51-3.98-2.57-7.24-2.57s-6.05,1.06-7.23,2.57"/>
  <g>
    <path class="st8" d="M44.91,21.19c.73-.02,1.19.52.94,1.11-.17.41-.53.51-.93.51-1.31.03-2.5.43-3.56,1.2-1.68,1.24-2.59,2.91-2.69,5.01-.01.11-.01.22-.03.33-.07.43-.4.72-.8.71-.41-.01-.73-.31-.79-.74-.01-.09,0-.2,0-.3.14-4.29,3.58-7.72,7.86-7.83Z"/>
    <path class="st9" d="M45.85,22.3c.25-.59-.21-1.13-.94-1.11-4.28.11-7.72,3.54-7.86,7.83,0,.1-.01.21,0,.3.06.43.38.73.79.74.4.01.73-.28.8-.71.02-.11.02-.22.03-.33.1-2.1,1.01-3.77,2.69-5.01,1.06-.77,2.25-1.17,3.56-1.2.4,0,.76-.1.93-.51ZM43.65,19.85c3.58-.6,8.19,1.27,10.4,5.39,2.28,4.24,1.39,9.48-2.18,12.7-1.29,1.16-2.31,2.47-2.7,4.18-.1.46-.16.94-.19,1.42-.05.76-.28,1-1.05,1-.95.01-1.89,0-2.84,0s-1.96.01-2.94,0c-.59,0-.88-.29-.9-.88-.07-2.17-.94-3.97-2.56-5.4-2.5-2.18-3.78-4.92-3.77-8.24,0-4.97,3.83-9.34,8.73-10.17Z"/>
    <path class="st8" d="M45.11,48.55c.93,0,1.86.01,2.8,0,.46-.01.8-.28.82-.71.03-.57.01-1.13.01-1.7h-7.26c0,.5,0,.99,0,1.48,0,.63.29.93.92.93.9.01,1.81,0,2.71,0ZM46.68,53.23c-.53.03-1.06,0-1.59,0-.46,0-.93.01-1.4,0-1.35-.03-2.35-1-2.42-2.35,0-.06,0-.13,0-.19.06-.48-.07-.81-.52-1.11-.63-.42-.88-1.1-.89-1.87,0-.87.08-1.74-.02-2.6-.12-1.13-.31-2.26-.61-3.36-.25-.93-.9-1.67-1.63-2.31-2.28-1.97-3.67-4.44-4.15-7.42-.8-5,1.7-10.05,6.2-12.46,1.93-1.03,3.98-1.57,6.17-1.42,5.01.36,9.49,4.07,10.69,8.97,1.15,4.75-.13,8.84-3.72,12.17-1.11,1.02-1.94,2.16-2.14,3.66-.19,1.43-.4,2.86-.3,4.32.08,1.11-.26,2.03-1.27,2.62-.08.05-.12.21-.13.32-.02.33,0,.68-.05,1.01-.17,1.12-1.09,1.96-2.22,2.01ZM54.05,25.24c-2.21-4.12-6.82-5.99-10.4-5.39-4.9.83-8.72,5.2-8.73,10.17-.01,3.32,1.27,6.06,3.77,8.24,1.62,1.43,2.49,3.23,2.56,5.4.02.59.31.88.9.88.98.01,1.96,0,2.94,0s1.89.01,2.84,0c.77,0,1-.24,1.05-1,.03-.48.09-.96.19-1.42.39-1.71,1.41-3.02,2.7-4.18,3.57-3.22,4.46-8.46,2.18-12.7ZM47.3,50.2h-4.4c0,.23-.01.44,0,.65.03.47.33.78.8.78.94.01,1.88.01,2.83,0,.4,0,.72-.26.77-.63.03-.26,0-.52,0-.8Z"/>
  </g>
  <line class="st5" x1="45.01" y1="7.86" x2="45.01" y2="13.26"/>
  <line class="st5" x1="31.62" y1="12.21" x2="34.79" y2="16.58"/>
  <line class="st5" x1="23.34" y1="23.61" x2="28.48" y2="25.28"/>
  <line class="st5" x1="66.68" y1="23.61" x2="61.55" y2="25.28"/>
  <line class="st5" x1="58.4" y1="12.21" x2="55.23" y2="16.58"/>
</svg>