<?xml version="1.0" encoding="UTF-8"?>
<svg id="Layer_1" xmlns="http://www.w3.org/2000/svg" version="1.1" xmlns:xlink="http://www.w3.org/1999/xlink" viewBox="0 0 630 222">
  <!-- Generator: Adobe Illustrator 29.2.1, SVG Export Plug-In . SVG Version: 2.1.0 Build 116)  -->
  <defs>
    <style>
      .st0 {
        fill: #fff;
      }

      .st1, .st2, .st3, .st4, .st5, .st6, .st7 {
        stroke: #756963;
      }

      .st1, .st3, .st7 {
        fill: #fdf8f5;
      }

      .st1, .st6 {
        stroke-miterlimit: 10;
      }

      .st1, .st7 {
        stroke-width: 2.05px;
      }

      .st8, .st5, .st6 {
        fill: none;
      }

      .st2 {
        fill: #877b76;
        stroke-width: 2.01px;
      }

      .st2, .st3, .st4, .st5, .st7 {
        stroke-linejoin: round;
      }

      .st9 {
        fill: #e4f1e3;
      }

      .st3 {
        stroke-width: 1.99px;
      }

      .st4 {
        fill: #c3ddc4;
        stroke-width: 1.91px;
      }

      .st4, .st5, .st6 {
        stroke-linecap: round;
      }

      .st5 {
        stroke-width: 1.8px;
      }

      .st6 {
        stroke-width: 1.21px;
      }

      .st10 {
        fill: #55463e;
      }

      .st11 {
        fill: #756963;
      }

      .st12 {
        fill: #c2b8a6;
      }

      .st13 {
        clip-path: url(#clippath);
      }

      .st14 {
        fill: #fffbf0;
      }
    </style>
    <clipPath id="clippath">
      <circle class="st8" cx="78" cy="140" r="71.5"/>
    </clipPath>
  </defs>
  <g class="st13">
    <circle class="st9" cx="78" cy="140" r="71.5"/>
    <path class="st2" d="M111.47,123.74c-2.92-36.2-33.46-32.53-33.46-32.53,0,0-.02,0-.05,0h0s-.05,0-.07,0c-.02,0-.04,0-.07,0h0s-.05.02-.05.02c0,0-30.55-3.67-33.46,32.53,0,0-6.64,44.91,33.59,46.98,40.22-2.07,33.59-46.98,33.59-46.98Z"/>
    <path class="st4" d="M101.1,194.96c-3.71-28.64-17.46-28.64-17.46-28.64h-11.03s-13.76,0-17.46,28.64c0,0-1.5,13.02-.46,18.75h46.87c1.04-5.73-.46-18.75-.46-18.75Z"/>
    <path class="st3" d="M84.37,166.19v-5.42h-12.36v5.42s4.91,3.75,12.36,0Z"/>
    <path class="st4" d="M75.6,169.87s-4.61-4.93-9.19-5.51c-3.37-.43-5.89,2.76-6.98,4.47-.6.94-.14,2.18.97,2.51,1.53.45,4.48.72,10.15.24"/>
    <path class="st4" d="M80.4,169.87s4.61-4.93,9.19-5.51c3.37-.43,5.89,2.76,6.98,4.47.6.94.14,2.18-.97,2.51-1.53.45-4.48.72-10.15.24"/>
    <path class="st5" d="M73.91,171.83s-1.12,16.12-.88,18.18"/>
    <path class="st5" d="M82.09,171.83s1.12,16.12.87,18.18"/>
    <path class="st1" d="M104.55,127.68s5.08-7.65,8.87-3.07c3.79,4.58-1.72,12.13-1.72,12.13,0,0-2.39,4.02-7.82,5.85,0,0,.47-3,.67-14.92Z"/>
    <path class="st1" d="M51.45,127.68s-5.08-7.65-8.87-3.07c-3.79,4.58,1.72,12.13,1.72,12.13,0,0,2.39,4.02,7.82,5.85,0,0-.47-3-.67-14.92Z"/>
    <path class="st7" d="M104.07,128.17c-10.17,8.66-18.31,0-18.31,0-8.65,8.4-16.78,0-16.78,0-9.15,7.09-17.29,0-17.29,0,0,0-5.12,34.39,26.21,34.39s26.17-34.39,26.17-34.39Z"/>
    <g>
      <path class="st11" d="M70.75,139.28c0,2.12-1.52,3.84-3.39,3.84s-3.39-1.72-3.39-3.84,1.52-3.84,3.39-3.84,3.39,1.72,3.39,3.84"/>
      <path class="st0" d="M68.56,138.11c0,.54-.54.98-1.21.98s-1.21-.44-1.21-.98.54-.98,1.21-.98,1.21.44,1.21.98"/>
      <path class="st0" d="M68.28,140.85c0,.42-.42.75-.93.75s-.93-.34-.93-.75.42-.75.93-.75.93.34.93.75"/>
    </g>
    <g>
      <path class="st11" d="M92.35,139.28c0,2.12-1.52,3.84-3.39,3.84s-3.39-1.72-3.39-3.84,1.52-3.84,3.39-3.84,3.39,1.72,3.39,3.84"/>
      <path class="st0" d="M90.17,138.11c0,.54-.54.98-1.21.98s-1.21-.44-1.21-.98.54-.98,1.21-.98,1.21.44,1.21.98"/>
      <path class="st0" d="M89.89,140.85c0,.42-.42.75-.93.75s-.93-.34-.93-.75.42-.75.93-.75.93.34.93.75"/>
    </g>
    <path class="st6" d="M70.32,124.57c-1.19-1.51-3.98-2.57-7.24-2.57s-6.05,1.06-7.23,2.57"/>
    <path class="st6" d="M99.59,124.57c-1.19-1.51-3.98-2.57-7.24-2.57s-6.05,1.06-7.23,2.57"/>
  </g>
  <g>
    <path class="st14" d="M133.1,123.1c-.42,0-.84-.26-1.06-.65-.15-.27-.26-.69.05-1.19l15.04-24.15c.59-.95.63-2.17.1-3.2-2.18-4.18-3.29-8.69-3.29-13.42v-37.87c0-17.23,14.03-31.26,31.26-31.26h416.42c17.23,0,31.26,14.03,31.26,31.26v35.67c0,17.23-14.03,31.26-31.26,31.26H173c-3.96,0-7.81-.78-11.42-2.33-.42-.18-.86-.27-1.31-.27-.6,0-1.18.16-1.68.48l-24.85,15.47c-.21.13-.42.2-.64.2h.01Z"/>
    <path class="st12" d="M591.63,12.36c16.68,0,30.26,13.58,30.26,30.26v35.67c0,16.68-13.58,30.26-30.26,30.26H173c-3.83,0-7.53-.76-11.02-2.25-.54-.23-1.11-.35-1.7-.35-.78,0-1.55.22-2.21.63l-24.85,15.47s-.09.04-.11.04c-.04,0-.14-.05-.18-.14-.02-.04-.04-.07.02-.18l15.04-24.15c.78-1.25.83-2.86.14-4.19-2.1-4.03-3.17-8.39-3.17-12.95v-37.87c0-16.68,13.58-30.26,30.26-30.26h416.42M591.63,10.36H175.21c-17.82,0-32.26,14.45-32.26,32.26v37.87c0,5.01,1.23,9.73,3.4,13.88.36.7.36,1.53-.06,2.2l-15.04,24.14c-.99,1.59.29,3.38,1.86,3.38.38,0,.78-.11,1.17-.35l24.85-15.47c.35-.22.75-.33,1.15-.33.31,0,.62.06.91.19,3.63,1.55,7.62,2.41,11.81,2.41h418.63c17.82,0,32.26-14.45,32.26-32.26v-35.67c0-17.82-14.45-32.26-32.26-32.26h0Z"/>
  </g>
  <g>
    <path class="st10" d="M214.53,40.64h.98c-.82,1.06-.86,1.72-.92,2.52.94.04,1.12.46,1.12,1.42s-.42,1.42-1.42,1.42-1.42-.42-1.42-1.42c0-1.76.74-3.22,1.66-3.94ZM217.83,40.64h.98c-.82,1.06-.86,1.72-.92,2.52.94.04,1.12.46,1.12,1.42s-.42,1.42-1.42,1.42-1.42-.42-1.42-1.42c0-1.76.74-3.22,1.66-3.94Z"/>
    <path class="st10" d="M229.87,48.94h-4.02c-.7,0-1.08-.38-1.08-1.08v-7.34h1.68v2.24h1.76v-2.24h1.66v8.42ZM228.21,47.14v-2.58h-1.76v2.58h1.76ZM228.21,54.36c0-2.12,1.28-4.04,5.66-4.04s5.66,1.9,5.66,4.04-1.3,4-5.66,4-5.66-1.92-5.66-4ZM237.53,54.36c0-1.36-.66-2.24-3.66-2.24s-3.66.88-3.66,2.24.68,2.2,3.66,2.2,3.66-.88,3.66-2.2ZM236.07,48.94h-5.1v-8.42h1.68v2.24h1.76v-2.24h1.66v8.42ZM234.41,47.14v-2.58h-1.76v2.58h1.76ZM239.51,43.8h2.26v1.8h-2.26v4.32h-2v-10.26h2v4.14Z"/>
    <path class="st10" d="M242.33,48.86v-1.62h16.4v1.62h-16.4ZM244.47,42.9c0-1.82,1.4-3.28,6.04-3.28s6.02,1.46,6.02,3.28-1.44,3.22-6.02,3.22-6.04-1.46-6.04-3.22ZM244.75,56.72v-3.56h9.56v-1.12h-9.56v-1.74h11.56v4.62h-9.56v1.14h10.16v1.74h-11.08c-.7,0-1.08-.38-1.08-1.08ZM254.53,42.9c0-.78-.72-1.48-4.02-1.48s-4.04.7-4.04,1.48c0,.72.7,1.42,4.04,1.42s4.02-.7,4.02-1.42Z"/>
    <path class="st10" d="M263.93,49.16v-1.8h7.2v-1.56h2v1.56h7.2v1.8h-16.4ZM266.21,40.22h12.18c-.42,1.36-2.06,2.58-4.3,3.6,1.24.46,2.74.6,4.82.72l-.22,1.82c-2.58-.18-5.14-.7-6.92-1.62-1.84.64-3.9,1.18-5.88,1.56l-.5-1.74c3.2-.58,6.36-1.48,8.44-2.54h-7.62v-1.8ZM267.77,55.64c0-.52.28-.88.72-1.14h-2.96v-1.6h13.22v1.6h-2.94c.44.26.7.62.7,1.14,0,1.42-1.3,2.68-4.34,2.68s-4.4-1.22-4.4-2.68ZM275.69,50.52v1.6c-1.82,0-5.64-.06-7.52-.58l.56-1.56c1.68.48,5.18.54,6.96.54ZM274.51,55.64c0-.64-.56-1.1-2.34-1.1s-2.4.46-2.4,1.1.54,1.08,2.4,1.08,2.34-.46,2.34-1.08Z"/>
    <path class="st10" d="M281.63,46.78c0-3.22,1.38-6.02,4.72-6.02s4.7,2.8,4.7,6.02-1.36,6.06-4.7,6.06-4.72-2.82-4.72-6.06ZM289.05,46.78c0-2.48-.8-4.22-2.7-4.22s-2.72,1.74-2.72,4.22.8,4.26,2.72,4.26,2.7-1.76,2.7-4.26ZM295.71,46.8h2.86v1.8h-2.86v8.72h-2v-17.66h2v7.14Z"/>
    <path class="st10" d="M309.55,45.9h-2.64c.94.6,1.58,1.58,1.58,2.98,0,2.56-1.28,4.74-4.16,4.74s-4.18-2.16-4.18-4.74c0-1.4.66-2.38,1.58-2.98h-2.66v-1.8h10.48v1.8ZM307.69,40.6v1.8c-1.54,0-4.82,0-6.48-.54l.64-1.72c1.38.46,4.3.46,5.84.46ZM306.49,48.88c0-1.7-.62-2.88-2.16-2.88s-2.18,1.18-2.18,2.88.62,2.94,2.18,2.94,2.16-1.16,2.16-2.94ZM313.31,46.8h2.86v1.8h-2.86v8.72h-2v-17.66h2v7.14Z"/>
    <path class="st10" d="M317.4,41.06h8.9c-.24,2.58-1.54,5.22-3.2,7.42,1.1,1.6,2.7,2.2,4.6,2.96l-.96,1.88c-2.08-.84-3.84-1.64-4.84-3.38-1.32,1.44-2.74,2.6-4,3.24l-1.16-1.52c3.24-1.84,6.14-5.54,7.02-8.8h-6.36v-1.8ZM331.91,57.32h-2v-17.66h2v17.66Z"/>
    <path class="st10" d="M335.02,48.4v-7.68h8.26v8.76h-7.18c-.7,0-1.08-.38-1.08-1.08ZM341.29,47.68v-5.16h-4.26v5.16h4.26ZM337.45,56.72v-5.22h2v4.5h9.66v1.8h-10.58c-.7,0-1.08-.38-1.08-1.08ZM348.51,44.8h2.86v1.8h-2.86v5.92h-2v-12.86h2v5.14Z"/>
    <path class="st10" d="M356.62,47.42v-6.9h8.56v7.98h-7.48c-.7,0-1.08-.38-1.08-1.08ZM363.19,46.7v-4.38h-4.56v4.38h4.56ZM360.04,56.72v-3.88h9.06v-1.34h-9.06v-1.8h11.06v4.96h-9.06v1.34h9.66v1.8h-10.58c-.7,0-1.08-.38-1.08-1.08ZM371.11,48.92h-2v-9.26h2v9.26Z"/>
    <path class="st10" d="M380.45,44.06v-1.36h-6.08v-1.8h8.08v3.16c0,5.66-2.62,8.4-8.02,9.46l-.64-1.74c4.68-.74,6.66-2.82,6.66-7.72ZM387.71,46.8h2.86v1.8h-2.86v8.72h-2v-17.66h2v7.14Z"/>
    <path class="st10" d="M400.33,51.96v5.62h-2v-5.62h-7.2v-1.8h16.4v1.8h-7.2ZM393.5,47.66v-4.18h9.46v-1.72h-9.46v-1.76h11.46v5.26h-9.46v1.72h10.06v1.76h-10.98c-.7,0-1.08-.38-1.08-1.08Z"/>
    <path class="st10" d="M415.64,44.06v-1.36h-6.08v-1.8h8.08v3.16c0,5.66-2.62,8.4-8.02,9.46l-.64-1.74c4.68-.74,6.66-2.82,6.66-7.72ZM422.91,46.8h2.86v1.8h-2.86v8.72h-2v-17.66h2v7.14Z"/>
    <path class="st10" d="M430.32,55.16v-1.8h7.2v-4.36h2v4.36h7.2v1.8h-16.4ZM439.28,40.54l1.96.2c-.32,1.18-1,2.52-2,3.86,1.82,1.8,3.28,2.66,6.52,3.52l-.8,1.84c-3.22-.94-5.28-1.76-6.88-3.96-1.48,1.56-3.38,3-5.58,3.92l-.84-1.64c4.12-1.7,6.74-4.92,7.62-7.74Z"/>
    <path class="st10" d="M458.42,45.36h-2.44c.84.54,1,1.38,1,2.4,0,1.56-.84,2.88-2.4,3.4v1.54c1.88-.14,3.8-.34,5.52-.64v-12.4h2v7.14h2.86v1.8h-2.86v8.72h-2v-3.54c-4.32.84-9.9,1-12.76,1l-.22-1.8c1.36,0,3.32-.04,5.46-.14v-1.48c-2.06-.18-3.48-1.5-3.48-3.6,0-1.08.22-1.9,1-2.4h-2.44v-1.6h10.76v1.6ZM456.14,40.56v1.6c-1.5,0-4.72,0-6.32-.54l.64-1.52c1.36.46,4.18.46,5.68.46ZM454.98,47.56c0-1.32-.72-2.18-1.92-2.18-1.26,0-1.96.82-1.96,2.18s.72,2.22,1.96,2.22c1.16,0,1.92-.82,1.92-2.22Z"/>
    <path class="st10" d="M472.44,44.06v-1.36h-6.08v-1.8h8.08v3.16c0,5.66-2.62,8.4-8.02,9.46l-.64-1.74c4.68-.74,6.66-2.82,6.66-7.72ZM479.71,46.8h2.86v1.8h-2.86v8.72h-2v-17.66h2v7.14Z"/>
    <path class="st10" d="M487.6,40.46h8.96c-.16,1.72-1.22,3.54-2.74,5.02.98.7,2.36,1.1,3.94,1.44l-.88,1.86c-1.88-.38-3.48-.96-4.58-2.04-1.28.92-2.74,1.6-4.18,1.84l-1-1.76c3.16-.56,5.5-2.62,6.48-4.56h-6v-1.8ZM490.24,56.72v-3.88h9.06v-1.34h-9.06v-1.8h11.06v4.96h-9.06v1.34h9.66v1.8h-10.58c-.7,0-1.08-.38-1.08-1.08ZM501.31,43.6h2.86v1.8h-2.86v3.52h-2v-9.26h2v3.94Z"/>
    <path class="st10" d="M508.82,44.96c0-2.54,1.5-4.6,4.72-4.6s4.7,2.04,4.7,4.6-1.5,4.62-4.7,4.62-4.72-2.06-4.72-4.62ZM516.24,44.96c0-1.68-.74-2.8-2.7-2.8s-2.72,1.12-2.72,2.8.74,2.82,2.72,2.82,2.7-1.16,2.7-2.82ZM511.84,56.72v-5.22h2v4.5h9.66v1.8h-10.58c-.7,0-1.08-.38-1.08-1.08ZM522.91,44.8h2.86v1.8h-2.86v5.92h-2v-12.86h2v5.14Z"/>
    <path class="st10" d="M527.36,47.62v-6.74h7.58v1.8h-5.58v4.22h5.58v1.8h-2.6v2.68c1.28-.14,2.56-.3,3.8-.52v-11h2v6.46h1.96v-6.66h2v17.66h-2v-9.2h-1.96v8.4h-2v-3.94c-3.54.72-7.46.92-10.2.92l-.22-1.8c1.32,0,2.92-.04,4.62-.16v-2.84h-1.9c-.7,0-1.08-.38-1.08-1.08Z"/>
    <path class="st10" d="M549.14,40.48l1.92.2c-.3,2.5-.82,4.62-1.72,6.56,1.08,2.34,2.52,3.34,5.32,4.26l-.8,1.86c-2.94-1.04-4.78-2.42-5.5-4.3-.84,1.32-1.88,2.6-3.2,3.86l-1.48-1.2c3.42-3.24,4.9-6.22,5.46-11.24ZM559.1,57.32h-2v-9.92h-4.12v-1.8h4.12v-5.94h2v17.66Z"/>
    <path class="st10" d="M300.08,76.88c-.5-1.7-.76-3.3-.76-5.3l1.9-.1c0,1.86.08,3.46.42,5.38.78-.04,1.58-.08,2.38-.14.32-1.84.4-3.42.4-5.24l1.9.1c0,1.86-.22,3.4-.68,5,.98-.12,1.98-.26,3-.44l.2,1.8c-4.16.76-7.88.76-11.4.76v-1.8l2.64-.02ZM307.81,68.54v1.8h-9.96v-1.8h9.96ZM301.91,84.72v-4.62h2v3.9h9.66v1.8h-10.58c-.7,0-1.08-.38-1.08-1.08ZM312.97,80.52h-2v-4.64h-2.76v-1.8h2.76v-2h-2.76v-1.8h2.76v-2.62h2v12.86Z"/>
    <path class="st10" d="M325.81,73.9h-2.64c.94.6,1.58,1.58,1.58,2.98,0,2.56-1.28,4.74-4.16,4.74s-4.18-2.16-4.18-4.74c0-1.4.66-2.38,1.58-2.98h-2.66v-1.8h10.48v1.8ZM323.95,68.6v1.8c-1.54,0-4.82,0-6.48-.54l.64-1.72c1.38.46,4.3.46,5.84.46ZM322.75,76.88c0-1.7-.62-2.88-2.16-2.88s-2.18,1.18-2.18,2.88.62,2.94,2.18,2.94,2.16-1.16,2.16-2.94ZM329.57,74.8h2.86v1.8h-2.86v8.72h-2v-17.66h2v7.14Z"/>
    <path class="st10" d="M338.71,72.28v-1.18h-4.88v-1.8h6.88v2.98c0,.58-.02,1.12-.06,1.64h1.96v-6.06h2v16.66h-2v-8.8h-2.2c-.64,3.08-2.44,4.8-6.52,5.38l-.64-1.74c4.68-.5,5.46-2.54,5.46-7.08ZM348.57,85.32h-2v-17.66h2v17.66Z"/>
    <path class="st10" d="M355.48,75.88v-7.16h8.26v8.24h-7.18c-.7,0-1.08-.38-1.08-1.08ZM361.75,75.16v-4.64h-4.26v4.64h4.26ZM369.77,78.9v6.9h-2v-5.1h-9.06v-1.8h11.06ZM369.77,77.92h-2v-4.32h-3.34v-1.8h3.34v-4.14h2v10.26Z"/>
    <path class="st10" d="M379.3,72.06v-1.36h-6.08v-1.8h8.08v3.16c0,5.66-2.62,8.4-8.02,9.46l-.64-1.74c4.68-.74,6.66-2.82,6.66-7.72ZM387.37,85.32h-2v-17.66h2v17.66Z"/>
    <path class="st10" d="M402.99,79.56v6.02h-2v-6.02h-7.2v-1.8h16.4v1.8h-7.2ZM407.77,76.22h-10.52c-.7,0-1.08-.38-1.08-1.08v-7.24h2v2.54h7.6v-2.54h2v8.32ZM405.77,74.46v-2.34h-7.6v2.34h7.6Z"/>
    <path class="st10" d="M420.17,70.4h-6.24v5.14c2.26.08,4.66,0,7.88-1.04l.2,1.76c-3.84,1.12-6.4,1.16-9,1.04-.7-.04-1.08-.44-1.08-1.14v-7.56h8.24v1.8ZM414.5,84.72v-6.02h11.06v7.1h-9.98c-.7,0-1.08-.38-1.08-1.08ZM423.57,84v-3.5h-7.06v3.5h7.06ZM425.57,71.8h2.86v1.8h-2.86v4.32h-2v-10.26h2v4.14Z"/>
    <path class="st10" d="M430.02,75.62v-6.74h7.58v1.8h-5.58v4.22h5.58v1.8h-2.6v2.68c1.28-.14,2.56-.3,3.8-.52v-11h2v6.46h1.96v-6.66h2v17.66h-2v-9.2h-1.96v8.4h-2v-3.94c-3.54.72-7.46.92-10.2.92l-.22-1.8c1.32,0,2.92-.04,4.62-.16v-2.84h-1.9c-.7,0-1.08-.38-1.08-1.08Z"/>
    <path class="st10" d="M446.58,83.16v-1.8h4.4v-3.26h2v3.26h3.74v-3.26h2v3.26h4.26v1.8h-16.4ZM448.72,73.18c0-2.4,1.34-4.56,6.04-4.56s6.02,2.16,6.02,4.56-1.36,4.5-6.02,4.5-6.04-2.18-6.04-4.5ZM458.79,73.18c0-1.66-.76-2.76-4.02-2.76s-4.04,1.1-4.04,2.76.76,2.7,4.04,2.7,4.02-1.12,4.02-2.7Z"/>
    <path class="st10" d="M469.64,74h-.98c.82-1.06.86-1.72.92-2.52-.94-.04-1.12-.46-1.12-1.42s.42-1.42,1.42-1.42,1.42.42,1.42,1.42c0,1.76-.74,3.22-1.66,3.94ZM472.94,74h-.98c.82-1.06.86-1.72.92-2.52-.94-.04-1.12-.46-1.12-1.42s.42-1.42,1.42-1.42,1.42.42,1.42,1.42c0,1.76-.74,3.22-1.66,3.94Z"/>
  </g>
</svg>