<?xml version="1.0" encoding="utf-8"?>
<!-- Generator: Adobe Illustrator 22.1.0, SVG Export Plug-In . SVG Version: 6.00 Build 0)  -->
<svg version="1.1" id="Layer_1" xmlns="http://www.w3.org/2000/svg" xmlns:xlink="http://www.w3.org/1999/xlink" x="0px" y="0px"
	 viewBox="0 0 630 222" style="enable-background:new 0 0 630 222;" xml:space="preserve">
<style type="text/css">
	.st0{clip-path:url(#SVGID_2_);fill:#EAF4F8;}
	.st1{clip-path:url(#SVGID_4_);}
	.st2{fill:#887B76;stroke:#756A64;stroke-width:2.1289;stroke-linejoin:round;stroke-miterlimit:10;}
	.st3{fill:#DDEFF4;stroke:#756A64;stroke-width:2.1294;stroke-linejoin:round;stroke-miterlimit:10;}
	.st4{fill:#FDF9F6;stroke:#756A64;stroke-width:2.0879;stroke-linejoin:round;stroke-miterlimit:10;}
	.st5{fill:#FDF9F6;stroke:#756A64;stroke-width:2.1493;stroke-miterlimit:10;}
	.st6{fill:#FDF9F6;stroke:#756A64;stroke-width:2.1493;stroke-linejoin:round;stroke-miterlimit:10;}
	.st7{fill:#756A64;}
	.st8{fill:#FFFFFF;}
	.st9{fill:none;stroke:#756A64;stroke-width:1.126;stroke-linecap:round;stroke-miterlimit:10;}
	.st10{fill:none;stroke:#756A64;stroke-width:2.1294;stroke-linejoin:round;stroke-miterlimit:10;}
	.st11{fill:#FFFBF0;}
	.st12{fill:#C2B8A6;}
	.st13{enable-background:new    ;}
	.st14{fill:#55463E;}
</style>
<g>
	<g>
		<defs>
			<circle id="SVGID_1_" cx="77.5" cy="140" r="71.5"/>
		</defs>
		<clipPath id="SVGID_2_">
			<use xlink:href="#SVGID_1_"  style="overflow:visible;"/>
		</clipPath>
		<circle class="st0" cx="77.5" cy="140" r="71.5"/>
	</g>
	<g>
		<defs>
			<circle id="SVGID_3_" cx="77.5" cy="140" r="71.5"/>
		</defs>
		<clipPath id="SVGID_4_">
			<use xlink:href="#SVGID_3_"  style="overflow:visible;"/>
		</clipPath>
		<g class="st1">
			<path class="st2" d="M112.4,120.3c-3-38.7-35.1-34.8-35.1-34.8s-31.9-3.9-35,34.8c-1.6,19.3,16.8,29,35.1,29
				C95.7,149.2,113.9,139.6,112.4,120.3z"/>
			<path class="st3" d="M101.5,193.7c-4.7-30-18.2-30-18.2-30h-5.8h-5.8c0,0-14.5,0-18.3,30c0,0-1.6,13.6-0.5,19.6h24.5H102
				C103.1,207.3,101.5,193.7,101.5,193.7z"/>
			<path class="st4" d="M84,163.6v-5.7H71v5.7C71.1,163.6,76.2,167.5,84,163.6z"/>
			<path class="st5" d="M105.3,124.1c0,0,5.3-8,9.3-3.2s-1.8,12.7-1.8,12.7s-2.5,4.2-8.2,6.2C104.6,139.7,105.1,136.5,105.3,124.1z"
				/>
			<path class="st5" d="M49.7,124.1c0,0-5.3-8-9.3-3.2s1.8,12.7,1.8,12.7s2.5,4.2,8.2,6.2C50.4,139.7,49.9,136.5,49.7,124.1z"/>
			<path class="st6" d="M104.8,124.6c-10.7,9.1-19.2,0-19.2,0c-9,8.8-17.6,0-17.6,0c-9.6,7.4-18.1,0-18.1,0s-5.3,36,27.4,36
				S104.8,124.6,104.8,124.6z"/>
			<g>
				<path class="st7" d="M69.9,136.2c0,2.2-1.6,4-3.6,4s-3.6-1.8-3.6-4s1.6-4,3.6-4C68.3,132.1,69.9,133.9,69.9,136.2"/>
				<path class="st8" d="M67.6,135c0,0.5-0.5,1-1.3,1s-1.3-0.4-1.3-1c0-0.5,0.5-1,1.3-1S67.6,134.4,67.6,135"/>
				<path class="st8" d="M67.3,137.8c0,0.4-0.4,0.8-0.9,0.8s-0.9-0.3-0.9-0.8c0-0.4,0.4-0.8,0.9-0.8
					C66.9,137.1,67.3,137.4,67.3,137.8"/>
			</g>
			<g>
				<path class="st7" d="M92.5,136.2c0,2.2-1.6,4-3.6,4s-3.6-1.8-3.6-4s1.6-4,3.6-4C91,132.1,92.5,133.9,92.5,136.2"/>
				<path class="st8" d="M90.2,135c0,0.5-0.5,1-1.3,1s-1.3-0.4-1.3-1c0-0.5,0.5-1,1.3-1S90.2,134.4,90.2,135"/>
				<path class="st8" d="M89.9,137.8c0,0.4-0.4,0.8-0.9,0.8s-0.9-0.3-0.9-0.8c0-0.4,0.4-0.8,0.9-0.8
					C89.5,137.1,89.9,137.4,89.9,137.8"/>
			</g>
			<path class="st9" d="M69.8,120.5c-1.2-1.4-3.7-2.4-6.7-2.4c-3,0-5.7,0.9-6.7,2.4"/>
			<path class="st9" d="M85.1,120.5c1.2-1.4,3.7-2.4,6.7-2.4s5.7,0.9,6.7,2.4"/>
			<path class="st3" d="M66,164.8l2.9-4.3l8.4,4.6c0,0-3.1,6.3-3.6,6.3C73.8,171.5,68.9,168.7,66,164.8z"/>
			<path class="st3" d="M88.7,164.8l-2.9-4.3l-8.4,4.6c0,0,3.1,6.3,3.6,6.3C80.9,171.5,85.9,168.7,88.7,164.8z"/>
			<line class="st10" x1="77.4" y1="166.1" x2="77.4" y2="213.4"/>
		</g>
	</g>
</g>
<g>
	<path class="st11" d="M133.1,123.1c-0.4,0-0.8-0.3-1.1-0.7c-0.2-0.3-0.3-0.7,0.1-1.2l15-24.1c0.6-1,0.6-2.2,0.1-3.2
		c-2.2-4.2-3.3-8.7-3.3-13.4V42.6c0-17.2,14-31.3,31.3-31.3h416.4c17.2,0,31.3,14,31.3,31.3v35.7c0,17.2-14,31.3-31.3,31.3H173
		c-4,0-7.8-0.8-11.4-2.3c-0.4-0.2-0.9-0.3-1.3-0.3c-0.6,0-1.2,0.2-1.7,0.5L133.8,123C133.5,123,133.3,123.1,133.1,123.1L133.1,123.1
		z"/>
	<path class="st12" d="M591.6,12.4c16.7,0,30.3,13.6,30.3,30.3v35.7c0,16.7-13.6,30.3-30.3,30.3H173c-3.8,0-7.5-0.8-11-2.3
		c-0.5-0.2-1.1-0.4-1.7-0.4c-0.8,0-1.6,0.2-2.2,0.6l-24.8,15.5h-0.1c0,0-0.1-0.1-0.2-0.1c0,0,0-0.1,0-0.2l15-24.1
		c0.8-1.3,0.8-2.9,0.1-4.2c-2.1-4-3.2-8.4-3.2-12.9v-38c0-16.7,13.6-30.3,30.3-30.3L591.6,12.4 M591.6,10.4H175.2
		c-17.8,0-32.3,14.4-32.3,32.3v37.9c0,5,1.2,9.7,3.4,13.9c0.4,0.7,0.4,1.5-0.1,2.2l-15,24.1c-1,1.6,0.3,3.4,1.9,3.4
		c0.4,0,0.8-0.1,1.2-0.4l24.8-15.5c0.4-0.2,0.8-0.3,1.2-0.3c0.3,0,0.6,0.1,0.9,0.2c3.6,1.6,7.6,2.4,11.8,2.4h418.6
		c17.8,0,32.3-14.4,32.3-32.3V42.6C623.9,24.8,609.4,10.4,591.6,10.4L591.6,10.4L591.6,10.4z"/>
</g>
<g class="st13">
	<path class="st14" d="M269.3,40.6h1c-0.8,1.1-0.9,1.7-0.9,2.5c0.9,0,1.1,0.5,1.1,1.4c0,1-0.4,1.4-1.4,1.4c-1,0-1.4-0.4-1.4-1.4
		C267.7,42.8,268.4,41.4,269.3,40.6z M272.6,40.6h1c-0.8,1.1-0.9,1.7-0.9,2.5c0.9,0,1.1,0.5,1.1,1.4c0,1-0.4,1.4-1.4,1.4
		c-1,0-1.4-0.4-1.4-1.4C271,42.8,271.7,41.4,272.6,40.6z"/>
	<path class="st14" d="M279.6,45c0-2.5,1.5-4.6,4.7-4.6c3.2,0,4.7,2,4.7,4.6s-1.5,4.6-4.7,4.6C281.1,49.6,279.6,47.5,279.6,45z
		 M287,45c0-1.7-0.7-2.8-2.7-2.8c-2,0-2.7,1.1-2.7,2.8s0.7,2.8,2.7,2.8C286.3,47.8,287,46.6,287,45z M282.6,56.7v-5.2h2V56h9.7v1.8
		h-10.6C283,57.8,282.6,57.4,282.6,56.7z M293.7,44.8h2.9v1.8h-2.9v5.9h-2V39.7h2V44.8z"/>
	<path class="st14" d="M302.6,40.1l1.9,0.2c-0.3,1.2-0.9,2.6-1.7,4c1.1,2.2,2.6,2.6,5.1,3.2l-0.8,1.9c-2.8-0.6-4.6-1.6-5.3-3.5
		c-0.9,1.1-2,2.3-3.2,3.3l-1.5-1.2C300.1,45.5,302.1,42.6,302.6,40.1z M301.2,56.7v-6h11.1v7.1h-10
		C301.6,57.8,301.2,57.4,301.2,56.7z M310.3,56v-3.5h-7.1V56H310.3z M312.3,49.9h-2V39.7h2V49.9z"/>
	<path class="st14" d="M325.1,45.9h-2.6c0.9,0.6,1.6,1.6,1.6,3c0,2.6-1.3,4.7-4.2,4.7c-2.9,0-4.2-2.2-4.2-4.7c0-1.4,0.7-2.4,1.6-3
		h-2.7v-1.8h10.5V45.9z M323.3,40.6v1.8c-1.5,0-4.8,0-6.5-0.5l0.6-1.7C318.8,40.6,321.7,40.6,323.3,40.6z M322.1,48.9
		c0-1.7-0.6-2.9-2.2-2.9c-1.6,0-2.2,1.2-2.2,2.9c0,1.8,0.6,2.9,2.2,2.9C321.5,51.8,322.1,50.7,322.1,48.9z M328.9,46.8h2.9v1.8h-2.9
		v8.7h-2V39.7h2V46.8z"/>
	<path class="st14" d="M332.3,55.2v-1.8h6.2v-6.1h2v6.1h8.2v1.8H332.3z M345.2,50.9l-1.9-0.3c0.7-2.1,1.2-4.5,1-7.8h-9.7V41h11.7
		C346.5,44.9,346.2,48.4,345.2,50.9z"/>
	<path class="st14" d="M354.8,47.9v-7.2h8.3V49h-7.2C355.2,49,354.8,48.6,354.8,47.9z M361.1,47.2v-4.6h-4.3v4.6H361.1z M369.1,50.9
		v6.9h-2v-5.1H358v-1.8H369.1z M369.1,49.9h-2v-4.3h-3.3v-1.8h3.3v-4.1h2V49.9z"/>
	<path class="st14" d="M371.5,48.9v-1.6h16.4v1.6H371.5z M373.7,42.9c0-1.8,1.4-3.3,6-3.3c4.6,0,6,1.5,6,3.3c0,1.8-1.4,3.2-6,3.2
		C375.1,46.1,373.7,44.7,373.7,42.9z M373.9,56.7v-3.6h9.6V52h-9.6v-1.7h11.6v4.6h-9.6v1.1h10.2v1.7H375
		C374.3,57.8,373.9,57.4,373.9,56.7z M383.7,42.9c0-0.8-0.7-1.5-4-1.5c-3.3,0-4,0.7-4,1.5c0,0.7,0.7,1.4,4,1.4
		C383,44.3,383.7,43.6,383.7,42.9z"/>
	<path class="st14" d="M402.3,51.5v6h-2v-6h-7.2v-1.8h16.4v1.8H402.3z M402,39.7l2,0.2c-0.3,1.1-1,2.4-1.9,3.6
		c1.8,1.6,3.3,2.3,6.4,3.1l-0.8,1.8c-3.2-0.9-5.2-1.6-6.8-3.6c-1.5,1.4-3.4,2.7-5.6,3.6l-0.8-1.6C398.6,45.2,401,42.4,402,39.7z"/>
	<path class="st14" d="M415.2,44.8c0-2.5,1.5-4.4,4.7-4.4c3.2,0,4.7,2,4.7,4.4s-1.5,4.5-4.7,4.5C416.7,49.3,415.2,47.3,415.2,44.8z
		 M421.2,50.6l2.1,0.2c-0.3,1-0.8,2.2-1.5,3.3c0.5,0.7,1.1,1.3,1.9,1.6c2.2-1.4,3.3-3.3,3.8-5.1l2.2,0.2c-0.3,1-0.8,2.1-1.5,3.1
		c1,1.2,2.4,1.9,3.7,2.4l-1.1,1.8c-1.3-0.6-2.6-1.3-3.7-2.8c-0.9,1-1.9,1.9-3.2,2.6c-1.4-0.4-2.3-1-3.2-2.4
		c-0.8,0.9-1.7,1.7-2.8,2.3l-1.4-1.4C418.9,55.2,420.7,52.6,421.2,50.6z M422.6,44.8c0-1.6-0.7-2.6-2.7-2.6c-2,0-2.7,1-2.7,2.6
		c0,1.6,0.7,2.7,2.7,2.7S422.6,46.4,422.6,44.8z M429.9,49.9h-2V39.7h2V49.9z"/>
	<path class="st14" d="M432.3,50.2v-1.8h16.4v1.8H432.3z M434.6,56.7v-4.6h2V56h10.1v1.8h-11C435,57.8,434.6,57.4,434.6,56.7z
		 M434.8,45.6v-5.5h2v4.8h9.5v1.8h-10.4C435.2,46.7,434.8,46.3,434.8,45.6z"/>
	<path class="st14" d="M454.4,41.5h7.6c-0.3,2.8-1.4,5.1-2.8,6.9c0.8,1.5,1.8,2,3.5,2.7l-1,1.8c-1.8-0.8-2.8-1.3-3.8-2.9
		c-0.9,0.9-1.8,1.8-2.8,2.5l-1.6-1.4c2.2-1.8,4.8-4.1,5.9-7.9h-5.1V41.5z M465.3,46.3h2.2v-6.7h2v17.7h-2v-9.2h-2.2v8.4h-2V39.9h2
		V46.3z"/>
	<path class="st14" d="M473.9,49.6v-4.8h9.5v-2.2h-9.5v-1.8h11.5v5.9h-9.5v2.2H486v1.8h-2.3v2.7h4.3v1.8h-16.4v-1.8h4.4v-2.7H475
		C474.3,50.7,473.9,50.3,473.9,49.6z M481.7,53.4v-2.7h-3.7v2.7H481.7z"/>
	<path class="st14" d="M491.5,49.6v-4.8h9.5v-2.2h-9.5v-1.8H503v5.9h-9.5v2.2h10.1v1.8h-5.2v2.7h7.2v1.8h-16.4v-1.8h7.2v-2.7h-3.7
		C491.9,50.7,491.5,50.3,491.5,49.6z"/>
</g>
<g class="st13">
	<path class="st14" d="M254.9,76.4v-7.7h8.3v8.8H256C255.3,77.5,254.9,77.1,254.9,76.4z M261.1,75.7v-5.2h-4.3v5.2H261.1z
		 M257.3,84.7v-5.2h2V84h9.7v1.8h-10.6C257.7,85.8,257.3,85.4,257.3,84.7z M268.4,72.8h2.9v1.8h-2.9v5.9h-2V67.7h2V72.8z"/>
	<path class="st14" d="M271.8,78.6v-1.8h16.4v1.8H271.8z M274.1,84.7v-4.6h2V84h10.1v1.8h-11C274.5,85.8,274.1,85.4,274.1,84.7z
		 M274.2,73.9v-5.9h11.5v1.8h-9.5v3.3h9.5V75h-10.5C274.6,75,274.2,74.6,274.2,73.9z"/>
	<path class="st14" d="M300.3,71v-0.7h-6.1v-1.8h8.1V71c0,3.7-2.6,6.4-8,7.2l-0.6-1.7C298.3,75.9,300.3,74,300.3,71z M297.5,84.7
		v-5.2h2V84h9.7v1.8h-10.6C297.9,85.8,297.5,85.4,297.5,84.7z M308.6,80.5h-2v-6.1h-3.8v-1.8h3.8v-4.9h2V80.5z"/>
	<path class="st14" d="M317.9,70.9v-0.6h-6.1v-1.8h8.1v2.4c0,3.4-2.6,6.2-8,6.9l-0.6-1.7C315.9,75.5,317.9,73.6,317.9,70.9z
		 M313.9,82.4c0-2.1,1.3-4,5.7-4c4.4,0,5.7,1.9,5.7,4c0,2.1-1.3,4-5.7,4C315.1,86.4,313.9,84.4,313.9,82.4z M323.2,82.4
		c0-1.4-0.7-2.2-3.7-2.2s-3.7,0.9-3.7,2.2c0,1.3,0.7,2.2,3.7,2.2C322.5,84.6,323.2,83.7,323.2,82.4z M325.2,71.8h2.9v1.8h-2.9v4.3
		h-2V67.7h2V71.8z"/>
	<path class="st14" d="M339,73.1h-2.3c0.7,0.5,1.2,1.2,1.2,2.2c0,2.1-1.3,4-4.2,4c-2.9,0-4.2-1.8-4.2-4c0-1,0.5-1.7,1.2-2.2h-2.3
		v-1.8H339V73.1z M337.1,68.2V70c-1.5,0-4.8,0-6.5-0.5l0.6-1.7C332.7,68.2,335.6,68.2,337.1,68.2z M335.9,75.3
		c0-1.3-0.6-2.1-2.2-2.1c-1.6,0-2.2,0.9-2.2,2.1c0,1.3,0.6,2.2,2.2,2.2C335.4,77.5,335.9,76.6,335.9,75.3z M331.7,84.7v-4.2h2V84
		h9.7v1.8h-10.6C332.1,85.8,331.7,85.4,331.7,84.7z M342.8,72.8h2.9v1.8h-2.9v5.9h-2V67.7h2V72.8z"/>
	<path class="st14" d="M357.1,71v-0.7H351v-1.8h8.1V71c0,3.7-2.6,6.4-8,7.2l-0.6-1.7C355.1,75.9,357.1,74,357.1,71z M353.3,84.7
		v-5.2h2V84h9.7v1.8h-10.6C353.7,85.8,353.3,85.4,353.3,84.7z M364.4,72.8h2.9v1.8h-2.9v5.9h-2V67.7h2V72.8z"/>
	<path class="st14" d="M373.3,68.1l1.9,0.2c-0.3,1.2-0.9,2.6-1.7,4c1.1,2.2,2.6,2.6,5.1,3.2l-0.8,1.9c-2.8-0.6-4.6-1.6-5.3-3.5
		c-0.9,1.1-2,2.3-3.2,3.3l-1.5-1.2C370.8,73.5,372.7,70.6,373.3,68.1z M383,78.9v6.9h-2v-5.1h-9.1v-1.8H383z M383,77.9h-2V67.7h2
		V77.9z"/>
	<path class="st14" d="M385.4,76.9v-1.6h16.4v1.6H385.4z M387.5,70.9c0-1.8,1.4-3.3,6-3.3c4.6,0,6,1.5,6,3.3c0,1.8-1.4,3.2-6,3.2
		C388.9,74.1,387.5,72.7,387.5,70.9z M387.8,84.7v-3.6h9.6V80h-9.6v-1.7h11.6v4.6h-9.6v1.1H400v1.7h-11.1
		C388.2,85.8,387.8,85.4,387.8,84.7z M397.6,70.9c0-0.8-0.7-1.5-4-1.5c-3.3,0-4,0.7-4,1.5c0,0.7,0.7,1.4,4,1.4
		C396.9,72.3,397.6,71.6,397.6,70.9z"/>
	<path class="st14" d="M407.9,75.9v-7.2h8.3V77H409C408.3,77,407.9,76.6,407.9,75.9z M414.1,75.2v-4.6h-4.3v4.6H414.1z M422.2,78.9
		v6.9h-2v-5.1h-9.1v-1.8H422.2z M422.2,77.9h-2v-4.3h-3.3v-1.8h3.3v-4.1h2V77.9z"/>
	<path class="st14" d="M424.6,83.2v-1.8h6.2v-6.1h2v6.1h8.2v1.8H424.6z M437.4,78.9l-1.9-0.3c0.7-2.1,1.2-4.5,1-7.8h-9.7V69h11.7
		C438.8,72.9,438.4,76.4,437.4,78.9z"/>
	<path class="st14" d="M451.7,68.1l1.9,0.2c-0.3,1.1-0.9,2.3-1.7,3.7c1.1,2.2,2.6,2.5,5,3l-0.8,1.9c-2.8-0.6-4.6-1.5-5.3-3.4
		c-0.9,1.1-2,2.2-3.2,3.2l-1.5-1.2C449.2,73.2,451.1,70.3,451.7,68.1z M452,84c-0.5-1.4-0.7-2.5-0.7-3.1l1.9-0.1
		c0,0.5,0,1.7,0.3,3.2h3.6c0.3-1.6,0.3-2.7,0.3-3.2l1.9,0.1c0,0.6-0.2,1.8-0.7,3.1h3v1.8h-12.6V84H452z M461.4,78.3v1.8h-12v-1.8
		H461.4z M461.4,77.5h-2v-9.9h2V77.5z"/>
	<path class="st14" d="M464.1,74.8c0-3.2,1.4-6,4.7-6s4.7,2.8,4.7,6c0,3.2-1.4,6.1-4.7,6.1C465.4,80.8,464.1,78,464.1,74.8z
		 M471.5,74.8c0-2.5-0.8-4.2-2.7-4.2c-1.9,0-2.7,1.7-2.7,4.2c0,2.5,0.8,4.3,2.7,4.3C470.7,79,471.5,77.3,471.5,74.8z M479,85.3h-2
		v-9.7h-3v-1.8h3v-6.1h2V85.3z"/>
	<path class="st14" d="M481.4,83.2v-1.8h4.4v-3.3h2v3.3h3.7v-3.3h2v3.3h4.3v1.8H481.4z M483.5,73.2c0-2.4,1.3-4.6,6-4.6
		c4.7,0,6,2.2,6,4.6c0,2.3-1.4,4.5-6,4.5C484.9,77.7,483.5,75.5,483.5,73.2z M493.6,73.2c0-1.7-0.8-2.8-4-2.8c-3.3,0-4,1.1-4,2.8
		c0,1.6,0.8,2.7,4,2.7C492.8,75.9,493.6,74.8,493.6,73.2z"/>
	<path class="st14" d="M500.7,81.7c0-1,0.4-1.4,1.4-1.4s1.4,0.4,1.4,1.4s-0.4,1.4-1.4,1.4S500.7,82.7,500.7,81.7z M504.6,68.9
		l-1.8,9.6h-1.4l0.8-9.6H504.6z"/>
	<path class="st14" d="M513.2,74h-1c0.8-1.1,0.9-1.7,0.9-2.5c-0.9,0-1.1-0.5-1.1-1.4c0-1,0.4-1.4,1.4-1.4s1.4,0.4,1.4,1.4
		C514.8,71.8,514.1,73.3,513.2,74z M516.5,74h-1c0.8-1.1,0.9-1.7,0.9-2.5c-0.9,0-1.1-0.5-1.1-1.4c0-1,0.4-1.4,1.4-1.4
		s1.4,0.4,1.4,1.4C518.1,71.8,517.4,73.3,516.5,74z"/>
</g>
</svg>
