<?xml version="1.0" encoding="utf-8"?>
<!-- Generator: Adobe Illustrator 22.1.0, SVG Export Plug-In . SVG Version: 6.00 Build 0)  -->
<svg version="1.1" id="Filled_Expand" xmlns="http://www.w3.org/2000/svg" xmlns:xlink="http://www.w3.org/1999/xlink" x="0px"
	 y="0px" viewBox="0 0 50 50" style="enable-background:new 0 0 50 50;" xml:space="preserve">
<style type="text/css">
	.st0{fill:#FFFFFF;}
</style>
<path class="st0" d="M25,0.8c13.4,0,24.3,10.9,24.3,24.3c0,4.3-1.1,8.5-3.3,12.2l3.2,10.5c0.3,1-0.6,1.9-1.6,1.6L37.2,46
	c-3.7,2.1-7.9,3.3-12.2,3.3C11.6,49.2,0.8,38.4,0.8,25S11.6,0.7,25,0.8z M25,46.8c4,0,7.9-1.1,11.3-3.2c0.2-0.1,0.4-0.2,0.7-0.2
	c0.1,0,0.3,0,0.4,0.1l8.7,2.7l-2.7-8.7c-0.1-0.3-0.1-0.7,0.1-1c2.1-3.4,3.2-7.3,3.2-11.4C46.8,13,37,3.2,25,3.2S3.3,13,3.3,25
	S13,46.7,25,46.8z"/>
</svg>
