<?xml version="1.0" encoding="utf-8"?>
<!-- Generator: Adobe Illustrator 22.1.0, SVG Export Plug-In . SVG Version: 6.00 Build 0)  -->
<svg version="1.1" id="Layer_1" xmlns="http://www.w3.org/2000/svg" xmlns:xlink="http://www.w3.org/1999/xlink" x="0px" y="0px"
	 viewBox="0 0 512 512" style="enable-background:new 0 0 512 512;" xml:space="preserve">
<style type="text/css">
	.st0{fill:#FFFFFF;}
</style>
<path class="st0" d="M486.5,103.2c-14-22.1-34.2-39.2-58.3-49.3c-27.3-11.5-58-13.5-88.8-5.9c-29.4,7.2-58,23.3-83.4,46.6
	c-25.4-23.4-54-39.4-83.4-46.6c-30.8-7.6-61.5-5.5-88.8,5.9c-24.2,10.1-44.3,27.2-58.3,49.3c-14.6,23.1-22,51.2-21.5,81.3
	c0.8,45.4,26.3,93.2,78,146c42.2,43.2,94.3,81.6,132.3,109.6c13.4,9.9,25,18.5,34.2,25.8c2.2,1.7,4.8,2.6,7.4,2.6
	c2.7,0,5.4-0.9,7.6-2.7c9.9-8.1,23.1-18,38.5-29.5c37.4-27.9,88.6-66.1,129.8-108.6c50.4-51.9,75.2-98.8,76-143.2
	C508.5,154.4,501.1,126.3,486.5,103.2L486.5,103.2z M484,184.1c-1.6,87.8-123.4,178.7-196.2,233c-12.1,9-22.8,17-31.9,24.1
	c-8-6.1-17.1-12.8-27.3-20.4C154.2,366,29.7,274.1,28,184.1C27.1,133.9,51.4,93.5,93.1,76c13.7-5.8,28.2-8.6,43.1-8.6
	c37.9,0,77.8,18.2,111.3,52.2c2.3,2.3,5.3,3.6,8.6,3.6s6.3-1.3,8.6-3.6C311.1,72.4,370.3,55.6,418.9,76
	C460.5,93.5,484.9,133.9,484,184.1L484,184.1z"/>
</svg>
