<?xml version="1.0" encoding="utf-8"?>
<!-- Generator: Adobe Illustrator 22.1.0, SVG Export Plug-In . SVG Version: 6.00 Build 0)  -->
<svg version="1.1" id="Layer_1" xmlns="http://www.w3.org/2000/svg" xmlns:xlink="http://www.w3.org/1999/xlink" x="0px" y="0px"
	 viewBox="0 0 512 512" style="enable-background:new 0 0 512 512;" xml:space="preserve">
<style type="text/css">
	.st0{fill:#FFFFFF;}
</style>
<path class="st0" d="M499.5,12.5c-3.2-3.2-8-4.3-12.3-2.9l-470,157.7c-4.6,1.5-7.8,5.7-8.1,10.5s2.2,9.4,6.5,11.6l202.9,104.3
	l104.3,202.9c2.1,4,6.2,6.5,10.7,6.5c0.3,0,0.6,0,0.9,0c4.8-0.4,8.9-3.6,10.5-8.1l157.7-470C503.8,20.5,502.7,15.7,499.5,12.5
	L499.5,12.5z M51.8,181L446.4,48.6L225,270L51.8,181z M331,460.2L242,287L463.4,65.6L331,460.2z"/>
</svg>
