<?xml version="1.0" encoding="utf-8"?>
<!-- Generator: Adobe Illustrator 22.1.0, SVG Export Plug-In . SVG Version: 6.00 Build 0)  -->
<svg version="1.1" id="Capa_1" xmlns="http://www.w3.org/2000/svg" xmlns:xlink="http://www.w3.org/1999/xlink" x="0px" y="0px"
	 viewBox="0 0 512 512" style="enable-background:new 0 0 512 512;" xml:space="preserve">
<style type="text/css">
	.st0{fill:#C9B39D;}
</style>
<g>
	<path class="st0" d="M256,0c-67-0.9-122.1,52.5-123.2,119.5v17.1H52.5c-15.5,0.1-30.2,7.2-39.9,19.3C1.8,169.1-2.3,186.5,1.3,203.2
		l55,265.5c4.5,24.8,26,43,51.2,43.3h297c25.2-0.3,46.7-18.5,51.2-43.3l55-265.4c3.6-16.7-0.6-34.1-11.3-47.4
		c-9.7-12.1-24.4-19.2-39.9-19.3h-80.3v-17.1C378.1,52.5,323-0.9,256,0z M166.9,119.5c1.1-48.1,40.9-86.3,89.1-85.3
		c48.1-0.9,87.9,37.2,89.1,85.3v17.1H166.9V119.5z M459.5,170.7c5.3,0.1,10.2,2.5,13.4,6.7c4.2,5.3,5.9,12.3,4.4,18.9l-55,265.5
		c-1.3,8.9-8.8,15.7-17.8,16.1h-297c-9-0.4-16.5-7.2-17.8-16.1l-55-265.5c-1.4-6.6,0.2-13.6,4.4-18.9c3.2-4.1,8.2-6.6,13.4-6.7h80.3
		V256c0,9.4,7.6,17.1,17.1,17.1S167,265.5,167,256v-85.3h178.1V256c0,9.4,7.6,17.1,17.1,17.1s17.1-7.6,17.1-17.1v-85.3H459.5z"/>
</g>
</svg>
