<?xml version="1.0" encoding="utf-8"?>
<!-- Generator: Adobe Illustrator 22.1.0, SVG Export Plug-In . SVG Version: 6.00 Build 0)  -->
<svg version="1.1" id="Layer_1" xmlns="http://www.w3.org/2000/svg" xmlns:xlink="http://www.w3.org/1999/xlink" x="0px" y="0px"
	 viewBox="0 0 512 512" style="enable-background:new 0 0 512 512;" xml:space="preserve">
<style type="text/css">
	.st0{fill:#FFFFFF;}
</style>
<path class="st0" d="M390.9,126.4c8.3,0,15-6.7,15-15V15c0-8.3-6.7-15-15-15H278.5c-52.6,0-95.3,42.8-95.3,95.3v97.5H121
	c-8.3,0-15,6.7-15,15v96.4c0,8.3,6.7,15,15,15h62.1V497c0,8.3,6.7,15,15,15h96.4c8.3,0,15-6.7,15-15V319.2h62.1
	c7.2,0,13.3-5,14.7-12.1l19.3-96.4c0.9-4.4-0.3-9-3.1-12.5c-2.9-3.5-7.1-5.5-11.6-5.5h-81.4v-66.4L390.9,126.4L390.9,126.4z"/>
</svg>
