<?xml version="1.0" encoding="utf-8"?>
<!-- Generator: Adobe Illustrator 22.1.0, SVG Export Plug-In . SVG Version: 6.00 Build 0)  -->
<svg version="1.1" id="Layer_1" xmlns="http://www.w3.org/2000/svg" xmlns:xlink="http://www.w3.org/1999/xlink" x="0px" y="0px"
	 viewBox="0 0 28 34" style="enable-background:new 0 0 28 34;" xml:space="preserve">
<style type="text/css">
	.st0{fill:#BFA98A;}
</style>
<g>
	<path class="st0" d="M3.6,13.5h20.7c1.9,0,3.5,1.6,3.5,3.5v0c0,1.9-1.6,3.5-3.5,3.5H3.6c-1.9,0-3.5-1.6-3.5-3.5v0
		C0.1,15.1,1.7,13.5,3.6,13.5z"/>
	<path class="st0" d="M10.5,30.3V3.7c0-1.9,1.6-3.5,3.5-3.5h0c1.9,0,3.5,1.6,3.5,3.5v26.7c0,1.9-1.6,3.5-3.5,3.5h0
		C12,33.8,10.5,32.3,10.5,30.3z"/>
</g>
</svg>
