<?xml version="1.0" encoding="utf-8"?>
<!-- Generator: Adobe Illustrator 22.1.0, SVG Export Plug-In . SVG Version: 6.00 Build 0)  -->
<svg version="1.1" id="Layer_1" xmlns="http://www.w3.org/2000/svg" xmlns:xlink="http://www.w3.org/1999/xlink" x="0px" y="0px"
	 viewBox="0 0 154 117" style="enable-background:new 0 0 154 117;" xml:space="preserve">
<style type="text/css">
	.st0{fill:#B9A48F;}
	.st1{fill:#FFFFFF;}
</style>
<path class="st0" d="M5.1,46.9c0,0,15.7-45.3,74.4-45.5c55.1-0.2,72.9,36.7,72.9,57.8c0,18.3-6.7,49.2-49.3,54.6
	C66.2,118.4-17.2,112.3,5.1,46.9z"/>
<g>
	<path class="st1" d="M42.6,60.7h-3.1l-0.6,3.6h-1.6l0.6-3.6h-1.9l0.2-1.6h1.9l0.5-3.1h-1.9l0.2-1.6h1.9l0.6-3.6h1.6l-0.6,3.6h3.1
		l0.6-3.6h1.6l-0.6,3.6h2l-0.3,1.6h-2l-0.5,3.1h1.9l-0.3,1.6h-1.9l-0.6,3.6H42L42.6,60.7z M42.8,59.2l0.5-3.1h-3.1l-0.5,3.1H42.8z"
		/>
	<path class="st1" d="M48.7,50.9h4.9c0.9,0,1.7,0.2,2.3,0.5c0.6,0.3,1.1,0.7,1.4,1.3c0.3,0.5,0.5,1.1,0.5,1.8c0,0.8-0.2,1.4-0.6,1.9
		c-0.4,0.5-1,0.8-1.6,1v0.1c0.5,0,0.9,0.2,1.3,0.4c0.4,0.3,0.8,0.7,1,1.1c0.3,0.5,0.4,1.1,0.4,1.7c0,0.7-0.2,1.3-0.5,1.9
		c-0.3,0.5-0.8,1-1.5,1.3c-0.7,0.3-1.5,0.5-2.5,0.5h-5.1V50.9z M54.6,56.4c0.4-0.2,0.7-0.4,0.9-0.7c0.2-0.3,0.3-0.7,0.3-1.1
		c0-0.6-0.2-1.1-0.6-1.4c-0.4-0.4-1-0.5-1.8-0.5h-2.7v4.1h2.7C53.9,56.7,54.3,56.6,54.6,56.4z M55.7,62.1c0.4-0.4,0.7-0.8,0.7-1.4
		c0-0.4-0.1-0.8-0.3-1.2c-0.2-0.4-0.5-0.6-0.9-0.8c-0.4-0.2-0.9-0.3-1.4-0.3h-3v4.3h2.9C54.5,62.6,55.2,62.4,55.7,62.1z"/>
	<path class="st1" d="M67.4,51.3c0.8,0.4,1.4,1.1,1.9,2c0.5,1,0.7,2.2,0.7,3.8c0,1.6-0.2,2.9-0.6,4c-0.4,1.1-1,2-1.8,2.5
		c-0.8,0.6-1.7,0.9-2.8,0.9c-0.8,0-1.5-0.2-2.2-0.5c-0.6-0.3-1.2-0.7-1.6-1.3c-0.4-0.6-0.7-1.2-0.8-1.9h2c0.1,0.6,0.4,1.1,0.9,1.4
		c0.4,0.3,1,0.5,1.6,0.5c0.7,0,1.3-0.2,1.8-0.6c0.5-0.4,0.9-0.9,1.1-1.7c0.3-0.7,0.4-1.6,0.4-2.6h-0.2c-0.4,0.6-0.8,1-1.5,1.3
		c-0.6,0.3-1.3,0.5-2,0.5c-0.8,0-1.5-0.2-2.2-0.6s-1.2-0.9-1.6-1.6c-0.4-0.7-0.6-1.4-0.6-2.3c0-0.8,0.2-1.6,0.6-2.3
		c0.4-0.7,1-1.2,1.7-1.6c0.7-0.4,1.6-0.6,2.5-0.6C65.8,50.7,66.7,50.9,67.4,51.3z M63.5,52.8c-0.4,0.3-0.8,0.6-1,1
		c-0.2,0.4-0.4,0.9-0.4,1.4c0,0.5,0.1,1,0.4,1.4c0.2,0.4,0.6,0.8,1,1c0.4,0.2,0.9,0.4,1.4,0.4c0.5,0,1-0.1,1.4-0.4s0.8-0.6,1-1
		c0.3-0.4,0.4-0.9,0.4-1.4c0-0.5-0.1-0.9-0.4-1.4c-0.2-0.4-0.6-0.8-1-1c-0.4-0.3-0.9-0.4-1.5-0.4S64,52.6,63.5,52.8z"/>
	<path class="st1" d="M71.4,64.3l4.8-13.4h2.4l4.8,13.4h-2.2L80,60.8h-5.2l-1.2,3.5H71.4z M79.4,59.1l-2-5.7h-0.1l-2,5.7H79.4z"/>
	<path class="st1" d="M84.6,60.1l5.9-9.2h2.5V60h1.8v1.7h-1.8v2.6h-1.9v-2.6h-6.5V60.1z M91.1,60v-6.7H91l-4.2,6.5V60H91.1z"/>
	<path class="st1" d="M99.1,64c-0.8-0.3-1.3-0.8-1.8-1.3c-0.4-0.6-0.6-1.2-0.6-1.9c0-0.6,0.1-1.1,0.4-1.6c0.2-0.5,0.6-0.9,1-1.2
		c0.4-0.3,0.9-0.5,1.4-0.6v-0.1c-0.5-0.1-0.9-0.3-1.2-0.6c-0.3-0.3-0.6-0.6-0.8-1.1c-0.2-0.4-0.3-0.9-0.3-1.4c0-0.7,0.2-1.3,0.6-1.8
		c0.4-0.5,0.9-1,1.6-1.3c0.7-0.3,1.4-0.5,2.3-0.5c0.8,0,1.6,0.2,2.3,0.5c0.7,0.3,1.2,0.7,1.6,1.3c0.4,0.5,0.6,1.2,0.6,1.8
		c0,0.5-0.1,0.9-0.3,1.4c-0.2,0.4-0.5,0.8-0.8,1.1c-0.3,0.3-0.7,0.5-1.2,0.6v0.1c0.5,0.1,1,0.3,1.4,0.6c0.4,0.3,0.8,0.7,1,1.2
		c0.3,0.5,0.4,1,0.4,1.6c0,0.7-0.2,1.4-0.6,1.9c-0.4,0.6-1,1-1.8,1.3s-1.6,0.5-2.5,0.5C100.7,64.5,99.8,64.4,99.1,64z M103.2,62.6
		c0.4-0.2,0.8-0.4,1-0.8c0.2-0.3,0.4-0.7,0.4-1.2c0-0.5-0.1-0.9-0.4-1.2s-0.6-0.6-1-0.9s-0.9-0.3-1.5-0.3c-0.6,0-1,0.1-1.5,0.3
		s-0.8,0.5-1,0.9s-0.4,0.8-0.3,1.2c0,0.4,0.1,0.8,0.3,1.2c0.2,0.3,0.6,0.6,1,0.8c0.4,0.2,0.9,0.3,1.5,0.3
		C102.2,62.8,102.7,62.7,103.2,62.6z M102.9,56.3c0.4-0.2,0.7-0.4,0.9-0.7c0.2-0.3,0.3-0.7,0.3-1.1c0-0.4-0.1-0.8-0.3-1.1
		c-0.2-0.3-0.5-0.6-0.9-0.7c-0.4-0.2-0.8-0.3-1.3-0.3c-0.5,0-0.9,0.1-1.3,0.3c-0.4,0.2-0.7,0.4-0.9,0.7c-0.2,0.3-0.3,0.7-0.3,1.1
		c0,0.4,0.1,0.8,0.3,1.1c0.2,0.3,0.5,0.6,0.9,0.7c0.4,0.2,0.8,0.3,1.3,0.3C102.1,56.6,102.5,56.5,102.9,56.3z"/>
	<path class="st1" d="M108.9,50.9h8.3v1.8h-6.3v4.1h5.7v1.7h-5.7v5.9h-2V50.9z"/>
</g>
</svg>
