<?xml version="1.0" encoding="utf-8"?>
<!-- Generator: Adobe Illustrator 22.1.0, SVG Export Plug-In . SVG Version: 6.00 Build 0)  -->
<svg version="1.1" id="Layer_1" xmlns="http://www.w3.org/2000/svg" xmlns:xlink="http://www.w3.org/1999/xlink" x="0px" y="0px"
	 viewBox="0 0 154 117" style="enable-background:new 0 0 154 117;" xml:space="preserve">
<style type="text/css">
	.st0{fill:#FFFAED;}
	.st1{fill:#8D7C75;}
</style>
<path class="st0" d="M5.1,46.9c0,0,15.7-45.3,74.4-45.5c55.1-0.2,72.9,36.7,72.9,57.8c0,18.3-6.7,49.2-49.3,54.6
	C66.2,118.4-17.2,112.3,5.1,46.9z"/>
<g>
	<path class="st1" d="M42.6,60.7h-3.1l-0.6,3.6h-1.6l0.6-3.6h-1.9l0.2-1.6h1.9l0.5-3.1h-1.9l0.2-1.6h1.9l0.6-3.6h1.6l-0.6,3.6h3.1
		l0.6-3.6h1.6l-0.6,3.6h2l-0.3,1.6h-2l-0.5,3.1h1.9l-0.3,1.6h-1.9l-0.6,3.6H42L42.6,60.7z M42.8,59.2l0.5-3.1h-3.1l-0.5,3.1H42.8z"
		/>
	<path class="st1" d="M48.7,50.9H57v1.8h-6.3v4.1h5.7v1.7h-5.7v5.9h-2V50.9z"/>
	<path class="st1" d="M59.3,50.9h8.3v1.8h-6.3v4.1H67v1.7h-5.7v5.9h-2V50.9z"/>
	<path class="st1" d="M69.9,50.9h8.3v1.8h-6.3v4.1h5.7v1.7h-5.7v5.9h-2V50.9z"/>
	<path class="st1" d="M77.8,64.3l4.8-13.4H85l4.8,13.4h-2.2l-1.2-3.5h-5.2L80,64.3H77.8z M85.8,59.1l-2-5.7h-0.1l-2,5.7H85.8z"/>
	<path class="st1" d="M91.5,50.9h8.4v1.8h-6.4v4.1h5.9v1.7h-5.9v4.1h6.5v1.8h-8.5V50.9z"/>
	<path class="st1" d="M110.9,53.8c-0.3-0.4-0.7-0.7-1.2-0.9c-0.5-0.2-1-0.3-1.6-0.3c-0.8,0-1.5,0.2-2.1,0.6c-0.6,0.4-1.1,1-1.4,1.7
		c-0.3,0.8-0.5,1.7-0.5,2.7s0.2,2,0.5,2.7c0.3,0.8,0.8,1.3,1.4,1.7s1.3,0.6,2.1,0.6c0.6,0,1.1-0.1,1.6-0.3s0.9-0.5,1.2-0.9
		c0.3-0.4,0.6-0.9,0.7-1.4l2.1,0c-0.1,0.9-0.5,1.7-1,2.3s-1.2,1.2-1.9,1.6c-0.8,0.4-1.7,0.6-2.6,0.6c-1.2,0-2.2-0.3-3.1-0.8
		c-0.9-0.6-1.6-1.4-2.1-2.4c-0.5-1-0.8-2.3-0.8-3.7s0.3-2.6,0.8-3.7c0.5-1,1.2-1.8,2.2-2.4s2-0.8,3.1-0.8c0.9,0,1.8,0.2,2.6,0.5
		c0.8,0.4,1.4,0.9,1.9,1.6s0.8,1.5,1,2.4h-2.1C111.4,54.7,111.2,54.2,110.9,53.8z"/>
</g>
</svg>
