<?xml version="1.0" encoding="utf-8"?>
<!-- Generator: Adobe Illustrator 22.1.0, SVG Export Plug-In . SVG Version: 6.00 Build 0)  -->
<svg version="1.1" id="Layer_1" xmlns="http://www.w3.org/2000/svg" xmlns:xlink="http://www.w3.org/1999/xlink" x="0px" y="0px"
	 viewBox="0 0 154 117" style="enable-background:new 0 0 154 117;" xml:space="preserve">
<style type="text/css">
	.st0{fill:#8D7C75;}
	.st1{fill:#FFFFFF;}
</style>
<path class="st0" d="M5.1,46.9c0,0,15.7-45.3,74.4-45.5c55.1-0.2,72.9,36.7,72.9,57.8c0,18.3-6.7,49.2-49.3,54.6
	C66.2,118.4-17.2,112.3,5.1,46.9z"/>
<g>
	<path class="st1" d="M42.6,60.7h-3.1l-0.6,3.6h-1.6l0.6-3.6h-1.9l0.2-1.6h1.9l0.5-3.1h-1.9l0.2-1.6h1.9l0.6-3.6h1.6l-0.6,3.6h3.1
		l0.6-3.6h1.6l-0.6,3.6h2l-0.3,1.6h-2l-0.5,3.1h1.9l-0.3,1.6h-1.9l-0.6,3.6H42L42.6,60.7z M42.8,59.2l0.5-3.1h-3.1l-0.5,3.1H42.8z"
		/>
	<path class="st1" d="M50.6,64c-0.8-0.3-1.3-0.8-1.8-1.3c-0.4-0.6-0.6-1.2-0.6-1.9c0-0.6,0.1-1.1,0.4-1.6c0.2-0.5,0.6-0.9,1-1.2
		c0.4-0.3,0.9-0.5,1.4-0.6v-0.1c-0.5-0.1-0.9-0.3-1.2-0.6c-0.3-0.3-0.6-0.6-0.8-1.1c-0.2-0.4-0.3-0.9-0.3-1.4c0-0.7,0.2-1.3,0.6-1.8
		c0.4-0.5,0.9-1,1.6-1.3c0.7-0.3,1.4-0.5,2.3-0.5c0.8,0,1.6,0.2,2.3,0.5c0.7,0.3,1.2,0.7,1.6,1.3c0.4,0.5,0.6,1.2,0.6,1.8
		c0,0.5-0.1,0.9-0.3,1.4c-0.2,0.4-0.5,0.8-0.8,1.1c-0.3,0.3-0.7,0.5-1.2,0.6v0.1c0.5,0.1,1,0.3,1.4,0.6c0.4,0.3,0.8,0.7,1,1.2
		c0.3,0.5,0.4,1,0.4,1.6c0,0.7-0.2,1.4-0.6,1.9c-0.4,0.6-1,1-1.8,1.3s-1.6,0.5-2.5,0.5C52.2,64.5,51.4,64.4,50.6,64z M54.7,62.6
		c0.4-0.2,0.8-0.4,1-0.8c0.2-0.3,0.4-0.7,0.4-1.2c0-0.5-0.1-0.9-0.4-1.2s-0.6-0.6-1-0.9s-0.9-0.3-1.5-0.3c-0.6,0-1,0.1-1.5,0.3
		s-0.8,0.5-1,0.9s-0.4,0.8-0.3,1.2c0,0.4,0.1,0.8,0.3,1.2c0.2,0.3,0.6,0.6,1,0.8c0.4,0.2,0.9,0.3,1.5,0.3
		C53.8,62.8,54.3,62.7,54.7,62.6z M54.4,56.3c0.4-0.2,0.7-0.4,0.9-0.7c0.2-0.3,0.3-0.7,0.3-1.1c0-0.4-0.1-0.8-0.3-1.1
		c-0.2-0.3-0.5-0.6-0.9-0.7c-0.4-0.2-0.8-0.3-1.3-0.3c-0.5,0-0.9,0.1-1.3,0.3c-0.4,0.2-0.7,0.4-0.9,0.7c-0.2,0.3-0.3,0.7-0.3,1.1
		c0,0.4,0.1,0.8,0.3,1.1c0.2,0.3,0.5,0.6,0.9,0.7c0.4,0.2,0.8,0.3,1.3,0.3C53.6,56.6,54.1,56.5,54.4,56.3z"/>
	<path class="st1" d="M60.4,64.3V50.9h4.5c1.3,0,2.4,0.3,3.4,0.8c0.9,0.5,1.7,1.3,2.2,2.3c0.5,1,0.8,2.2,0.8,3.6
		c0,1.4-0.3,2.6-0.8,3.6c-0.5,1-1.2,1.8-2.2,2.3c-1,0.5-2.1,0.8-3.5,0.8H60.4z M64.7,62.6c1.5,0,2.6-0.4,3.4-1.3
		c0.8-0.9,1.1-2.1,1.1-3.7c0-1.6-0.4-2.8-1.1-3.7c-0.8-0.8-1.9-1.3-3.3-1.3h-2.3v9.9H64.7z"/>
	<path class="st1" d="M79.8,52.8v-0.1h-6.9v-1.7h9v1.8l-6,11.6h-2.1L79.8,52.8z"/>
	<path class="st1" d="M92.6,53.8c-0.3-0.4-0.7-0.7-1.2-0.9c-0.5-0.2-1-0.3-1.6-0.3c-0.8,0-1.5,0.2-2.1,0.6c-0.6,0.4-1.1,1-1.4,1.7
		c-0.3,0.8-0.5,1.7-0.5,2.7s0.2,2,0.5,2.7c0.3,0.8,0.8,1.3,1.4,1.7s1.3,0.6,2.1,0.6c0.6,0,1.1-0.1,1.6-0.3s0.9-0.5,1.2-0.9
		c0.3-0.4,0.6-0.9,0.7-1.4l2.1,0c-0.1,0.9-0.5,1.7-1,2.3s-1.2,1.2-1.9,1.6c-0.8,0.4-1.7,0.6-2.6,0.6c-1.2,0-2.2-0.3-3.1-0.8
		c-0.9-0.6-1.6-1.4-2.1-2.4c-0.5-1-0.8-2.3-0.8-3.7S84,55,84.5,54c0.5-1,1.2-1.8,2.2-2.4s2-0.8,3.1-0.8c0.9,0,1.8,0.2,2.6,0.5
		c0.8,0.4,1.4,0.9,1.9,1.6s0.8,1.5,1,2.4h-2.1C93.1,54.7,92.9,54.2,92.6,53.8z"/>
	<path class="st1" d="M103.8,52.8v-0.1h-6.9v-1.7h9v1.8l-6,11.6h-2.1L103.8,52.8z"/>
	<path class="st1" d="M110.1,64c-0.7-0.3-1.2-0.8-1.6-1.3s-0.6-1.2-0.6-1.9h2c0,0.4,0.2,0.7,0.4,1c0.2,0.3,0.5,0.5,0.9,0.7
		c0.4,0.2,0.8,0.3,1.2,0.3c0.5,0,1-0.1,1.4-0.4s0.8-0.6,1-1c0.2-0.4,0.4-0.9,0.4-1.4c0-0.5-0.1-1-0.4-1.5c-0.2-0.4-0.6-0.8-1-1
		c-0.4-0.2-0.9-0.4-1.5-0.4c-1.1,0-1.9,0.4-2.4,1.2H108l0.9-7.5h7.6v1.7h-5.9l-0.4,3.8h0.1c0.3-0.3,0.7-0.5,1.1-0.7
		c0.4-0.2,0.9-0.3,1.4-0.3c0.8,0,1.6,0.2,2.3,0.6c0.7,0.4,1.2,0.9,1.6,1.6c0.4,0.7,0.6,1.4,0.6,2.3c0,0.9-0.2,1.7-0.6,2.3
		s-1,1.2-1.7,1.6c-0.7,0.4-1.6,0.6-2.5,0.6C111.5,64.5,110.8,64.4,110.1,64z"/>
</g>
</svg>
