<?xml version="1.0" encoding="utf-8"?>
<!-- Generator: Adobe Illustrator 22.1.0, SVG Export Plug-In . SVG Version: 6.00 Build 0)  -->
<svg version="1.1" id="Layer_1" xmlns="http://www.w3.org/2000/svg" xmlns:xlink="http://www.w3.org/1999/xlink" x="0px" y="0px"
	 viewBox="0 0 1112 620" style="enable-background:new 0 0 1112 620;" xml:space="preserve">
<style type="text/css">
	.st0{fill:#FFFFFF;stroke:#CEBDB3;stroke-width:0.5;stroke-miterlimit:10;}
</style>
<g>
	<rect class="st0" width="1112" height="620"/>
	<line class="st0" x1="0" y1="599.3" x2="1112" y2="599.3"/>
	<line class="st0" x1="0" y1="578.7" x2="1112" y2="578.7"/>
	<line class="st0" x1="0" y1="558" x2="1112" y2="558"/>
	<line class="st0" x1="0" y1="537.3" x2="1112" y2="537.3"/>
	<line class="st0" x1="0" y1="516.7" x2="1112" y2="516.7"/>
	<line class="st0" x1="0" y1="496" x2="1112" y2="496"/>
	<line class="st0" x1="0" y1="475.3" x2="1112" y2="475.3"/>
	<line class="st0" x1="0" y1="454.7" x2="1112" y2="454.7"/>
	<line class="st0" x1="0" y1="434" x2="1112" y2="434"/>
	<line class="st0" x1="0" y1="413.3" x2="1112" y2="413.3"/>
	<line class="st0" x1="0" y1="392.7" x2="1112" y2="392.7"/>
	<line class="st0" x1="0" y1="372" x2="1112" y2="372"/>
	<line class="st0" x1="0" y1="351.3" x2="1112" y2="351.3"/>
	<line class="st0" x1="0" y1="330.7" x2="1112" y2="330.7"/>
	<line class="st0" x1="0" y1="310" x2="1112" y2="310"/>
	<line class="st0" x1="0" y1="289.3" x2="1112" y2="289.3"/>
	<line class="st0" x1="0" y1="268.7" x2="1112" y2="268.7"/>
	<line class="st0" x1="0" y1="248" x2="1112" y2="248"/>
	<line class="st0" x1="0" y1="227.3" x2="1112" y2="227.3"/>
	<line class="st0" x1="0" y1="206.7" x2="1112" y2="206.7"/>
	<line class="st0" x1="0" y1="186" x2="1112" y2="186"/>
	<line class="st0" x1="0" y1="165.3" x2="1112" y2="165.3"/>
	<line class="st0" x1="0" y1="144.7" x2="1112" y2="144.7"/>
	<line class="st0" x1="0" y1="124" x2="1112" y2="124"/>
	<line class="st0" x1="0" y1="103.3" x2="1112" y2="103.3"/>
	<line class="st0" x1="0" y1="82.7" x2="1112" y2="82.7"/>
	<line class="st0" x1="0" y1="62" x2="1112" y2="62"/>
	<line class="st0" x1="0" y1="41.3" x2="1112" y2="41.3"/>
	<line class="st0" x1="0" y1="20.7" x2="1112" y2="20.7"/>
	<line class="st0" x1="1090.6" y1="0" x2="1090.6" y2="620"/>
	<line class="st0" x1="1069.2" y1="0" x2="1069.2" y2="620"/>
	<line class="st0" x1="1047.8" y1="0" x2="1047.8" y2="620"/>
	<line class="st0" x1="1026.5" y1="0" x2="1026.5" y2="620"/>
	<line class="st0" x1="1005.1" y1="0" x2="1005.1" y2="620"/>
	<line class="st0" x1="983.7" y1="0" x2="983.7" y2="620"/>
	<line class="st0" x1="962.3" y1="0" x2="962.3" y2="620"/>
	<line class="st0" x1="940.9" y1="0" x2="940.9" y2="620"/>
	<line class="st0" x1="919.5" y1="0" x2="919.5" y2="620"/>
	<line class="st0" x1="898.2" y1="0" x2="898.2" y2="620"/>
	<line class="st0" x1="876.8" y1="0" x2="876.8" y2="620"/>
	<line class="st0" x1="855.4" y1="0" x2="855.4" y2="620"/>
	<line class="st0" x1="834" y1="0" x2="834" y2="620"/>
	<line class="st0" x1="812.6" y1="0" x2="812.6" y2="620"/>
	<line class="st0" x1="791.2" y1="0" x2="791.2" y2="620"/>
	<line class="st0" x1="769.8" y1="0" x2="769.8" y2="620"/>
	<line class="st0" x1="748.5" y1="0" x2="748.5" y2="620"/>
	<line class="st0" x1="727.1" y1="0" x2="727.1" y2="620"/>
	<line class="st0" x1="705.7" y1="0" x2="705.7" y2="620"/>
	<line class="st0" x1="684.3" y1="0" x2="684.3" y2="620"/>
	<line class="st0" x1="662.9" y1="0" x2="662.9" y2="620"/>
	<line class="st0" x1="641.5" y1="0" x2="641.5" y2="620"/>
	<line class="st0" x1="620.2" y1="0" x2="620.2" y2="620"/>
	<line class="st0" x1="598.8" y1="0" x2="598.8" y2="620"/>
	<line class="st0" x1="577.4" y1="0" x2="577.4" y2="620"/>
	<line class="st0" x1="556" y1="0" x2="556" y2="620"/>
	<line class="st0" x1="534.6" y1="0" x2="534.6" y2="620"/>
	<line class="st0" x1="513.2" y1="0" x2="513.2" y2="620"/>
	<line class="st0" x1="491.8" y1="0" x2="491.8" y2="620"/>
	<line class="st0" x1="470.5" y1="0" x2="470.5" y2="620"/>
	<line class="st0" x1="449.1" y1="0" x2="449.1" y2="620"/>
	<line class="st0" x1="427.7" y1="0" x2="427.7" y2="620"/>
	<line class="st0" x1="406.3" y1="0" x2="406.3" y2="620"/>
	<line class="st0" x1="384.9" y1="0" x2="384.9" y2="620"/>
	<line class="st0" x1="363.5" y1="0" x2="363.5" y2="620"/>
	<line class="st0" x1="342.2" y1="0" x2="342.2" y2="620"/>
	<line class="st0" x1="320.8" y1="0" x2="320.8" y2="620"/>
	<line class="st0" x1="299.4" y1="0" x2="299.4" y2="620"/>
	<line class="st0" x1="278" y1="0" x2="278" y2="620"/>
	<line class="st0" x1="256.6" y1="0" x2="256.6" y2="620"/>
	<line class="st0" x1="235.2" y1="0" x2="235.2" y2="620"/>
	<line class="st0" x1="213.8" y1="0" x2="213.8" y2="620"/>
	<line class="st0" x1="192.5" y1="0" x2="192.5" y2="620"/>
	<line class="st0" x1="171.1" y1="0" x2="171.1" y2="620"/>
	<line class="st0" x1="149.7" y1="0" x2="149.7" y2="620"/>
	<line class="st0" x1="128.3" y1="0" x2="128.3" y2="620"/>
	<line class="st0" x1="106.9" y1="0" x2="106.9" y2="620"/>
	<line class="st0" x1="85.5" y1="0" x2="85.5" y2="620"/>
	<line class="st0" x1="64.2" y1="0" x2="64.2" y2="620"/>
	<line class="st0" x1="42.8" y1="0" x2="42.8" y2="620"/>
	<line class="st0" x1="21.4" y1="0" x2="21.4" y2="620"/>
</g>
</svg>
