<?xml version="1.0" encoding="UTF-8"?>
<svg id="Capa_1" xmlns="http://www.w3.org/2000/svg" version="1.1" xmlns:xlink="http://www.w3.org/1999/xlink" viewBox="0 0 512 512">
  <!-- Generator: Adobe Illustrator 29.2.1, SVG Export Plug-In . SVG Version: 2.1.0 Build 116)  -->
  <defs>
    <style>
      .st0 {
        fill: #ffe9de;
      }

      .st1 {
        fill: #c9b39d;
      }
    </style>
  </defs>
  <path class="st0" d="M472.9,177.4c4.2,5.3,5.9,12.3,4.4,18.9l-55,265.5c-1.3,8.9-8.8,15.7-17.8,16.1H107.5c-9-.4-16.5-7.2-17.8-16.1L34.7,196.3c-1.4-6.6.2-13.6,4.4-18.9,3.2-4.1,8.2-6.6,13.4-6.7h80.3v85.3c0,9.4,7.6,17.1,17.1,17.1s17.1-7.6,17.1-17.1v-85.3h178.1v85.3c0,9.4,7.6,17.1,17.1,17.1s17.1-7.6,17.1-17.1v-85.3h80.2c5.3.1,10.2,2.5,13.4,6.7Z"/>
  <path class="st1" d="M499.4,155.9c10.7,13.3,14.9,30.7,11.3,47.4l-55,265.4c-4.5,24.8-26,43-51.2,43.3H107.5c-25.2-.3-46.7-18.5-51.2-43.3L1.3,203.2c-3.6-16.7.5-34.1,11.3-47.3,9.7-12.1,24.4-19.2,39.9-19.3h80.3v-17.1C133.9,52.5,189-.9,256,0c67-.9,122.1,52.5,123.2,119.5v17.1h80.3c15.5,0,30.2,7.2,39.9,19.3ZM477.3,196.3c1.5-6.6-.2-13.6-4.4-18.9-3.2-4.2-8.1-6.6-13.4-6.7h-80.2v85.3c0,9.5-7.6,17.1-17.1,17.1s-17.1-7.7-17.1-17.1v-85.3h-178.1v85.3c0,9.5-7.6,17.1-17.1,17.1s-17.1-7.7-17.1-17.1v-85.3H52.5c-5.2.1-10.2,2.6-13.4,6.7-4.2,5.3-5.8,12.3-4.4,18.9l55,265.5c1.3,8.9,8.8,15.7,17.8,16.1h297c9-.4,16.5-7.2,17.8-16.1l55-265.5ZM345.1,136.6v-17.1c-1.2-48.1-41-86.2-89.1-85.3-48.2-1-88,37.2-89.1,85.3v17.1h178.2Z"/>
</svg>