<svg width="27" height="25" viewBox="0 0 27 25" fill="none" xmlns="http://www.w3.org/2000/svg">
<path d="M2.41554 14.3537C0.805283 12.7434 0 10.6328 0 8.52268C0 6.41252 0.805283 4.30184 2.41522 2.69159C4.02548 1.08165 6.13605 0.276367 8.24631 0.276367C10.1127 0.276367 11.9798 0.906371 13.5001 2.16596C15.0204 0.906371 16.8871 0.276367 18.7539 0.276367C20.8637 0.276367 22.9743 1.08165 24.5846 2.69159C26.1948 4.30184 27.0001 6.41242 27.0001 8.52268C27.0001 10.6329 26.1948 12.7435 24.5846 14.3538L14.7183 24.2201C14.3828 24.5556 13.9411 24.7235 13.5001 24.7235C13.0613 24.7235 12.6207 24.5556 12.2852 24.2201L2.41554 14.3537ZM4.38137 9.42773C4.46566 9.8697 4.17586 10.2966 3.7338 10.3813C3.29183 10.4656 2.86493 10.1758 2.78021 9.73374C2.42077 7.86977 2.9991 5.94964 4.34759 4.59133C5.37919 3.55199 6.80778 2.90452 8.39021 2.89322C8.83929 2.89145 9.20502 3.25403 9.20679 3.70311C9.20815 4.15219 8.84557 4.51791 8.3966 4.51969C7.26627 4.52774 6.24314 4.99292 5.50218 5.73922C4.53741 6.71069 4.1242 8.094 4.38137 9.42773ZM3.56971 13.1992L13.4315 23.0638C13.4494 23.0824 13.4744 23.0909 13.5 23.0909C13.5238 23.0909 13.5471 23.0821 13.5636 23.0656L23.4299 13.1993C24.721 11.9081 25.3668 10.2152 25.3668 8.52278C25.3668 6.83033 24.721 5.13746 23.4299 3.84628C22.1387 2.55511 20.4461 1.90931 18.7537 1.90931C17.0609 1.90931 15.3684 2.55511 14.0772 3.84628C13.7585 4.16494 13.2414 4.16494 12.9226 3.84628C11.6314 2.55511 9.93856 1.90931 8.2461 1.90931C6.55365 1.90931 4.86077 2.55511 3.5696 3.84628C2.27843 5.13746 1.63305 6.83022 1.63305 8.52268C1.63305 10.2154 2.27885 11.9079 3.56971 13.1992Z" fill="#C7B9AB"/>
</svg>
