<svg width="27" height="27" viewBox="0 0 27 27" fill="none" xmlns="http://www.w3.org/2000/svg">
<path d="M13.5 0.00210708C9.96852 -0.0473877 7.0629 2.7701 7.00373 6.30144V7.20134H2.76788C1.9488 7.20489 1.17533 7.57902 0.664073 8.21897C0.0970768 8.91842 -0.122725 9.83711 0.0663676 10.7174L2.96822 24.716C3.20557 26.0259 4.33855 26.9835 5.66973 26.9992H21.3302C22.6614 26.9835 23.7944 26.0259 24.0317 24.716L26.9336 10.7183C27.1228 9.83767 26.903 8.9187 26.3359 8.21897C25.8246 7.57902 25.0511 7.20489 24.2321 7.20134H19.9962V6.30144C19.937 2.7701 17.0314 -0.0473877 13.5 0.00210708ZM8.80354 6.30144C8.86254 3.7641 10.9624 1.75225 13.5 1.80192C16.0375 1.75225 18.1374 3.7641 18.1964 6.30144V7.20134H8.80354V6.30144ZM24.2321 9.00115C24.5095 9.00571 24.7698 9.13558 24.9403 9.35448C25.1636 9.63519 25.2488 10.0015 25.1725 10.3519L22.2704 24.3505C22.1997 24.8215 21.806 25.177 21.3302 25.1994H5.66973C5.19391 25.177 4.80026 24.8215 4.7295 24.3505L1.82748 10.351C1.75121 10.0008 1.83648 9.63491 2.05966 9.35448C2.23013 9.13563 2.49049 9.00571 2.76788 9.00115H7.00373V13.5007C7.00373 13.9977 7.40661 14.4006 7.90364 14.4006C8.40066 14.4006 8.80354 13.9977 8.80354 13.5007V9.00115H18.1964V13.5007C18.1964 13.9977 18.5993 14.4006 19.0963 14.4006C19.5933 14.4006 19.9962 13.9977 19.9962 13.5007V9.00115H24.2321Z" fill="#C7B9AB"/>
</svg>
