<?xml version="1.0" encoding="UTF-8"?>
<svg id="Capa_1" xmlns="http://www.w3.org/2000/svg" version="1.1" xmlns:xlink="http://www.w3.org/1999/xlink" viewBox="0 0 512 512">
  <!-- Generator: Adobe Illustrator 29.2.1, SVG Export Plug-In . SVG Version: 2.1.0 Build 116)  -->
  <defs>
    <style>
      .st0 {
        fill: #ffe9de;
      }

      .st1 {
        fill: #c9b39d;
      }
    </style>
  </defs>
  <g id="Layer_x5F_1">
    <g>
      <path class="st0" d="M444.3,91.9c24.5,24.5,36.7,56.6,36.7,88.7s-12.3,64.2-36.7,88.7l-187.1,187.1c-.3.3-.8.5-1.2.5s-1-.2-1.3-.5l-187-187.1c-24.5-24.5-36.7-56.6-36.7-88.7s12.2-64.2,36.7-88.7c24.5-24.5,56.6-36.7,88.7-36.7s64.2,12.3,88.7,36.7c6.1,6,15.8,6,21.9,0,24.5-24.5,56.6-36.7,88.7-36.7,32,0,64.1,12.2,88.6,36.7ZM159.2,104.7c8.5,0,15.4-7,15.4-15.5s-7-15.4-15.5-15.4c-30,.2-57.1,12.5-76.7,32.2-25.6,25.8-36.5,62.2-29.7,97.5,1.6,8.4,9.7,13.9,18.1,12.3,8.4-1.6,13.9-9.7,12.3-18.1-4.9-25.3,3-51.5,21.3-69.9,14-14.2,33.4-23,54.8-23.1Z"/>
      <path class="st1" d="M466.2,70c30.5,30.5,45.8,70.6,45.8,110.6s-15.3,80-45.8,110.6l-187.1,187.1c-6.4,6.4-14.7,9.5-23.1,9.5s-16.7-3.2-23-9.5L45.8,291.1C15.3,260.6,0,220.6,0,180.6s15.3-80,45.8-110.6c30.5-30.5,70.6-45.8,110.6-45.8s70.8,12,99.6,35.8c28.8-23.9,64.2-35.8,99.6-35.8,40,0,80.1,15.3,110.6,45.8ZM481,180.6c0-32.1-12.3-64.2-36.7-88.7-24.5-24.5-56.6-36.7-88.7-36.7s-64.2,12.3-88.7,36.7c-6.1,6-15.9,6-21.9,0-24.5-24.5-56.6-36.7-88.7-36.7s-64.1,12.2-88.6,36.7-36.7,56.6-36.7,88.7,12.2,64.2,36.7,88.7l187,187.1c.3.4.8.5,1.3.5s.9-.2,1.2-.5l187.1-187.1c24.5-24.5,36.7-56.6,36.7-88.7Z"/>
      <path class="st1" d="M174.6,89.2c0,8.5-6.8,15.4-15.4,15.5-21.4.2-40.8,9-54.9,23.1-18.3,18.4-26.1,44.6-21.3,69.9,1.6,8.4-3.9,16.5-12.3,18.1s-16.5-3.9-18.1-12.3c-6.8-35.3,4.1-71.8,29.7-97.5,19.6-19.7,46.7-32,76.7-32.2,8.6,0,15.6,6.9,15.6,15.4Z"/>
    </g>
  </g>
</svg>