<?xml version="1.0" encoding="utf-8"?>
<!-- Generator: Adobe Illustrator 22.1.0, SVG Export Plug-In . SVG Version: 6.00 Build 0)  -->
<svg version="1.1" id="Layer_1" xmlns="http://www.w3.org/2000/svg" xmlns:xlink="http://www.w3.org/1999/xlink" x="0px" y="0px"
	 viewBox="0 0 78 92" style="enable-background:new 0 0 78 92;" xml:space="preserve">
<style type="text/css">
	.st0{fill:#746960;}
</style>
<g>
	<path class="st0" d="M56.5,18.9l4.3,4.2c0.2,0.2,0.4,0.3,0.7,0.3h0c0.2,0,0.5-0.1,0.7-0.3l10.7-12.4c0.7-0.8,1.1-1.9,1-3
		c0-1.1-0.5-2.1-1.3-2.9c-0.8-0.8-1.8-1.1-2.8-1.1c-1,0-2,0.5-2.7,1.3L56.5,17.4c-0.2,0.2-0.3,0.5-0.2,0.7l0,0
		C56.3,18.4,56.4,18.7,56.5,18.9 M59.3,24.9L55,20.7c-0.7-0.6-1-1.5-1.1-2.4v0c0-0.9,0.2-1.8,0.9-2.5L65.5,3.4
		c1.2-1.3,2.7-2.1,4.3-2.1C71.4,1.2,73,1.8,74.2,3c1.3,1.2,1.9,2.9,2,4.6c0.1,1.7-0.5,3.4-1.6,4.7L63.9,24.7
		c-0.6,0.7-1.4,1.1-2.3,1.1v0C60.8,25.8,60,25.5,59.3,24.9z"/>
	<path class="st0" d="M57.5,25.1c0.5,0.5,0.5,1.2,0.1,1.7c-0.4,0.5-1.2,0.5-1.6,0.1l-2.3-2.2c-0.5-0.5-0.5-1.2-0.1-1.7
		c0.4-0.5,1.2-0.5,1.6-0.1L57.5,25.1z"/>
	<polygon class="st0" points="36.4,44.9 50.9,28.1 52.6,29.8 38.1,46.6 	"/>
	<path class="st0" d="M52.4,45.3c1.2-3.1,1.9-6.5,1.6-9.5c-0.3-2.5-1.2-4.9-3.2-6.8l1.6-1.8c2.4,2.4,3.6,5.3,3.9,8.3
		c0.4,3.5-0.4,7.2-1.7,10.7L52.4,45.3z"/>
	<path class="st0" d="M45.6,45c1.8-3,3.3-6.1,4.1-9c0.8-2.7,1-5.1,0.6-6.8l2.2-0.6c0.6,2.2,0.3,5-0.6,8.1c-0.9,3.1-2.4,6.5-4.4,9.7
		L45.6,45z"/>
	<path class="st0" d="M21.1,45.6c0.1-1.3,0.4-2.6,0.9-3.9c0.5-1.3,1.1-2.5,1.9-3.8c0.5-0.8,1.1-1.7,1.9-2.5c2.8-3.3,7.1-6.9,11.8-9
		c4.8-2.1,10-2.6,14.4,0.5c0.5,0.3,1,0.7,1.4,1.2l-1.5,1.8c-0.4-0.4-0.8-0.7-1.2-1c-3.6-2.6-8-2.1-12.2-0.3c-4.3,1.9-8.3,5.2-11,8.3
		c-0.7,0.8-1.2,1.5-1.7,2.3c-0.7,1.1-1.2,2.2-1.6,3.3c-0.4,1.1-0.6,2.2-0.8,3.3L21.1,45.6z"/>
	<path class="st0" d="M27.4,45.2c0.3-0.7,0.7-1.3,1.1-2c0.4-0.7,0.8-1.3,1.3-2c2.9-3.9,6.9-7.4,11-9.8c4.1-2.5,8.3-3.8,11.3-3.2
		l-0.4,2.4c-2.4-0.5-6,0.7-9.7,3c-3.8,2.3-7.6,5.5-10.3,9.2c-0.4,0.6-0.8,1.2-1.2,1.8c-0.4,0.6-0.7,1.2-1,1.8L27.4,45.2z"/>
	<path class="st0" d="M53.5,81.5H20c-0.9,0-1.7,0.4-2.2,1c-0.6,0.6-0.9,1.5-0.9,2.4v0c0,0.9,0.4,1.8,0.9,2.4c0.6,0.6,1.4,1,2.2,1
		h33.4c0.9,0,1.7-0.4,2.2-1c0.6-0.6,0.9-1.5,0.9-2.4v0c0-0.9-0.4-1.8-0.9-2.4C55.1,81.9,54.3,81.5,53.5,81.5 M20,79.1h33.4
		c1.5,0,2.9,0.7,3.9,1.7c1,1.1,1.6,2.5,1.6,4.1v0c0,1.6-0.6,3.1-1.6,4.1c-1,1.1-2.4,1.7-3.9,1.7H20c-1.5,0-2.9-0.7-3.9-1.7
		c-1-1.1-1.6-2.5-1.6-4.1v0c0-1.6,0.6-3.1,1.6-4.1C17.2,79.7,18.5,79.1,20,79.1z"/>
	<path class="st0" d="M18.1,81.6c-4.9-3.3-8.9-7.9-11.7-13.3c-2.7-5.2-4.2-11.2-4.2-17.6c0-0.5,0-1,0-1.7c0-0.5,0.1-1.1,0.1-1.7
		c0.1-0.9,0.5-1.8,1.1-2.4c0.6-0.6,1.4-1,2.3-1h61.9c0.9,0,1.7,0.4,2.3,1c0.6,0.6,1,1.4,1.1,2.4c0,0.6,0.1,1.1,0.1,1.7
		c0,0.6,0,1.2,0,1.7c0,6.3-1.5,12.3-4.2,17.5c-2.8,5.4-6.8,10-11.6,13.3l-1.3-2.1c4.5-3.1,8.3-7.4,10.9-12.4
		c2.5-4.9,3.9-10.4,3.9-16.4c0-0.6,0-1.1,0-1.5c0-0.5-0.1-1.1-0.1-1.6c0-0.3-0.2-0.6-0.4-0.8c-0.2-0.2-0.5-0.3-0.7-0.3H5.8
		c-0.3,0-0.6,0.1-0.7,0.3c-0.2,0.2-0.3,0.5-0.4,0.8c0,0.5-0.1,1-0.1,1.6c0,0.5,0,1,0,1.5c0,5.9,1.4,11.5,3.9,16.4
		c2.6,5,6.3,9.3,10.9,12.4L18.1,81.6z"/>
	<path class="st0" d="M9.3,55.6c-0.1-0.7,0.3-1.3,1-1.4c0.6-0.1,1.2,0.3,1.3,1c0.5,3.1,1.4,5.9,2.8,8.6c1.4,2.7,3.2,5.1,5.3,7.1
		c0.5,0.5,0.5,1.2,0.1,1.7c-0.4,0.5-1.2,0.5-1.6,0.1c-2.3-2.2-4.3-4.8-5.8-7.8C10.9,62.1,9.9,59,9.3,55.6"/>
	<polygon class="st0" points="56.2,26.1 50.6,32.2 49,30.5 54.6,24.4 	"/>
</g>
</svg>
